rangeen3.sfdir
StartChar: exclam
Encoding: 33 33 0
Width: 109
Flags: HW
LayerCount: 2
Fore
SplineSet
14.6394369768 812.425753054 m 2
 14.6394369768 831.937426311 30.4830523707 847.778463049 49.9947256281 847.778463049 c 0
 69.3589541923 847.778463049 85.1077811876 832.175966545 85.3446950706 812.867485081 c 2
 91.3607582831 322.558333266 l 2
 91.3607582831 303.046660008 75.5170428742 287.205622044 56.0053696168 287.205622044 c 0
 36.6411410526 287.205622044 20.8924140723 302.808119774 20.6553049294 322.132514919 c 2
 14.6394369768 812.425753054 l 2
23.6446609407 203 m 2
 23.6446609407 222.513141957 39.4868580431 238.355339059 59 238.355339059 c 0
 78.5131419569 238.355339059 94.3553390593 222.513141957 94.3553390593 203 c 2
 94.3553390593 137 l 2
 94.3553390593 117.486858043 78.5131419569 101.644660941 59 101.644660941 c 0
 39.4868580431 101.644660941 23.6446609407 117.486858043 23.6446609407 137 c 2
 23.6446609407 203 l 2
EndSplineSet
EndChar
StartChar: quotedbl
Encoding: 34 34 1
Width: 242
Flags: HW
LayerCount: 2
Fore
SplineSet
100 737 m 0
 100 743.399414062 102.439453125 749.799804688 107.317382812 754.677734375 c 0
 112.1953125 759.555664062 118.595703125 761.995117188 124.995117188 761.995117188 c 0
 131.39453125 761.995117188 137.794921875 759.555664062 142.672851562 754.677734375 c 0
 147.260742188 750.08984375 149.690429688 744.157226562 149.963867188 738.143554688 c 2
 152.963867188 672.143554688 l 2
 152.981445312 671.762695312 152.990234375 671.380859375 152.990234375 671 c 0
 152.990234375 664.600585938 150.55078125 658.200195312 145.672851562 653.322265625 c 0
 140.794921875 648.444335938 134.39453125 646.004882812 127.995117188 646.004882812 c 0
 121.595703125 646.004882812 115.1953125 648.444335938 110.317382812 653.322265625 c 0
 105.729492188 657.91015625 103.298828125 663.842773438 103.026367188 669.856445312 c 2
 100.026367188 735.856445312 l 2
 100.008789062 736.237304688 100 736.619140625 100 737 c 0
190 740 m 0
 190 746.399414062 192.439453125 752.799804688 197.317382812 757.677734375 c 0
 202.1953125 762.555664062 208.595703125 764.995117188 214.995117188 764.995117188 c 0
 221.39453125 764.995117188 227.794921875 762.555664062 232.672851562 757.677734375 c 0
 237.260742188 753.08984375 239.690429688 747.157226562 239.963867188 741.143554688 c 2
 242.963867188 675.143554688 l 2
 242.981445312 674.762695312 242.990234375 674.380859375 242.990234375 674 c 0
 242.990234375 667.600585938 240.55078125 661.200195312 235.672851562 656.322265625 c 0
 230.794921875 651.444335938 224.39453125 649.004882812 217.995117188 649.004882812 c 0
 211.595703125 649.004882812 205.1953125 651.444335938 200.317382812 656.322265625 c 0
 195.729492188 660.91015625 193.298828125 666.842773438 193.026367188 672.856445312 c 2
 190.026367188 738.856445312 l 2
 190.008789062 739.237304688 190 739.619140625 190 740 c 0
EndSplineSet
EndChar
StartChar: numbersign
Encoding: 35 35 2
Width: 519
Flags: HW
HStem: 220 70<57 383.932> 229 70<140.865 468> 420 70<57 383.932> 429 70<140.865 468>
LayerCount: 2
Fore
SplineSet
57 220 m 1x80
 55 290 l 1x80
 468 299 l 1
 469 229 l 1x40
 57 220 l 1x80
57 420 m 1x20
 55 490 l 1x20
 468 499 l 1
 469 429 l 1x10
 57 420 l 1x20
347 553 m 1
 416 542 l 1
 360 180 l 1
 291 191 l 1
 347 553 l 1
146 553 m 1
 215 542 l 1
 159 180 l 1
 90 191 l 1
 146 553 l 1
EndSplineSet
EndChar
StartChar: dollar
Encoding: 36 36 3
Width: 541
Flags: HW
LayerCount: 2
Fore
SplineSet
214.644660941 203 m 6
 214.644660941 222.513141957 230.486858043 238.355339059 250 238.355339059 c 4
 269.513141957 238.355339059 285.355339059 222.513141957 285.355339059 203 c 6
 285.355339059 -1 l 6
 285.355339059 -20.5131419569 269.513141957 -36.3553390593 250 -36.3553390593 c 4
 230.486858043 -36.3553390593 214.644660941 -20.5131419569 214.644660941 -1 c 6
 214.644660941 203 l 6
247.644660941 803 m 6
 247.644660941 822.513141957 263.486858043 838.355339059 283 838.355339059 c 4
 302.513141957 838.355339059 318.355339059 822.513141957 318.355339059 803 c 6
 318.355339059 611 l 6
 318.355339059 591.486858043 302.513141957 575.644660941 283 575.644660941 c 4
 263.486858043 575.644660941 247.644660941 591.486858043 247.644660941 611 c 6
 247.644660941 803 l 6
219.882889096 546.955401274 m 0
 219.882889096 530.933644524 222.609638975 514.984841598 228.355339059 500 c 0
 229.293718854 498.858422998 230.250302887 497.719262719 231.224221697 496.582261606 c 0
 255.842930294 474.376957563 282.139441513 453.174368206 305.724185832 429.589623887 c 2
 341.079524891 394.234284828 l 2
 377.148638293 358.165171426 405.983518581 317.411803822 405.983518581 265.567273561 c 0
 405.983518581 248.925022399 403.01228764 231.139905189 396.355339059 212 c 1
 396.292271885 191.449236398 388.374660728 175.39504536 376.188699595 163.209084227 c 2
 340.833360535 127.853745167 l 2
 325.098559363 112.118943995 302.247315388 102.833482034 280 98.6446609407 c 0
 270.848609401 96.9215974022 263.020267044 96.1197681811 256.150393285 96.1197681811 c 0
 230.609465465 96.1197681811 218.31664122 107.202777682 200.536814467 123.232778998 c 0
 195.585048219 127.697210546 190.207683186 132.545355005 184 137.644660941 c 2
 148.644660941 173 l 1
 133.644660941 227 l 2
 132.837783067 229.904760347 132.406495583 232.965155476 132.406495583 236.125488294 c 0
 132.406495583 254.926750042 147.670736219 270.190990678 166.471997968 270.190990678 c 0
 182.112926898 270.190990678 195.305983595 259.627041627 199.290104237 245.23484536 c 0
 205.374666231 223.330422183 211.459228224 201.425999006 217.543790218 179.521575828 c 1
 228.233548741 171.646759792 239.313374726 166.8304463 256.150393285 166.8304463 c 0
 263.020267044 166.8304463 270.848609401 167.632275521 280 169.355339059 c 0
 293.48411885 171.894187477 307.190095912 176.305329494 319.398942283 182.889951844 c 1
 323.348438425 191.380554303 325.611063925 201.05223958 325.644660941 212 c 0
 332.30160943 231.139905029 335.272840334 248.92502211 335.272840334 265.567273167 c 0
 335.272840334 309.482312641 314.583872716 345.439465658 286.333913145 377.332584851 c 0
 261.901773799 399.637982048 233.845941434 422.123966499 211.226071013 444.74383692 c 2
 175.870731954 480.099175979 l 2
 169.285607249 486.684300684 163.151644644 493.300525846 157.644660941 500 c 0
 151.898960908 514.984841463 149.172211026 530.933644238 149.172211026 546.955400809 c 0
 149.172211026 585.082867419 164.614118433 623.623480018 191.560038802 650.569400386 c 2
 226.915377861 685.924739446 l 2
 242.164061977 701.173423561 261.096817625 712.708996808 283 718.355339059 c 1
 290.13254658 714.987202046 297.33669155 708.303685756 304.881184008 700.759193299 c 0
 315.477138507 690.163238799 326.859552492 677.622923559 340 670.355339059 c 2
 369.947433391 653.792318464 l 2
 379.417160973 648.557569985 385.879722581 638.396494913 385.879722581 626.73791876 c 0
 385.879722581 609.662375109 372.016546228 595.799198756 354.941002576 595.799198756 c 0
 349.524035078 595.799198756 344.43035483 597.19436554 340 599.644660941 c 0
 325.361204411 607.740936493 312.489097091 622.364481808 300.589422309 634.26415659 c 0
 294.584644757 640.027413555 288.76890326 644.920464698 283 647.644660941 c 1
 269.492447553 644.162596727 257.114580121 638.440793589 246.033773819 630.989627997 c 1
 229.216701395 606.490424494 219.882889096 576.598050442 219.882889096 546.955401274 c 0
EndSplineSet
EndChar
StartChar: percent
Encoding: 37 37 4
Width: 572
Flags: W
HStem: 219 70<428.304 454.208> 345 70<428.304 454.208> 519 70<128.304 154.208> 645 70<128.304 154.208>
VStem: 55 71<590.438 643.562> 157 71<590.438 643.562> 355 71<290.438 343.562> 457 71<290.438 343.562>
LayerCount: 2
Fore
SplineSet
355 317 m 0
 355 337 362 354 374 366 c 2
 409 401 l 2
 418 410 429 415 441 415 c 0
 453 415 464 410 473 401 c 2
 509 366 l 2
 521 354 528 337 528 317 c 0
 528 297 521 280 509 268 c 2
 473 233 l 2
 464 224 453 219 441 219 c 0
 429 219 418 224 409 233 c 2
 374 268 l 2
 362 280 355 297 355 317 c 0
426 317 m 0
 426 308 427 299 430 291 c 0
 434 290 437 289 441 289 c 0
 445 289 448 290 452 291 c 0
 455 299 457 308 457 317 c 0
 457 326 455 335 452 343 c 0
 448 344 445 345 441 345 c 0
 437 345 434 344 430 343 c 0
 427 335 426 326 426 317 c 0
55 617 m 0
 55 637 62 654 74 666 c 2
 109 701 l 2
 118 710 129 715 141 715 c 0
 153 715 164 710 173 701 c 2
 209 666 l 2
 221 654 228 637 228 617 c 0
 228 597 221 580 209 568 c 2
 173 533 l 2
 164 524 153 519 141 519 c 0
 129 519 118 524 109 533 c 2
 74 568 l 2
 62 580 55 597 55 617 c 0
126 617 m 0
 126 608 127 599 130 591 c 0
 134 590 137 589 141 589 c 0
 145 589 148 590 152 591 c 0
 155 599 157 608 157 617 c 0
 157 626 155 635 152 643 c 0
 148 644 145 645 141 645 c 0
 137 645 134 644 130 643 c 0
 127 635 126 626 126 617 c 0
444 692 m 0
 460 692 473 680 473 664 c 0
 473 658 471 652 468 647 c 2
 114 149 l 2
 109 142 100 136 90 136 c 0
 74 136 62 149 62 165 c 0
 62 171 64 177 67 182 c 2
 421 680 l 2
 426 687 434 692 444 692 c 0
EndSplineSet
EndChar
StartChar: ampersand
Encoding: 38 38 5
Width: 428
Flags: HW
LayerCount: 2
Fore
SplineSet
348.793945312 546.864257812 m 0
 348.793945312 464.100585938 292.93359375 412.325195312 245.90625 368.979492188 c 1
 264.8984375 323.901367188 284.604492188 266.053710938 307.696289062 232.0234375 c 2
 344.802734375 177.340820312 l 1
 352.474609375 190.216796875 359.387695312 204.1796875 364.86328125 217.694335938 c 0
 374.12109375 240.546875 379 262.375 379 272 c 0
 379 278.399414062 381.439453125 284.799804688 386.317382812 289.677734375 c 0
 391.1953125 294.555664062 397.595703125 296.995117188 403.995117188 296.995117188 c 0
 410.39453125 296.995117188 416.794921875 294.555664062 421.672851562 289.677734375 c 0
 426.55078125 284.799804688 428.990234375 278.399414062 428.990234375 272 c 0
 428.990234375 250.69140625 421.998046875 225.544921875 411.196289062 198.879882812 c 0
 402.077148438 176.37109375 390.055664062 152.965820312 375.359375 132.30859375 c 1
 410.047851562 81.1904296875 l 2
 412.91015625 76.9716796875 414.341796875 72.0693359375 414.341796875 67.1669921875 c 0
 414.341796875 60.767578125 411.90234375 54.3671875 407.024414062 49.4892578125 c 0
 402.146484375 44.611328125 395.74609375 42.171875 389.346679688 42.171875 c 0
 381.157226562 42.171875 373.013671875 46.7060546875 368.645507812 53.1435546875 c 2
 340.715820312 94.3037109375 l 1
 325.681640625 82.078125 307.852539062 73.0048828125 286.995117188 73.0048828125 c 0
 221.807617188 73.0048828125 168.760742188 79.724609375 134.7265625 113.7578125 c 0
 111.1328125 137.352539062 100 171.442382812 100 215 c 0
 100 290.216796875 143.10546875 340.362304688 185.380859375 380.911132812 c 0
 183.981445312 383.641601562 182.575195312 386.280273438 181.158203125 388.817382812 c 0
 170.206054688 408.44140625 167.559570312 428.08984375 165.059570312 444.181640625 c 0
 162.813476562 458.643554688 160.71875 470.620117188 156.17578125 480.778320312 c 0
 154.725585938 484.021484375 154 487.510742188 154 491 c 2
 154 644 l 2
 154 647.1015625 154.573242188 650.203125 155.71875 653.131835938 c 2
 182.71875 722.131835938 l 2
 184.73828125 727.29296875 188.796875 731.961914062 193.560546875 734.694335938 c 0
 201.395507812 739.1875 206.892578125 746.79296875 213.403320312 753.303710938 c 0
 219.708007812 759.608398438 228.715820312 766.994140625 241.02734375 771.5703125 c 0
 250.822265625 775.2109375 262.0625 776.995117188 274.995117188 776.995117188 c 0
 290.065429688 776.995117188 303.4609375 770.399414062 312.838867188 761.021484375 c 0
 330.192382812 743.66796875 337.328125 717.692382812 341.658203125 689.043945312 c 0
 346.715820312 655.57421875 346.930664062 619.092773438 347.162109375 593.12109375 c 0
 347.276367188 580.208007812 347.469726562 569.537109375 347.870117188 565.458984375 c 0
 348.494140625 559.09375 348.793945312 552.8984375 348.793945312 546.864257812 c 0
274.995117188 727.004882812 m 0
 266.5625 727.004882812 261.643554688 725.884765625 258.49609375 724.71484375 c 0
 254.627929688 723.276367188 252.479492188 721.668945312 248.758789062 717.948242188 c 0
 241.37890625 710.568359375 235.471679688 703.185546875 226.388671875 696.501953125 c 1
 203.990234375 639.260742188 l 1
 203.990234375 496.038085938 l 1
 210.271484375 480.056640625 212.448242188 464.817382812 214.454101562 451.90625 c 0
 216.756835938 437.079101562 218.881835938 425.520507812 223.28515625 416.193359375 c 1
 229.379882812 421.89453125 235.309570312 427.552734375 240.97265625 433.216796875 c 0
 275.392578125 467.63671875 298.833007812 500.21875 298.833007812 546.318359375 c 0
 298.833007812 550.918945312 298.599609375 555.655273438 298.120117188 560.541015625 c 0
 297.28515625 569.049804688 297.290039062 579.52734375 297.173828125 592.672851562 c 0
 296.849609375 629.133789062 295.896484375 684.232421875 284.475585938 713.41015625 c 0
 281.9296875 719.915039062 279.092773438 724.057617188 277.484375 725.666015625 c 0
 276.283203125 726.8671875 276.02734375 727.025390625 275.587890625 727.025390625 c 0
 275.430664062 727.025390625 275.25 727.004882812 274.995117188 727.004882812 c 0
149.990234375 215 m 0
 149.990234375 179.419921875 158.564453125 160.631835938 170.08203125 149.11328125 c 0
 178.463867188 140.731445312 190.37890625 134.4296875 207.032226562 130.135742188 c 0
 227.740234375 124.796875 255.0859375 122.857421875 286.791015625 122.849609375 c 0
 288.060546875 122.82421875 302.775390625 127.447265625 312.45703125 135.947265625 c 1
 266.293945312 203.9765625 l 2
 240.651367188 241.765625 224.6328125 288.143554688 206.9921875 331.9921875 c 1
 173.1640625 297.451171875 149.990234375 263.1875 149.990234375 215 c 0
EndSplineSet
EndChar
StartChar: quotesingle
Encoding: 39 39 6
Width: 307
Flags: HW
LayerCount: 2
Fore
SplineSet
157.02601106 764.313311437 m 0
 176.532030132 764.313311437 192.368444355 748.476897214 192.368444355 728.970878142 c 0
 192.368444355 728.646216811 192.364057223 728.322572064 192.355339059 728 c 2
 189.303725426 615.090295554 l 2
 188.788646467 596.032374085 173.155755167 580.718740401 153.974397426 580.718740401 c 0
 134.468378354 580.718740401 118.631964131 596.555154624 118.631964131 616.061173696 c 0
 118.631964131 616.385835027 118.636351263 616.709479775 118.644660941 617 c 2
 121.696274574 729.909704446 l 2
 122.211762019 748.999677753 137.844653318 764.313311437 157.02601106 764.313311437 c 0
EndSplineSet
EndChar
StartChar: parenleft
Encoding: 40 40 7
Width: 391
Flags: HW
LayerCount: 2
Fore
SplineSet
177.355339059 467 m 0
 177.355339059 244.157725422 192.028263702 54.3295312907 212.769513246 -17.8726849242 c 1
 223.832466124 -23.8500654717 231.355339059 -35.5534348282 231.355339059 -49 c 0
 231.355339059 -68.5131419569 215.513141957 -84.3553390593 196 -84.3553390593 c 0
 194.059146332 -84.3553390593 192.143405417 -83.388498066 190.257651273 -81.5027439219 c 2
 154.902312213 -46.1474048626 l 2
 127.639746084 -18.8848387331 106.644660941 200.438109847 106.644660941 467 c 0
 106.644660941 733.561890153 127.639746084 952.884838733 154.902312213 980.147404863 c 2
 190.257651273 1015.50274392 l 2
 192.143405417 1017.38849807 194.059146332 1018.35533906 196 1018.35533906 c 0
 215.513141957 1018.35533906 231.355339059 1002.51314196 231.355339059 983 c 0
 231.355338051 969.553436165 223.832466287 957.850067585 212.769514823 951.872686611 c 1
 192.02826397 879.670472173 177.355339059 689.842276611 177.355339059 467 c 0
EndSplineSet
EndChar
StartChar: parenright
Encoding: 41 41 8
Width: 203
Flags: HW
LayerCount: 2
Fore
SplineSet
124.995117188 -73.9951171875 m 0
 118.595703125 -73.9951171875 112.1953125 -71.5556640625 107.317382812 -66.677734375 c 0
 102.439453125 -61.7998046875 100 -55.3994140625 100 -49 c 0
 100 -39.4580078125 106.0625 -30.4814453125 113.873046875 -26.6044921875 c 1
 116.184570312 -21.3046875 l 1
 124.452148438 0.6318359375 133.846679688 54.55859375 140.521484375 126.421875 c 0
 148.888671875 216.509765625 154 336.032226562 154 467 c 0
 154 614.325195312 147.518554688 747.219726562 137.23828125 839.923828125 c 0
 132.676757812 881.065429688 127.30859375 914.352539062 121.791015625 936.5703125 c 0
 118.881835938 948.284179688 115.501953125 956.782226562 113.741210938 960.670898438 c 0
 105.999023438 964.5703125 100 973.515625 100 983 c 0
 100 989.399414062 102.439453125 995.799804688 107.317382812 1000.67773438 c 0
 112.1953125 1005.55566406 118.595703125 1007.99511719 124.995117188 1007.99511719 c 0
 135.80078125 1007.99511719 143.729492188 1002.51074219 148.415039062 997.825195312 c 0
 154.510742188 991.729492188 157.72265625 985.421875 160.684570312 978.615234375 c 0
 164.399414062 970.077148438 167.428710938 960.247070312 170.30078125 948.682617188 c 0
 176.739257812 922.7578125 182.208984375 887.97265625 186.921875 845.47265625 c 0
 197.51171875 749.98046875 203.990234375 615.854492188 203.990234375 467 c 0
 203.990234375 318.145507812 197.51171875 184.01953125 186.921875 88.52734375 c 0
 182.208984375 46.02734375 176.739257812 11.2421875 170.30078125 -14.6826171875 c 0
 167.428710938 -26.2470703125 164.399414062 -36.0771484375 160.684570312 -44.615234375 c 0
 157.72265625 -51.421875 154.510742188 -57.7294921875 148.415039062 -63.8251953125 c 0
 143.729492188 -68.5107421875 135.80078125 -73.9951171875 124.995117188 -73.9951171875 c 0
EndSplineSet
EndChar
StartChar: asterisk
Encoding: 42 42 9
Width: 380
Flags: HW
LayerCount: 2
Fore
SplineSet
353.995117188 592.995117188 m 0
 360.39453125 592.995117188 366.794921875 590.555664062 371.672851562 585.677734375 c 0
 376.55078125 580.799804688 378.990234375 574.399414062 378.990234375 568 c 0
 378.990234375 561.686523438 376.616210938 555.372070312 371.868164062 550.51953125 c 2
 144.673828125 318.321289062 l 2
 139.795898438 313.443359375 133.39453125 311.004882812 126.995117188 311.004882812 c 0
 120.595703125 311.004882812 114.1953125 313.444335938 109.317382812 318.322265625 c 0
 104.439453125 323.200195312 102 329.600585938 102 336 c 0
 102 342.313476562 104.374023438 348.627929688 109.122070312 353.48046875 c 2
 336.31640625 585.678710938 l 2
 341.194335938 590.556640625 347.595703125 592.995117188 353.995117188 592.995117188 c 0
100 565 m 0
 100 571.399414062 102.439453125 577.799804688 107.317382812 582.677734375 c 0
 112.1953125 587.555664062 118.595703125 589.995117188 124.995117188 589.995117188 c 0
 131.30859375 589.995117188 137.622070312 587.62109375 142.474609375 582.874023438 c 2
 373.673828125 356.678710938 l 2
 378.551757812 351.80078125 380.990234375 345.399414062 380.990234375 339 c 0
 380.990234375 332.600585938 378.55078125 326.200195312 373.672851562 321.322265625 c 0
 368.794921875 316.444335938 362.39453125 314.004882812 355.995117188 314.004882812 c 0
 349.681640625 314.004882812 343.368164062 316.37890625 338.515625 321.125976562 c 2
 107.31640625 547.321289062 l 2
 102.438476562 552.19921875 100 558.600585938 100 565 c 0
213.999023438 614 m 2
 213.999023438 620.399414062 216.439453125 626.799804688 221.317382812 631.677734375 c 0
 226.1953125 636.555664062 232.595703125 638.995117188 238.995117188 638.995117188 c 0
 245.39453125 638.995117188 251.794921875 636.555664062 256.672851562 631.677734375 c 0
 261.4921875 626.858398438 263.930664062 620.5546875 263.989257812 614.233398438 c 2
 266.991210938 290 l 2
 266.991210938 283.600585938 264.55078125 277.200195312 259.672851562 272.322265625 c 0
 254.794921875 267.444335938 248.39453125 265.004882812 241.995117188 265.004882812 c 0
 235.595703125 265.004882812 229.1953125 267.444335938 224.317382812 272.322265625 c 0
 219.498046875 277.141601562 217.059570312 283.4453125 217.000976562 289.766601562 c 2
 213.999023438 614 l 2
EndSplineSet
EndChar
StartChar: plus
Encoding: 43 43 10
Width: 514
Flags: HW
LayerCount: 2
Fore
SplineSet
195.644660941 554 m 2
 195.644660941 573.513141957 211.486858043 589.355339059 231 589.355339059 c 0
 250.513141957 589.355339059 266.355339059 573.513141957 266.355339059 554 c 2
 266.355339059 273 l 2
 266.355339059 253.486858043 250.513141957 237.644660941 231 237.644660941 c 0
 211.486858043 237.644660941 195.644660941 253.486858043 195.644660941 273 c 2
 195.644660941 554 l 2
100 375.644660941 m 2
 80.4868580431 375.644660941 64.6446609407 391.486858043 64.6446609407 411 c 0
 64.6446609407 430.513141957 80.4868580431 446.355339059 100 446.355339059 c 2
 379 446.355339059 l 2
 398.513141957 446.355339059 414.355339059 430.513141957 414.355339059 411 c 0
 414.355339059 391.486858043 398.513141957 375.644660941 379 375.644660941 c 2
 100 375.644660941 l 2
EndSplineSet
EndChar
StartChar: comma
Encoding: 44 44 11
Width: 215
Flags: W
HStem: -106 177<82 120>
VStem: 88 62<52 69.5781> 100 71<-47.0868 46.6436>
LayerCount: 2
Fore
SplineSet
88 39 m 0xc0
 88 57 102 71 120 71 c 0
 133 71 145 63 150 52 c 2xc0
 162 26 l 1
 162 26 171 6 171 -7 c 0
 171 -26 151 -48 141 -58 c 2
 106 -93 l 2
 102 -97 99 -99 99 -99 c 0
 94 -103 89 -106 82 -106 c 0
 67 -106 55 -94 55 -79 c 0
 55 -71 58 -64 64 -59 c 2
 86 -40 l 1
 94 -30 100 -18 100 -7 c 0xa0
 100 6 91 26 91 26 c 2
 89 30 88 34 88 39 c 0xc0
EndSplineSet
EndChar
StartChar: hyphen
Encoding: 45 45 12
Width: 497
Flags: HW
LayerCount: 2
Fore
SplineSet
124.995117188 386.004882812 m 2
 118.595703125 386.004882812 112.1953125 388.444335938 107.317382812 393.322265625 c 0
 102.439453125 398.200195312 100 404.600585938 100 411 c 0
 100 417.399414062 102.439453125 423.799804688 107.317382812 428.677734375 c 0
 112.1953125 433.555664062 118.595703125 435.995117188 124.995117188 435.995117188 c 2
 472.995117188 435.995117188 l 2
 479.39453125 435.995117188 485.794921875 433.555664062 490.672851562 428.677734375 c 0
 495.55078125 423.799804688 497.990234375 417.399414062 497.990234375 411 c 0
 497.990234375 404.600585938 495.55078125 398.200195312 490.672851562 393.322265625 c 0
 485.794921875 388.444335938 479.39453125 386.004882812 472.995117188 386.004882812 c 2
 124.995117188 386.004882812 l 2
EndSplineSet
EndChar
StartChar: period
Encoding: 46 46 13
Width: 149
Flags: HW
LayerCount: 2
Fore
SplineSet
100 29 m 0
 100 35.3994140625 102.439453125 41.7998046875 107.317382812 46.677734375 c 0
 112.1953125 51.5556640625 118.595703125 53.9951171875 124.995117188 53.9951171875 c 0
 131.39453125 53.9951171875 137.794921875 51.5556640625 142.672851562 46.677734375 c 0
 147.55078125 41.7998046875 149.990234375 35.3994140625 149.990234375 29 c 0
 149.990234375 22.6005859375 147.55078125 16.2001953125 142.672851562 11.322265625 c 0
 137.794921875 6.4443359375 131.39453125 4.0048828125 124.995117188 4.0048828125 c 0
 118.595703125 4.0048828125 112.1953125 6.4443359375 107.317382812 11.322265625 c 0
 102.439453125 16.2001953125 100 22.6005859375 100 29 c 0
EndSplineSet
EndChar
StartChar: slash
Encoding: 47 47 14
Width: 380
Flags: HW
LayerCount: 2
Fore
SplineSet
124.995117188 82.0048828125 m 0
 118.595703125 82.0048828125 112.1953125 84.4443359375 107.317382812 89.322265625 c 0
 102.439453125 94.2001953125 100 100.600585938 100 107 c 0
 100 110.260742188 100.633789062 113.522460938 101.900390625 116.58203125 c 2
 332.900390625 674.58203125 l 2
 336.4453125 683.146484375 345.782226562 689.995117188 355.995117188 689.995117188 c 0
 362.39453125 689.995117188 368.794921875 687.555664062 373.672851562 682.677734375 c 0
 378.55078125 677.799804688 380.990234375 671.399414062 380.990234375 665 c 0
 380.990234375 661.739257812 380.356445312 658.477539062 379.08984375 655.41796875 c 2
 148.08984375 97.41796875 l 2
 144.544921875 88.853515625 135.208007812 82.0048828125 124.995117188 82.0048828125 c 0
EndSplineSet
EndChar
StartChar: zero
Encoding: 48 48 15
Width: 293
Flags: HW
LayerCount: 2
Fore
SplineSet
100 205 m 0
 100 255.54296875 106.258789062 302.044921875 117.295898438 339.637695312 c 0
 126.092773438 369.594726562 137.587890625 394.60546875 154.901367188 411.918945312 c 0
 165.548828125 422.56640625 179.841796875 430.995117188 196.995117188 430.995117188 c 0
 214.1484375 430.995117188 228.44140625 422.56640625 239.088867188 411.918945312 c 0
 256.40234375 394.60546875 267.897460938 369.594726562 276.694335938 339.637695312 c 0
 287.731445312 302.044921875 293.990234375 255.54296875 293.990234375 205 c 0
 293.990234375 154.45703125 287.731445312 107.955078125 276.694335938 70.3623046875 c 0
 267.897460938 40.4052734375 256.40234375 15.39453125 239.088867188 -1.9189453125 c 0
 228.44140625 -12.56640625 214.1484375 -20.9951171875 196.995117188 -20.9951171875 c 0
 179.841796875 -20.9951171875 165.548828125 -12.56640625 154.901367188 -1.9189453125 c 0
 137.587890625 15.39453125 126.092773438 40.4052734375 117.295898438 70.3623046875 c 0
 106.258789062 107.955078125 100 154.45703125 100 205 c 0
149.990234375 205 m 0
 149.990234375 158.684570312 155.915039062 116.322265625 165.255859375 84.5078125 c 0
 172.763671875 58.939453125 182.817382812 40.8759765625 190.256835938 33.4365234375 c 0
 194.41015625 29.283203125 196.37890625 28.9873046875 196.870117188 28.9873046875 c 0
 196.951171875 28.9873046875 196.9921875 28.9951171875 196.995117188 28.9951171875 c 0
 197.014648438 28.9951171875 199.291992188 28.9951171875 203.733398438 33.4365234375 c 0
 211.172851562 40.8759765625 221.2265625 58.939453125 228.734375 84.5078125 c 0
 238.075195312 116.322265625 244 158.684570312 244 205 c 0
 244 251.315429688 238.075195312 293.677734375 228.734375 325.4921875 c 0
 221.2265625 351.060546875 211.172851562 369.124023438 203.733398438 376.563476562 c 0
 199.580078125 380.716796875 197.611328125 381.012695312 197.120117188 381.012695312 c 0
 197.0390625 381.012695312 196.998046875 381.004882812 196.995117188 381.004882812 c 0
 196.975585938 381.004882812 194.698242188 381.004882812 190.256835938 376.563476562 c 0
 182.817382812 369.124023438 172.763671875 351.060546875 165.255859375 325.4921875 c 0
 155.915039062 293.677734375 149.990234375 251.315429688 149.990234375 205 c 0
EndSplineSet
EndChar
StartChar: one
Encoding: 49 49 16
Width: 335
Flags: HW
HStem: -35 70<57.3432 282.518> 426 20G<149.583 190.571>
VStem: 135 71<-20 341>
LayerCount: 2
Fore
SplineSet
90 -35 m 2
 70 -35 55 -20 55 0 c 0
 55 20 70 35 90 35 c 2
 135 35 l 1
 135 341 l 1
 107 314 l 2
 102 310 97 306 90 306 c 0
 76 306 64 318 64 332 c 0
 64 339 67 345 72 350 c 2
 170 446 l 1
 206 411 l 1
 206 35 l 1
 249 35 l 2
 269 35 285 20 285 0 c 0
 285 -20 269 -35 249 -35 c 2
 170 -35 l 1
 90 -35 l 2
EndSplineSet
EndChar
StartChar: two
Encoding: 50 50 17
Width: 405
Flags: HW
LayerCount: 2
Fore
SplineSet
282.110351562 436.088867188 m 0
 312.787109375 436.088867188 339.352539062 423.756835938 358.940429688 404.169921875 c 0
 373.56640625 389.543945312 384.213867188 371.44140625 391.466796875 351.614257812 c 0
 400.142578125 327.4140625 405.45703125 303.458007812 405.45703125 279.53125 c 0
 405.45703125 245.127929688 394.916015625 214.583984375 373.405273438 184.556640625 c 0
 356.995117188 161.161132812 340.248046875 141.5859375 323.16796875 124.505859375 c 0
 282.171875 83.509765625 240.733398438 57.78515625 196.294921875 24.9951171875 c 1
 379.995117188 24.9951171875 l 2
 386.39453125 24.9951171875 392.794921875 22.5556640625 397.672851562 17.677734375 c 0
 402.55078125 12.7998046875 404.990234375 6.3994140625 404.990234375 0 c 0
 404.990234375 -6.3994140625 402.55078125 -12.7998046875 397.672851562 -17.677734375 c 0
 392.794921875 -22.5556640625 386.39453125 -24.9951171875 379.995117188 -24.9951171875 c 2
 124.995117188 -24.9951171875 l 2
 118.595703125 -24.9951171875 112.1953125 -22.5556640625 107.317382812 -17.677734375 c 0
 102.439453125 -12.7998046875 100 -6.3994140625 100 0 c 0
 100 6.994140625 103.155273438 14.1025390625 108.533203125 18.81640625 c 0
 141.126953125 47.3818359375 171.265625 68.8359375 198.916992188 88.5419921875 c 0
 231.497070312 111.760742188 260.418945312 132.467773438 287.8125 159.861328125 c 0
 303.037109375 175.0859375 317.568359375 192.51171875 332.665039062 213.555664062 c 0
 349.139648438 236.520507812 355.467773438 256.208007812 355.467773438 279.56640625 c 0
 355.467773438 295.99609375 351.870117188 313.891601562 344.522460938 334.385742188 c 0
 339.325195312 348.59375 332.0078125 360.391601562 323.584960938 368.814453125 c 0
 312.50390625 379.89453125 299.387695312 386.106445312 282.416992188 386.106445312 c 0
 244.373046875 386.106445312 224.536132812 371.198242188 193.998046875 348.728515625 c 0
 177.986328125 336.947265625 159.63671875 323.364257812 136.182617188 311.637695312 c 0
 132.672851562 309.8828125 128.833984375 309.004882812 124.995117188 309.004882812 c 0
 118.595703125 309.004882812 112.1953125 311.444335938 107.317382812 316.322265625 c 0
 102.439453125 321.200195312 100 327.600585938 100 334 c 0
 100 343.512695312 106.030273438 352.473632812 113.807617188 356.362304688 c 0
 132.780273438 365.848632812 148.356445312 377.229492188 164.401367188 389.03515625 c 0
 194.166992188 410.9375 227.999023438 436.088867188 282.110351562 436.088867188 c 0
EndSplineSet
EndChar
StartChar: three
Encoding: 51 51 18
Width: 478
Flags: HW
LayerCount: 2
Fore
SplineSet
478.2421875 -78.6376953125 m 0
 478.2421875 -98.3486328125 474.451171875 -118.684570312 466.202148438 -139.305664062 c 0
 460.469726562 -153.638671875 452.33984375 -165.892578125 442.369140625 -175.864257812 c 0
 408.008789062 -210.223632812 358.299804688 -215.015625 313.752929688 -215.015625 c 0
 260.0234375 -215.015625 221.793945312 -199.322265625 184.671875 -184.079101562 c 0
 163.879882812 -175.541992188 143.047851562 -167.017578125 118.224609375 -160.06640625 c 0
 108.236328125 -157.26953125 100 -147.326171875 100 -136 c 0
 100 -129.600585938 102.439453125 -123.200195312 107.317382812 -118.322265625 c 0
 112.1953125 -113.444335938 118.595703125 -111.004882812 124.995117188 -111.004882812 c 0
 127.275390625 -111.004882812 129.5546875 -111.314453125 131.765625 -111.93359375 c 0
 159.829101562 -119.791015625 182.93359375 -129.306640625 203.703125 -137.834960938 c 0
 241.184570312 -153.224609375 269.921875 -165.02734375 313.5234375 -165.02734375 c 0
 355.268554688 -165.02734375 389.590820312 -157.931640625 407.013671875 -140.508789062 c 0
 412.095703125 -135.42578125 416.405273438 -129.150390625 419.788085938 -120.694335938 c 0
 425.782226562 -105.70703125 428.486328125 -92.013671875 428.486328125 -78.8125 c 0
 428.486328125 -67.236328125 426.407226562 -56.0380859375 422.64453125 -44.6787109375 c 0
 416.146484375 -25.0615234375 404.002929688 -4.6982421875 387.305664062 16.5908203125 c 0
 379.986328125 25.798828125 372.790039062 33.8056640625 365.45703125 41.138671875 c 0
 335.19921875 71.396484375 303.611328125 88.759765625 265.58203125 109.462890625 c 0
 240.723632812 122.995117188 213.383789062 137.852539062 183.741210938 158.45703125 c 0
 177.416992188 162.853515625 173 170.92578125 173 179 c 0
 173 185.118164062 175.229492188 191.236328125 179.6875 196.025390625 c 2
 356.565429688 386.004882812 l 1
 125.995117188 386.004882812 l 2
 119.595703125 386.004882812 113.1953125 388.444335938 108.317382812 393.322265625 c 0
 103.439453125 398.200195312 101 404.600585938 101 411 c 0
 101 417.399414062 103.439453125 423.799804688 108.317382812 428.677734375 c 0
 113.1953125 433.555664062 119.595703125 435.995117188 125.995117188 435.995117188 c 2
 413.995117188 435.995117188 l 2
 420.39453125 435.995117188 426.794921875 433.555664062 431.672851562 428.677734375 c 0
 436.55078125 423.799804688 438.990234375 417.399414062 438.990234375 411 c 0
 438.990234375 404.881835938 436.760742188 398.763671875 432.302734375 393.974609375 c 2
 236.4765625 183.643554688 l 1
 295.774414062 146.849609375 348.2890625 129.017578125 400.8125 76.494140625 c 0
 428.637695312 48.66796875 457.28125 9.7822265625 470.094726562 -28.9013671875 c 0
 475.380859375 -44.8603515625 478.2421875 -61.513671875 478.2421875 -78.6376953125 c 0
EndSplineSet
EndChar
StartChar: four
Encoding: 52 52 19
Width: 571
Flags: HW
LayerCount: 2
Fore
SplineSet
302.632666366 456.824035523 m 0
 319.905667993 456.824035523 333.929155187 442.80054833 333.929155187 425.527546702 c 0
 333.929155187 420.285336824 332.637492234 415.342430347 330.355339059 411 c 2
 132.936247178 35.3553390593 l 1
 399 35.3553390593 l 2
 418.513141957 35.3553390593 434.355339059 19.5131419569 434.355339059 -7.1054273576e-15 c 0
 434.355339059 -19.5131419569 418.513141957 -35.3553390593 399 -35.3553390593 c 2
 79 -35.3553390593 l 1
 43.6446609407 7.1054273576e-15 l 1
 274.948136721 440.119113638 l 2
 280.147500417 450.020904848 290.601874616 456.824035523 302.632666366 456.824035523 c 0
330.355339059 -205 m 2
 330.355339059 -224.513141957 314.513141957 -240.355339059 295 -240.355339059 c 0
 275.486858043 -240.355339059 259.644660941 -224.513141957 259.644660941 -205 c 2
 259.644660941 411 l 2
 259.644660941 430.513141957 275.486858043 446.355339059 295 446.355339059 c 0
 314.513141957 446.355339059 330.355339059 430.513141957 330.355339059 411 c 2
 330.355339059 -205 l 2
378.355339059 -199 m 1
 343 -234.355339059 l 1
 307.644660941 -199 l 1
 343 -163.644660941 l 1
 378.355339059 -199 l 1
EndSplineSet
EndChar
StartChar: five
Encoding: 53 53 20
Width: 546
Flags: HW
HStem: -246 71<151.283 326.123> 171 71<171.697 353.337> 376 70<167 493.657>
VStem: 102 69<224 376> 408 70<-115.158 76.411>
LayerCount: 2
Fore
SplineSet
171 224 m 1
 205 230 241 242 277 242 c 0
 296 242 314 238 335 229 c 0
 351 222 364 214 375 203 c 2
 410 167 l 2
 438 139 449 101 463 56 c 0
 472 25 478 -2 478 -28 c 0
 478 -53 473 -78 460 -106 c 0
 453 -123 444 -135 433 -146 c 2
 398 -181 l 2
 377 -202 350 -214 317 -228 c 0
 289 -240 266 -246 240 -246 c 0
 225 -246 209 -243 191 -240 c 0
 165 -235 149 -223 132 -209 c 0
 123 -202 113 -193 101 -186 c 2
 70 -168 l 2
 61 -163 55 -153 55 -142 c 0
 55 -125 68 -111 85 -111 c 0
 91 -111 96 -113 101 -116 c 0
 113 -123 123 -131 132 -138 c 0
 149 -152 165 -165 191 -170 c 0
 209 -173 225 -175 240 -175 c 0
 266 -175 289 -170 317 -158 c 0
 340 -148 361 -139 378 -127 c 0
 382 -121 387 -114 390 -106 c 0
 403 -78 408 -53 408 -28 c 0
 408 -2 402 26 392 57 c 0
 381 92 372 123 355 148 c 0
 349 152 343 156 335 159 c 0
 314 168 296 171 277 171 c 0
 255 171 233 166 210 161 c 0
 188 156 164 151 137 150 c 1
 102 185 l 1
 96 411 l 1
 131 446 l 1
 461 446 l 2
 481 446 496 431 496 411 c 0
 496 391 481 376 461 376 c 2
 167 376 l 1
 171 224 l 1
EndSplineSet
EndChar
StartChar: six
Encoding: 54 54 21
Width: 325
Flags: HW
LayerCount: 2
Fore
SplineSet
173.728515625 330 m 0
 173.728515625 336.399414062 176.16796875 342.799804688 181.045898438 347.677734375 c 0
 185.924804688 352.555664062 192.32421875 354.995117188 198.723632812 354.995117188 c 0
 200.890625 354.995117188 203.057617188 354.715820312 205.166015625 354.15625 c 0
 222.306640625 349.608398438 244.5 342.984375 263.272460938 324.2109375 c 0
 287.80078125 299.68359375 300.71875 260.412109375 300.71875 197 c 0
 300.71875 145.126953125 294.07421875 97.3154296875 282.52734375 58.6767578125 c 0
 273.322265625 27.8740234375 261.33203125 2.2275390625 243.65625 -15.447265625 c 0
 232.752929688 -26.3515625 218.211914062 -34.9951171875 200.723632812 -34.9951171875 c 0
 184.055664062 -34.9951171875 170.02734375 -26.9365234375 159.723632812 -16.6318359375 c 0
 142.010742188 1.080078125 131.047851562 26.7890625 122.185546875 57.45703125 c 0
 111.049804688 95.9970703125 103.93359375 143.76171875 100.775390625 195.46484375 c 0
 100.252929688 204.026367188 100 212.5234375 100 220.956054688 c 0
 100 350.041015625 159.161132812 464.139648438 212.517578125 568.734375 c 0
 236.864257812 616.459960938 260.275390625 662.473632812 277.39453125 706.995117188 c 0
 280.803710938 715.861328125 290.26953125 722.995117188 300.723632812 722.995117188 c 0
 307.123046875 722.995117188 313.5234375 720.555664062 318.401367188 715.677734375 c 0
 323.279296875 710.799804688 325.71875 704.399414062 325.71875 698 c 0
 325.71875 694.946289062 325.1640625 691.892578125 324.052734375 689.004882812 c 0
 305.625976562 641.081054688 281.41015625 593.73046875 257.0625 546.000976562 c 0
 203.211914062 440.438476562 150.006835938 334.260742188 150.006835938 220.448242188 c 0
 150.006835938 213.17578125 150.223632812 205.872070312 150.671875 198.53515625 c 0
 153.66015625 149.62890625 160.545898438 104.828125 170.206054688 71.396484375 c 0
 177.98046875 44.4873046875 188.001953125 25.7998046875 195.078125 18.7236328125 c 0
 198.806640625 14.9951171875 200.64453125 14.9951171875 200.731445312 14.9951171875 c 0
 200.962890625 14.9951171875 203.418945312 15.025390625 208.30078125 19.908203125 c 0
 216.241210938 27.84765625 226.749023438 46.6591796875 234.635742188 73.052734375 c 0
 244.455078125 105.909179688 250.728515625 149.495117188 250.728515625 197 c 0
 250.728515625 254.610351562 238.690429688 278.083007812 227.91796875 288.856445312 c 0
 219.37890625 297.39453125 208.068359375 301.655273438 192.282226562 305.84375 c 0
 182.123046875 308.5390625 173.728515625 318.553710938 173.728515625 330 c 0
EndSplineSet
EndChar
StartChar: seven
Encoding: 55 55 22
Width: 361
Flags: HW
HStem: 376 70<58.4822 230>
VStem: 55 66<-239.962 -194.27>
LayerCount: 2
Fore
SplineSet
92 376 m 2
 72 376 56 391 56 411 c 0
 56 431 72 446 92 446 c 2
 276 446 l 1
 311 411 l 1
 121 -218 l 2
 117 -232 104 -242 89 -242 c 0
 70 -242 55 -227 55 -208 c 0
 55 -205 55 -201 56 -198 c 2
 230 376 l 1
 92 376 l 2
EndSplineSet
EndChar
StartChar: eight
Encoding: 56 56 23
Width: 360
Flags: HW
LayerCount: 2
Fore
SplineSet
26.64453125 582 m 0
 26.64453125 669.712890625 44.1162109375 743.986328125 68.0419921875 767.912109375 c 2
 103.397460938 803.267578125 l 2
 108.659179688 808.528320312 114.231445312 811.35546875 120 811.35546875 c 0
 125.768554688 811.35546875 131.340820312 808.528320312 136.602539062 803.267578125 c 2
 171.958007812 767.912109375 l 2
 195.883789062 743.986328125 213.35546875 669.712890625 213.35546875 582 c 0
 213.35546875 494.287109375 195.883789062 420.013671875 171.958007812 396.087890625 c 2
 136.602539062 360.732421875 l 2
 131.340820312 355.471679688 125.768554688 352.64453125 120 352.64453125 c 0
 114.231445312 352.64453125 108.659179688 355.471679688 103.397460938 360.732421875 c 2
 68.0419921875 396.087890625 l 2
 44.1162109375 420.013671875 26.64453125 494.287109375 26.64453125 582 c 0
120 735.722438031 m 1
 106.233898952 700.22456199 97.3553390595 644.527111723 97.3553390593 582 c 0
 97.3553390593 519.472888277 106.233898952 463.77543801 120 428.277561969 c 1
 133.766101048 463.77543801 142.644660941 519.472888277 142.644660941 582 c 0
 142.644660941 644.527111723 133.766101048 700.22456199 120 735.722438031 c 1
26.6446609407 194 m 0
 26.6446609407 281.712912691 44.1162681875 355.986127499 68.0423327099 379.912192021 c 2
 103.397671769 415.267531081 l 2
 108.658745439 420.52860475 114.231899122 423.355339059 120 423.355339059 c 0
 125.768100878 423.355339059 131.341254561 420.52860475 136.602328231 415.267531081 c 2
 171.95766729 379.912192021 l 2
 195.883731812 355.986127499 213.355339059 281.712912691 213.355339059 194 c 0
 213.355339059 106.287087309 195.883731812 32.0138725012 171.95766729 8.08780797878 c 2
 136.602328231 -27.2675310806 l 2
 131.341254561 -32.5286047499 125.768100878 -35.3553390593 120 -35.3553390593 c 0
 114.231899122 -35.3553390593 108.658745439 -32.5286047499 103.397671769 -27.2675310806 c 2
 68.0423327099 8.08780797878 l 2
 44.1162681875 32.0138725012 26.6446609407 106.287087309 26.6446609407 194 c 0
142.644660941 194 m 0
 142.644660941 256.527111723 133.766101048 312.22456199 120 347.722438031 c 1
 106.233898952 312.22456199 97.3553390595 256.527111723 97.3553390593 194 c 0
 97.3553390593 131.472888277 106.233898952 75.7754380097 120 40.2775619681 c 1
 133.766101048 75.7754380096 142.644660941 131.472888277 142.644660941 194 c 0
EndSplineSet
EndChar
StartChar: nine
Encoding: 57 57 24
Width: 307
Flags: HW
LayerCount: 2
Fore
SplineSet
100 198.151367188 m 0
 100 250.024414062 106.64453125 297.8359375 118.19140625 336.474609375 c 0
 127.396484375 367.27734375 139.38671875 392.923828125 157.0625 410.598632812 c 0
 167.966796875 421.502929688 182.506835938 430.146484375 199.995117188 430.146484375 c 0
 216.987304688 430.146484375 231.018554688 421.737304688 241.40234375 411.353515625 c 0
 259.366210938 393.388671875 271.16015625 367.169921875 280.9609375 335.826171875 c 0
 293.260742188 296.487304688 301.719726562 247.920898438 305.908203125 196.182617188 c 0
 306.818359375 184.935546875 307.250976562 173.984375 307.250976562 163.307617188 c 0
 307.250976562 56.7470703125 264.225585938 -22.51953125 224.423828125 -96.2783203125 c 0
 204.21875 -133.721679688 184.677734375 -170.09375 170.444335938 -208.676757812 c 0
 167.11328125 -217.70703125 157.578125 -224.995117188 146.995117188 -224.995117188 c 0
 140.595703125 -224.995117188 134.1953125 -222.555664062 129.317382812 -217.677734375 c 0
 124.439453125 -212.799804688 122 -206.399414062 122 -200 c 0
 122 -197.05859375 122.515625 -194.1171875 123.545898438 -191.323242188 c 0
 139.369140625 -148.431640625 160.22265625 -109.9453125 180.413085938 -72.5302734375 c 0
 208.26171875 -20.9208984375 234.55859375 28.03515625 247.98828125 84.1875 c 1
 243.325195312 85.0556640625 234.284179688 85.6806640625 223.4921875 86.064453125 c 0
 208.795898438 86.5869140625 190.698242188 87.01953125 172.020507812 91.85546875 c 0
 157.10546875 95.7177734375 141.358398438 102.681640625 128.2421875 115.797851562 c 0
 109.684570312 134.35546875 100 161.953125 100 198.151367188 c 0
149.990234375 198.151367188 m 0
 149.990234375 170.352539062 156.883789062 157.8671875 163.59765625 151.153320312 c 0
 169.799804688 144.951171875 179.06640625 140.932617188 191.825195312 138.69921875 c 0
 211.916015625 135.182617188 235.11328125 137.53125 256.025390625 133.602539062 c 1
 256.84765625 143.106445312 257.280273438 152.853515625 257.280273438 162.879882812 c 0
 257.280273438 172.366210938 256.892578125 182.1015625 256.08203125 192.120117188 c 0
 252.135742188 240.87109375 244.012695312 286.436523438 233.252929688 320.84765625 c 0
 224.606445312 348.501953125 213.80859375 368.236328125 206.046875 375.998046875 c 0
 202.16796875 379.876953125 200.506835938 380.165039062 200.098632812 380.165039062 c 0
 200.028320312 380.165039062 199.995117188 380.15625 199.995117188 380.15625 c 2
 199.755859375 380.15625 197.30078125 380.125976562 192.41796875 375.243164062 c 0
 184.478515625 367.303710938 173.970703125 348.4921875 166.083007812 322.098632812 c 0
 156.263671875 289.2421875 149.990234375 245.65625 149.990234375 198.151367188 c 0
EndSplineSet
EndChar
StartChar: colon
Encoding: 58 58 25
Width: 176
Flags: HW
VStem: 55 71
LayerCount: 2
Fore
SplineSet
126 439 m 1
 90 404 l 1
 55 439 l 1
 90 474 l 1
 126 439 l 1
126 29 m 1
 90 -6 l 1
 55 29 l 1
 90 64 l 1
 126 29 l 1
EndSplineSet
EndChar
StartChar: semicolon
Encoding: 59 59 26
Width: 215
Flags: W
VStem: 88 62<52 69.5781> 100 71<-47.0868 46.6436>
LayerCount: 2
Fore
SplineSet
88 39 m 0x80
 88 57 102 71 120 71 c 0
 133 71 145 63 150 52 c 2x80
 162 26 l 1
 162 26 171 6 171 -7 c 0
 171 -26 151 -48 141 -58 c 2
 106 -93 l 2
 102 -97 99 -99 99 -99 c 0
 94 -103 89 -106 82 -106 c 0
 67 -106 55 -94 55 -79 c 0
 55 -71 58 -64 64 -59 c 2
 86 -40 l 1
 94 -30 100 -18 100 -7 c 0x40
 100 6 91 26 91 26 c 2
 89 30 88 34 88 39 c 0x80
136 388 m 1
 101 353 l 1
 65 388 l 1
 101 423 l 1
 136 388 l 1
EndSplineSet
EndChar
StartChar: less
Encoding: 60 60 54
Width: 383
Flags: HW
LayerCount: 2
Fore
SplineSet
358.995117188 659.995117188 m 0
 365.39453125 659.995117188 371.794921875 657.555664062 376.672851562 652.677734375 c 0
 381.55078125 647.799804688 383.990234375 641.399414062 383.990234375 635 c 0
 383.990234375 628.407226562 381.31640625 621.758789062 376.276367188 616.93359375 c 2
 160.223632812 410.114257812 l 1
 365.176757812 193.159179688 l 2
 369.71875 188.350585938 371.990234375 182.17578125 371.990234375 176 c 0
 371.990234375 169.600585938 369.55078125 163.200195312 364.672851562 158.322265625 c 0
 359.794921875 153.444335938 353.39453125 151.004882812 346.995117188 151.004882812 c 0
 340.342773438 151.004882812 333.62109375 153.750976562 328.813476562 158.840820312 c 2
 106.813476562 393.840820312 l 2
 102.271484375 398.649414062 100 404.82421875 100 411 c 0
 100 417.592773438 102.673828125 424.241210938 107.713867188 429.06640625 c 2
 341.713867188 653.06640625 l 2
 346.540039062 657.685546875 352.767578125 659.995117188 358.995117188 659.995117188 c 0
EndSplineSet
EndChar
StartChar: equal
Encoding: 61 61 55
Width: 469
Flags: HW
LayerCount: 2
Fore
SplineSet
55 326.689453125 m 1
 55 417.310546875 l 1
 419.961914062 417.310546875 l 1
 419.961914062 326.689453125 l 1
 55 326.689453125 l 1
55 426.689453125 m 1
 55 517.310546875 l 1
 419.961914062 517.310546875 l 1
 419.961914062 426.689453125 l 1
 55 426.689453125 l 1
EndSplineSet
EndChar
StartChar: greater
Encoding: 62 62 56
Width: 427
Flags: HW
LayerCount: 2
Fore
SplineSet
377.415039062 422.103515625 m 0
 377.415039062 411.861328125 362.827148438 388.8359375 340.962890625 365.690429688 c 2
 118.961914062 130.689453125 l 1
 64.7607421875 181.891601562 l 1
 277.306640625 406.8828125 l 1
 55 619.689453125 l 1
 111.87890625 679.107421875 l 1
 375.961914062 426.310546875 l 2
 376.9453125 425.369140625 377.415039062 423.942382812 377.415039062 422.103515625 c 0
EndSplineSet
EndChar
StartChar: question
Encoding: 63 63 57
Width: 355
VWidth: 1000
Flags: HW
LayerCount: 2
Fore
SplineSet
223.990234375 375.004882812 m 1
 223.990234375 212 l 2
 223.990234375 205.600585938 221.55078125 199.200195312 216.672851562 194.322265625 c 0
 211.794921875 189.444335938 205.39453125 187.004882812 198.995117188 187.004882812 c 0
 192.595703125 187.004882812 186.1953125 189.444335938 181.317382812 194.322265625 c 0
 176.439453125 199.200195312 174 205.600585938 174 212 c 2
 174 400 l 2
 174 406.399414062 176.439453125 412.799804688 181.317382812 417.677734375 c 0
 186.1953125 422.555664062 192.595703125 424.995117188 198.995117188 424.995117188 c 2
 279.211914062 424.995117188 l 1
 298.64453125 457.34765625 306.03125 484.2734375 306.03125 507.517578125 c 0
 306.03125 512.389648438 305.706054688 517.100585938 305.099609375 521.666015625 c 0
 302.09765625 544.271484375 291.8203125 565.4296875 275.064453125 586.409179688 c 1
 252.431640625 605.1640625 231.6328125 613.012695312 211.173828125 613.012695312 c 0
 208.739257812 613.012695312 206.309570312 612.901367188 203.881835938 612.684570312 c 0
 187.5546875 611.223632812 169.610351562 604.615234375 149.990234375 591.26953125 c 1
 149.990234375 570 l 2
 149.990234375 563.600585938 147.55078125 557.200195312 142.672851562 552.322265625 c 0
 137.794921875 547.444335938 131.39453125 545.004882812 124.995117188 545.004882812 c 0
 118.595703125 545.004882812 112.1953125 547.444335938 107.317382812 552.322265625 c 0
 102.439453125 557.200195312 100 563.600585938 100 570 c 2
 100 604 l 2
 100 611.58203125 103.84375 619.252929688 109.728515625 623.799804688 c 0
 138.421875 645.971679688 168.340820312 659.696289062 199.39453125 662.474609375 c 0
 203.224609375 662.81640625 207.036132812 662.986328125 210.829101562 662.986328125 c 0
 245.850585938 662.986328125 279.178710938 648.555664062 309.168945312 623.064453125 c 0
 310.321289062 622.0859375 311.421875 620.962890625 312.375976562 619.793945312 c 0
 334.00390625 593.310546875 350.036132812 563.053710938 354.65234375 528.29296875 c 0
 355.546875 521.553710938 355.999023438 514.728515625 355.999023438 507.817382812 c 0
 355.999023438 469.905273438 342.41015625 429.390625 313.860351562 386.22265625 c 0
 309.528320312 379.671875 301.302734375 375.004882812 292.995117188 375.004882812 c 2
 223.990234375 375.004882812 l 1
178 152 m 2
 178 158.399414062 180.439453125 164.799804688 185.317382812 169.677734375 c 0
 190.1953125 174.555664062 196.595703125 176.995117188 202.995117188 176.995117188 c 0
 209.39453125 176.995117188 215.794921875 174.555664062 220.672851562 169.677734375 c 0
 225.55078125 164.799804688 227.990234375 158.399414062 227.990234375 152 c 2
 227.990234375 108 l 2
 227.990234375 101.600585938 225.55078125 95.2001953125 220.672851562 90.322265625 c 0
 215.794921875 85.4443359375 209.39453125 83.0048828125 202.995117188 83.0048828125 c 0
 196.595703125 83.0048828125 190.1953125 85.4443359375 185.317382812 90.322265625 c 0
 180.439453125 95.2001953125 178 101.600585938 178 108 c 2
 178 152 l 2
EndSplineSet
EndChar
StartChar: at
Encoding: 64 64 53
Width: 809
Flags: HW
LayerCount: 2
Fore
SplineSet
261.961914062 191.310546875 m 0
 261.961914062 135.307617188 284.7265625 94.2763671875 319.204101562 66.171875 c 1
 351.5078125 53.302734375 387.702148438 47.310546875 423 47.310546875 c 0
 436.151367188 47.310546875 447.1796875 50.7666015625 456.3359375 56.7255859375 c 1
 458.866210938 69.162109375 460 82.150390625 460 94.689453125 c 0
 460 114.709960938 461.704101562 126.33203125 464.834960938 131.75390625 c 2
 499.834960938 192.375976562 l 2
 501.330078125 194.965820312 503.151367188 196.141601562 505.267578125 196.141601562 c 0
 506.655273438 196.141601562 508.169921875 195.63671875 509.801757812 194.693359375 c 2
 561.763671875 164.693359375 l 2
 569.75390625 160.080078125 580.578125 144.989257812 593.236328125 127.341796875 c 0
 603.560546875 112.948242188 615.103515625 96.8544921875 627.323242188 83.3583984375 c 1
 643.633789062 83.8330078125 656.704101562 87.8251953125 667.1640625 94.607421875 c 1
 671.8203125 117.03515625 673 142.946289062 673 169.689453125 c 0
 673 255.530273438 625.2578125 334.858398438 555.538085938 385.00390625 c 1
 520.436523438 400.786132812 482.14453125 409.689453125 442.961914062 409.689453125 c 0
 391.806640625 409.689453125 345.30078125 404.754882812 304.298828125 394.314453125 c 1
 321.700195312 391.706054688 337.150390625 384.291992188 351.850585938 375.805664062 c 2
 395.799804688 350.430664062 l 1
 407.35546875 344.991210938 419.216796875 341.310546875 432 341.310546875 c 2
 448.961914062 341.310546875 l 1
 448.961914062 250.689453125 l 1
 430.75 250.689453125 414.412109375 258.158203125 398.16015625 267.541015625 c 2
 353.497070312 293.328125 l 1
 339.571289062 299.97265625 324.69140625 304.689453125 307.961914062 304.689453125 c 0
 291.807617188 304.689453125 278.8671875 300.703125 268.501953125 293.815429688 c 1
 262.521484375 266.610351562 261.923828125 235.909179688 261.923828125 209.84375 c 0
 261.923828125 203.591796875 261.961914062 197.41015625 261.961914062 191.310546875 c 0
174.962890625 179.221679688 m 0
 174.962890625 218.271484375 176.303710938 267.723632812 195.076171875 300.23828125 c 2
 230.076171875 360.860351562 l 2
 231.666015625 363.614257812 233.381835938 366.247070312 235.231445312 368.7421875 c 1
 205.938476562 353.70703125 181.139648438 334.3046875 161.38671875 310.16796875 c 1
 148.651367188 277.245117188 141.961914062 238.76953125 141.961914062 194.310546875 c 0
 141.961914062 78.5458984375 193.796875 -40.619140625 280.3203125 -105.081054688 c 1
 308.4609375 -117.040039062 339.153320312 -123.689453125 372 -123.689453125 c 2
 372 -123.689453125 542 -126.689453125 651 -126.689453125 c 0
 658.865234375 -126.689453125 666.365234375 -124.950195312 673 -121.8046875 c 1
 673 -93.689453125 l 1
 690.5546875 -93.689453125 l 1
 700.362304688 -76.7021484375 l 2
 702.05859375 -73.763671875 704.94140625 -71.6142578125 706.637695312 -68.67578125 c 1
 692.196289062 -93.689453125 l 1
 759.961914062 -93.689453125 l 1
 759.961914062 -95.654296875 759.418945312 -97.2568359375 758.599609375 -98.67578125 c 2
 750.9609375 -111.90625 l 1
 750.923828125 -119.840820312 748.8359375 -127.119140625 745.2109375 -133.397460938 c 2
 710.2109375 -194.01953125 l 2
 702.009765625 -208.223632812 685.942382812 -217.310546875 667.961914062 -217.310546875 c 0
 558.961914062 -217.310546875 388.961914062 -214.310546875 388.961914062 -214.310546875 c 2
 345.446289062 -214.310546875 305.712890625 -202.640625 270.682617188 -182.416015625 c 2
 218.720703125 -152.416015625 l 2
 117.061523438 -93.72265625 55 37.017578125 55 163.689453125 c 0
 55 223.473632812 67.0966796875 272.439453125 89.7236328125 311.630859375 c 2
 124.723632812 372.252929688 l 2
 176.4140625 461.782226562 283.059570312 500.310546875 426 500.310546875 c 0
 475.358398438 500.310546875 523.302734375 486.184570312 565.237304688 461.97265625 c 2
 617.19921875 431.97265625 l 2
 700.41015625 383.930664062 759.961914062 296.182617188 759.961914062 200.310546875 c 0
 759.961914062 156.963867188 756.862304688 115.799804688 740.880859375 88.1171875 c 2
 705.880859375 27.49609375 l 2
 693.495117188 6.0439453125 673.373046875 -7.310546875 640.961914062 -7.310546875 c 0
 633.884765625 -7.310546875 626.8046875 -4.94921875 619.807617188 -0.9091796875 c 2
 567.845703125 29.0908203125 l 2
 556.400390625 35.69921875 545.17578125 46.7978515625 534.551757812 59.396484375 c 1
 533.165039062 56.3037109375 531.650390625 53.3173828125 530.001953125 50.4619140625 c 2
 495.001953125 -10.16015625 l 2
 483.658203125 -29.8076171875 465.958984375 -43.310546875 439.961914062 -43.310546875 c 0
 394.107421875 -43.310546875 346.743164062 -33.19921875 308.356445312 -11.0361328125 c 2
 256.39453125 18.9638671875 l 2
 208.795898438 46.4443359375 175 92.4541015625 175 160.689453125 c 0
 175 166.79296875 174.962890625 172.965820312 174.962890625 179.221679688 c 0
EndSplineSet
EndChar
StartChar: A
Encoding: 65 65 27
Width: 482
Flags: HW
LayerCount: 2
Fore
SplineSet
107.59375 -39.3553390593 m 2
 88.0806080431 -39.3553390593 72.2384109407 -23.5131419569 72.2384109407 -4 c 0
 72.2384109407 15.5131419569 88.0806080431 31.3553390593 107.59375 31.3553390593 c 2
 111.936907236 31.3553390593 l 1
 136.883190724 67.0275485282 148.805227991 112.451937296 150.238410941 155 c 1
 152.548687564 168.514554201 153.467667225 182.554560972 153.467667225 196.838106874 c 0
 153.467667225 230.75950531 148.253132571 266.303817495 144.238410941 299 c 0
 140.164965317 332.170472617 135.069898081 364.913977837 131.330422351 398.073822165 c 1
 123.702414369 400.165644614 116.262177607 401.644660941 107.59375 401.644660941 c 0
 107.11362488 401.644660941 106.010535609 402.587021523 104.727081683 403.87047545 c 2
 97.8247254301 410.772831702 l 1
 82.2588681362 413.367141251 66.6930108423 415.9614508 51.1271535483 418.555760349 c 0
 34.6192342988 421.307080224 22.0188399679 435.671025681 22.0188399679 452.954727308 c 0
 22.0188399679 472.202371969 37.6454869299 487.829018931 56.8931315911 487.829018931 c 0
 58.8570746254 487.829018931 60.7833185723 487.66632611 62.59375 487.355339059 c 2
 98.59375 481.355339059 l 1
 107.59375 472.355339059 l 1
 114.355967889 472.355339059 120.370767829 471.455280771 126.310349217 470.066379998 c 1
 126.262897702 473.033670059 126.238410941 476.011218268 126.238410941 479 c 0
 126.09859341 482.862250555 126.02940347 486.724673682 126.02940347 490.585773604 c 0
 126.02940347 586.187563453 168.457620007 680.868063469 231.377671702 752.157781853 c 0
 245.884728425 768.594576809 266.927136403 788.952772569 283.11207126 805.137707426 c 0
 292.341718485 814.367354651 302.783627027 823.355339059 308.59375 823.355339059 c 0
 309.224686546 823.355339059 309.743536943 823.111756258 310.168622176 822.686671025 c 2
 345.523961235 787.331331966 l 2
 346.964355936 785.890937265 347.328155255 782.366563075 347.328155255 779.173507762 c 0
 347.328155255 775.914142527 346.949089059 773 346.949089059 773 c 1
 359.419410772 688.470321713 377.567133193 606.925678454 388.949089059 524 c 2
 409.949089059 371 l 1
 415.949089059 230 l 1
 419.67998656 187.515304643 419.764465006 145.738459215 424.949089059 104 c 0
 431.663932809 81.1201171875 437.838737497 58.716796875 442.949089059 35 c 0
 451.584996859 9.90708550419 454.762059728 -3.14181068988 454.762059728 -7.81441466172 c 0
 454.762059728 -8.81440456137 454.616547635 -9.43075338591 454.34788923 -9.69941179075 c 2
 418.992550171 -45.0547508501 l 2
 418.886594367 -45.1607066539 418.761484097 -45.2125818751 418.618591371 -45.2125818751 c 0
 418.311049045 -45.2125818751 417.921134397 -44.9722842338 417.462526019 -44.5136758556 c 2
 382.107186959 -9.15833679624 l 2
 377.060024313 -4.11117415028 363.692777243 27.3774664825 360.238410941 56 c 1
 343.330102503 93.4708286777 344.026917251 135.02884714 333.238410941 176 c 1
 313.175759556 222.933370121 305.355212591 275.080598339 279.238410941 317 c 0
 275.26893973 325.253499408 270.616025076 332.925924381 265.386002908 340.06900507 c 0
 247.162704321 353.833208575 226.427040261 364.709493932 205.023376322 373.595113593 c 1
 208.851918215 343.996869996 212.954502503 314.631854012 216.746895881 284.647487957 c 0
 220.376312421 255.951690011 224.178345344 225.891109384 224.178345344 196.838106874 c 0
 224.178345344 182.554560972 223.259365683 168.514554201 220.949089059 155 c 1
 219.201419222 103.115510415 201.856659691 46.9538791861 164.317346085 9.4145655796 c 2
 128.962007025 -25.9407734797 l 2
 124.171332991 -30.7314475141 119.051765785 -35.2188341833 113.59375 -39.3553390593 c 1
 107.59375 -39.3553390593 l 2
196.740081588 490.585773604 m 4
 196.740081588 486.724673682 196.809271528 482.862250555 196.949089059 479 c 4
 196.949089059 468.274213213 197.26444518 457.693098903 197.82481432 447.211577825 c 5
 229.873694767 434.630338812 260.899125897 417.860279958 284.817552321 393.941853534 c 6
 320.172891381 358.586514474 l 6
 327.8674804 350.891925455 334.826553205 342.457539507 340.847567402 333.18482315 c 5
 339.238410941 371 l 5
 318.238410941 524 l 6
 308.81004121 592.692408035 293.523290611 659.470061577 283.09276596 729.132127878 c 5
 230.745819345 661.132247026 196.740081588 576.184177086 196.740081588 490.585773604 c 4
EndSplineSet
EndChar
StartChar: B
Encoding: 66 66 28
Width: 542
Flags: HW
LayerCount: 2
Fore
SplineSet
324.995117188 739.42578125 m 0
 323.31640625 739.42578125 321.6796875 739.004882812 319.995117188 739.004882812 c 0
 301.030273438 739.004882812 279.459960938 745.6171875 262.140625 748.301757812 c 0
 259.87890625 748.65234375 257.639648438 748.825195312 255.426757812 748.825195312 c 0
 226.682617188 748.825195312 204.2109375 718.443359375 197.875 694.486328125 c 0
 197.14453125 683.850585938 193.3828125 674.1484375 191.350585938 665.345703125 c 2
 176.497070312 605.9296875 l 1
 158.90234375 497.4296875 l 1
 150.044921875 293.709960938 l 1
 161.647460938 177.6796875 l 1
 177.416015625 121.487304688 193.465820312 67.580078125 214.287109375 14.0908203125 c 0
 215.422851562 11.1748046875 215.990234375 8.0869140625 215.990234375 5 c 0
 215.990234375 -1.3994140625 213.55078125 -7.7998046875 208.672851562 -12.677734375 c 0
 203.794921875 -17.5556640625 197.39453125 -19.9951171875 190.995117188 -19.9951171875 c 0
 180.583007812 -19.9951171875 171.135742188 -12.9091796875 167.703125 -4.0908203125 c 0
 145.64453125 52.5751953125 129.01171875 108.834960938 112.9296875 166.224609375 c 0
 112.537109375 167.625976562 112.268554688 169.055664062 112.125 170.495117188 c 2
 100.125 290.495117188 l 2
 100.041992188 291.328125 100 292.1640625 100 293 c 0
 100 293.364257812 100.0078125 293.729492188 100.0234375 294.09375 c 2
 109.0234375 501.09375 l 2
 109.06640625 502.075195312 109.166992188 503.0546875 109.32421875 504.02734375 c 2
 127.32421875 615.02734375 l 2
 127.436523438 615.720703125 127.578125 616.41015625 127.749023438 617.09375 c 0
 133.250976562 639.102539062 138.487304688 661.272460938 144.3125 683.149414062 c 0
 145.813476562 688.783203125 147.768554688 697.265625 148.010742188 698.741210938 c 0
 148.059570312 700.37890625 148.267578125 702.013671875 148.635742188 703.618164062 c 0
 153.926757812 726.690429688 166.109375 749.407226562 184.126953125 767.424804688 c 0
 201.926757812 785.224609375 226.721679688 798.810546875 255.526367188 798.810546875 c 0
 275.178710938 798.810546875 302.534179688 790.276367188 318.633789062 789.056640625 c 0
 321.036132812 789.348632812 323.372070312 789.483398438 325.639648438 789.483398438 c 0
 344.201171875 789.483398438 358.23046875 780.502929688 366.985351562 775.559570312 c 0
 375.114257812 770.967773438 380.813476562 768.254882812 384.469726562 767.59375 c 0
 421.192382812 760.955078125 452.772460938 743.36328125 477.190429688 718.944335938 c 0
 513.62109375 682.514648438 533.990234375 631.473632812 533.990234375 578 c 0
 533.990234375 575.751953125 533.689453125 573.50390625 533.086914062 571.321289062 c 0
 524.670898438 540.814453125 507.119140625 513.7890625 484.737304688 491.407226562 c 0
 449.576171875 456.24609375 401.498046875 431.2421875 352.419921875 424.903320312 c 1
 388.377929688 402.224609375 436.321289062 372.758789062 476.340820312 332.73828125 c 0
 512.516601562 296.5625 542.990234375 250.504882812 542.990234375 194 c 0
 542.990234375 136.438476562 526.37890625 88.8779296875 493.403320312 55.90234375 c 0
 460.073242188 22.572265625 412.971679688 7.0048828125 358.995117188 7.0048828125 c 0
 314.69921875 7.0048828125 285.760742188 32.634765625 254.112304688 44.6279296875 c 0
 247.55078125 47.1142578125 241.94921875 52.7685546875 239.529296875 59.369140625 c 2
 206.529296875 149.369140625 l 2
 205.63671875 151.802734375 205.134765625 154.34765625 205.0234375 156.90625 c 2
 202.0234375 225.90625 l 2
 202.0078125 226.270507812 202 226.635742188 202 227 c 0
 202 233.399414062 204.439453125 239.799804688 209.317382812 244.677734375 c 0
 214.1953125 249.555664062 220.595703125 251.995117188 226.995117188 251.995117188 c 0
 233.39453125 251.995117188 239.794921875 249.555664062 244.672851562 244.677734375 c 0
 249.2734375 240.077148438 251.704101562 234.124023438 251.966796875 228.09375 c 2
 254.796875 162.987304688 l 1
 282.708984375 86.865234375 l 1
 290.215820312 83.486328125 297.33203125 79.8046875 304.208984375 76.2783203125 c 0
 325.630859375 65.2958984375 343.875 56.9951171875 358.995117188 56.9951171875 c 0
 403.625 56.9951171875 436.361328125 69.5712890625 458.047851562 91.2578125 c 0
 479.479492188 112.689453125 493 145.819335938 493 194 c 0
 493 231.265625 472.5859375 265.783203125 440.986328125 297.3828125 c 0
 407.25390625 331.115234375 362.602539062 359.440429688 327.837890625 381.28515625 c 0
 306.59375 394.633789062 289.522460938 404.609375 277.442382812 416.689453125 c 0
 272.713867188 421.41796875 267.538085938 427.83984375 265.680664062 436.515625 c 1
 259.662109375 441.28515625 253.834960938 448.780273438 253.834960938 459.897460938 c 0
 253.834960938 477.03515625 267.241210938 485.6640625 276.3828125 490.106445312 c 0
 280.877929688 492.291992188 284.262695312 493.436523438 284.848632812 493.637695312 c 0
 287.483398438 494.54296875 290.239257812 494.995117188 292.995117188 494.995117188 c 0
 305.359375 494.995117188 315.963867188 485.290039062 317.70703125 473.762695312 c 1
 320.912109375 473.494140625 324.16796875 473.361328125 327.46484375 473.361328125 c 0
 368.91796875 473.361328125 416.853515625 494.234375 449.381835938 526.762695312 c 0
 465.803710938 543.185546875 477.9296875 562.108398438 483.961914062 581.473632812 c 1
 482.458984375 649.454101562 438.321289062 707.051757812 375.520507812 718.40625 c 0
 360.916015625 721.045898438 350.293945312 727.551757812 342.400390625 732.009765625 c 0
 331.741210938 738.029296875 327.245117188 739.42578125 324.995117188 739.42578125 c 0
EndSplineSet
EndChar
StartChar: C
Encoding: 67 67 29
Width: 485
Flags: HW
LayerCount: 2
Fore
SplineSet
467.990234375 686 m 0
 467.990234375 679.600585938 465.55078125 673.200195312 460.672851562 668.322265625 c 0
 455.794921875 663.444335938 449.39453125 661.004882812 442.995117188 661.004882812 c 0
 430.405273438 661.004882812 419.625976562 671.061523438 418.182617188 682.97265625 c 0
 416.0703125 700.40625 409.465820312 717.591796875 402.10546875 724.952148438 c 0
 399.428710938 727.62890625 396.8671875 729.15625 393.931640625 730.017578125 c 0
 375.05859375 735.55078125 361.234375 747.072265625 345.671875 753.2265625 c 0
 341.958007812 754.6953125 339.586914062 755.004882812 338.995117188 755.004882812 c 0
 301.071289062 755.004882812 278.616210938 743.751953125 261.522460938 726.658203125 c 0
 237.2421875 702.377929688 222.7421875 661.309570312 208.068359375 616.208984375 c 0
 196.603515625 580.971679688 185.0546875 543.649414062 163.1484375 512.631835938 c 1
 150.02734375 387.041992188 l 1
 153.939453125 248.141601562 l 1
 161.59375 194.567382812 l 1
 165.333984375 178.041015625 168.58203125 163.669921875 174.959960938 151.950195312 c 0
 180.065429688 142.567382812 184.27734375 131.569335938 189.15625 119.274414062 c 0
 198.380859375 96.02734375 210.620117188 63.9384765625 226.004882812 48.5546875 c 0
 231.223632812 43.3349609375 234.0234375 42.9951171875 234.995117188 42.9951171875 c 2
 248.995117188 42.9951171875 l 2
 252.345703125 42.9951171875 255.696289062 42.326171875 258.829101562 40.9892578125 c 0
 285.647460938 29.5400390625 314.153320312 22.912109375 344.706054688 22.912109375 c 0
 360.643554688 22.912109375 372.897460938 25.427734375 381.333007812 29.3642578125 c 0
 390.934570312 33.8447265625 399.814453125 41.2705078125 412.705078125 52.5791015625 c 0
 414.967773438 54.5654296875 417.342773438 56.6494140625 419.846679688 58.8134765625 c 1
 434.151367188 96.958984375 l 1
 436.013671875 152.838867188 l 2
 436.217773438 158.956054688 438.65234375 165.012695312 443.317382812 169.677734375 c 0
 448.1953125 174.555664062 454.595703125 176.995117188 460.995117188 176.995117188 c 0
 467.39453125 176.995117188 473.794921875 174.555664062 478.672851562 169.677734375 c 0
 483.55078125 164.799804688 485.990234375 158.399414062 485.990234375 152 c 0
 485.990234375 151.720703125 485.985351562 151.440429688 485.9765625 151.161132812 c 2
 483.9765625 91.1611328125 l 2
 483.885742188 88.4560546875 483.360351562 85.763671875 482.397460938 83.1982421875 c 2
 464.397460938 35.1982421875 l 2
 462.9453125 31.32421875 460.33203125 27.603515625 457.09765625 24.875 c 0
 439.739257812 10.2314453125 425.572265625 -5.177734375 402.501953125 -15.943359375 c 0
 386.517578125 -23.4033203125 367.859375 -27.0771484375 344.780273438 -27.0771484375 c 0
 308.69921875 -27.0771484375 274.89453125 -19.5478515625 243.978515625 -6.9951171875 c 1
 234.995117188 -6.9951171875 l 2
 216.200195312 -6.9951171875 201.322265625 2.525390625 190.649414062 13.19921875 c 0
 168.583007812 35.265625 154.422851562 71.2255859375 142.690429688 100.790039062 c 0
 137.873046875 112.9296875 133.58203125 123.361328125 131.030273438 128.049804688 c 0
 119.982421875 148.353515625 116.69921875 166.502929688 112.625 184.428710938 c 0
 112.47265625 185.095703125 112.349609375 185.766601562 112.252929688 186.44140625 c 2
 104.252929688 242.44140625 l 2
 104.118164062 243.38671875 104.037109375 244.337890625 104.009765625 245.291015625 c 2
 100.009765625 387.291015625 l 2
 100.002929688 387.52734375 100 387.763671875 100 388 c 0
 100 388.873046875 100.045898438 389.74609375 100.13671875 390.616210938 c 2
 114.13671875 524.616210938 l 2
 114.60546875 529.108398438 116.287109375 533.497070312 119.181640625 537.25 c 0
 136.373046875 559.538085938 148.249023438 593.971679688 160.536132812 631.734375 c 0
 174.971679688 676.104492188 190.028320312 725.875976562 226.166992188 762.013671875 c 0
 252.649414062 788.49609375 289.823242188 804.995117188 338.995117188 804.995117188 c 0
 359.265625 804.995117188 374.985351562 794.9921875 387.716796875 787.880859375 c 0
 396.377929688 783.043945312 403.85546875 779.21484375 408.05859375 777.982421875 c 0
 419.795898438 774.541015625 429.673828125 768.094726562 437.4609375 760.306640625 c 0
 457.727539062 740.041015625 464.99609375 712.23828125 467.807617188 689.02734375 c 0
 467.9296875 688.022460938 467.990234375 687.010742188 467.990234375 686 c 0
EndSplineSet
EndChar
StartChar: D
Encoding: 68 68 30
Width: 466
Flags: HW
LayerCount: 2
Fore
SplineSet
112.057968723 122.264239008 m 0
 112.057968723 211.144584906 86.9881226443 314.331028258 86.9881226443 402.757756247 c 0
 86.9881226443 404.51151998 86.9981756808 406.259012612 87.0186843782 408 c 2
 87.0186843782 657.934309263 l 1
 81.8568193525 645.290451082 69.432565406 636.370760349 54.9414458228 636.370760349 c 0
 35.8278546563 636.370760349 20.3100421347 651.88857287 20.3100421347 671.002164037 c 0
 20.3100421347 673.399165677 20.5540942511 675.7396157 21.0186843782 678 c 0
 25.4916826297 699.762612751 34.5119214142 718.044176445 48.4051570844 731.937412115 c 2
 83.7604961437 767.292751174 l 2
 102.999184078 786.531439109 131.582031204 797.355339059 170.374023438 797.355339059 c 0
 218.731121929 797.355339059 265.793908767 782.513963125 297.186759478 751.121112414 c 2
 332.542098538 715.765773354 l 2
 345.798043865 702.509828027 356.259984539 686.302696608 362.845573434 667.015625 c 2
 444.981315622 426.4765625 l 1
 432.286003122 285.58984375 l 1
 405.870742745 224.551105613 387.902596871 148.085568652 344.687582082 104.870553864 c 2
 309.332243023 69.5152148043 l 2
 290.397467927 50.5804397086 266.895503468 38.6446609407 236.374023438 38.6446609407 c 0
 216.974162488 38.6446609407 193.796588633 41.0827207146 173.770065598 42.5537664875 c 1
 169.571200182 26.6906611093 163.696556598 11.7586155229 155.729362497 -2 c 1
 120.374023437 -37.3553390593 l 1
 104.573677809 -31.8345624962 81.7377583636 -29.8590195762 71.5605906882 -19.6818519008 c 2
 36.2052516289 15.6734871585 l 2
 32.9302436108 18.9484951766 30.9651177257 23.0732393438 30.9651177257 28.4396051185 c 0
 30.9651177257 28.9484613936 30.9827870566 29.4684816471 31.0186843782 30 c 0
 32.3443597867 44.1727067983 37.1620010073 54.4661861847 44.5551881112 61.8593732886 c 2
 79.9105271705 97.2147123479 l 2
 87.942520321 105.246705498 99.0143662815 109.855555733 111.950979677 112.296508947 c 1
 112.023170033 115.599314093 112.057968723 118.922393421 112.057968723 122.264239008 c 0
236.374023438 109.355339059 m 0
 257.705833984 109.355339129 275.608771603 115.185694432 290.920065909 125.160976357 c 1
 322.583783123 169.83976657 338.670469374 232.662730223 361.575325003 285.58984375 c 1
 374.270637503 426.4765625 l 1
 292.134895316 667.015625 l 2
 288.437999373 677.842644377 283.51956133 687.6990922 277.571048464 696.607745161 c 1
 247.757743872 716.934044327 209.489313541 726.644660941 170.374023438 726.644660941 c 0
 143.367981948 726.644660941 121.309910591 721.398743372 103.907955417 711.719764064 c 0
 102.342821066 708.919369903 100.899042879 706.016437925 99.5752835395 703.014692755 c 1
 105.732494294 708.217489385 113.6897085 711.355339059 122.374023438 711.355339059 c 0
 141.887165394 711.355339059 157.729362497 695.513141957 157.729362497 676 c 2
 157.729362497 408 l 2
 157.708853799 406.259012612 157.698800763 404.51151998 157.698800763 402.757756247 c 0
 157.698800763 314.331028258 182.768646841 211.144584906 182.768646841 122.264239008 c 0
 182.768646841 119.016830566 182.735787113 115.787142739 182.667688351 112.576559191 c 0
 200.329228715 111.158244673 219.800743036 109.355339059 236.374023438 109.355339059 c 0
EndSplineSet
EndChar
StartChar: E
Encoding: 69 69 31
Width: 554
Flags: HW
LayerCount: 2
Fore
SplineSet
83.8395089542 577.978640704 m 0
 83.8395089542 583.63103544 83.0548555336 589.080058342 83.0548555336 594.526230791 c 0
 83.0548555336 636.785620203 101.190504319 679.523969378 127.055793753 714 c 0
 131.633175428 722.537928152 137.481658185 730.281483479 144.31538087 737.115206164 c 2
 179.670719929 772.470545223 l 2
 197.547657374 790.347482669 222.166979741 801.998076955 248.411132812 805.355339059 c 0
 279.174858029 805.355339059 309.671737308 799.828208477 340.411132812 799.355339059 c 0
 361.999169551 799.023721136 381.961173137 777.201874664 402.411132812 775.355339059 c 2
 408.744339771 774.783480125 l 2
 426.750043022 773.161557925 440.824550169 758.067891759 440.824550169 739.712888844 c 0
 440.824550169 720.278811447 425.046543465 704.500804743 405.612466068 704.500804743 c 0
 393.644554316 704.500804743 384.50783917 710.220825431 373.808068184 716.215181201 c 0
 362.984786209 722.278731799 351.937820336 728.467597309 340.411132812 728.644660941 c 0
 309.665262346 729.117629964 279.181356897 734.644660941 248.411132812 734.644660941 c 0
 230.994294323 732.416625582 214.293074287 726.535986503 199.803270237 717.606898515 c 0
 199.098998053 716.421004776 198.419788152 715.218593479 197.766471872 714 c 0
 171.901182438 679.523969378 153.765533652 636.785620203 153.765533652 594.526230791 c 0
 153.765533652 589.078772925 154.550187073 583.632255865 154.550187073 577.978640704 c 0
 154.550187073 559.178117309 151.975802357 539.296530699 151.975802357 520.45004299 c 0
 151.975802357 502.595070948 154.266667223 485.58863884 163.170473753 471.206118477 c 0
 166.16996278 468.923677745 169.284262657 467.355339059 172.411132812 467.355339059 c 0
 173.705870305 467.560476513 174.992401022 467.652317278 176.273733653 467.652317278 c 0
 185.895932246 467.652317278 195.277332716 462.733351509 204.411132812 461.355339059 c 0
 220.917379481 458.865629821 231.767880421 447.355339059 250.411132812 447.355339059 c 2
 278.411132812 447.355339059 l 1
 278.411132812 376.644660941 l 1
 256.311738802 371.089443204 228.765277627 356.968672091 204.730348717 338.080580294 c 0
 203.712488899 336.72926453 202.723925912 335.368815176 201.766471872 334 c 2
 175.487856817 307.721384945 l 1
 158.46064114 284.958152756 151.05399123 258.358089256 151.05399123 228.501144141 c 0
 151.05399123 223.105968427 151.295839099 217.604446403 151.766471872 212 c 0
 151.395448478 202.267332574 150.94432565 192.282308451 150.94432565 182.513713419 c 0
 150.94432565 159.107098743 153.507546464 136.263250173 165.766471872 116 c 0
 170.078697078 101.773070852 176.593094017 88.8215695793 184.818197242 77.2072341032 c 1
 216.273639863 54.4253688101 256.095305343 42.0613667043 294.411132812 41.3553390593 c 1
 303.491249763 38.6425788131 312.420013469 37.3815533078 321.119918285 37.3815533078 c 0
 342.238673369 37.3815533078 362.008852493 44.8122835569 379.321804848 56.9458144229 c 1
 397.055793753 80 l 1
 403.769838961 93.4280904158 410.483884169 106.856180832 417.197929377 120.284271247 c 0
 422.386983441 130.662379375 433.117355322 137.79563535 445.500641198 137.79563535 c 0
 462.953725946 137.79563535 477.1234178 123.625943496 477.1234178 106.172858748 c 0
 477.1234178 95.6475389182 471.51571527 87.4984867955 467.766471872 80 c 1
 447.766471872 54 l 2
 443.269713418 48.0498857181 438.396045523 42.4176150259 433.189183387 37.2107528899 c 2
 397.833844328 1.85541383057 l 2
 376.75597578 -19.2224547168 350.218030923 -33.3291248109 321.119918285 -33.3291248109 c 0
 312.420013469 -33.3291248109 303.491249763 -32.0680993056 294.411132812 -29.3553390593 c 1
 247.674353673 -28.4941425176 198.697103172 -10.2875491123 165.39573237 23.0138216895 c 2
 130.040393311 58.3691607488 l 2
 114.1750866 74.2344674599 101.867769247 93.5258694441 95.0557937532 116 c 1
 82.796868345 136.263250173 80.2336475309 159.107098743 80.2336475309 182.513713419 c 0
 80.2336475309 192.283297801 80.6847337699 202.266372757 81.0557937532 212 c 0
 80.5851609805 217.604446403 80.3433131113 223.105968427 80.3433131113 228.501144141 c 0
 80.3433131113 264.586267463 91.1623216992 295.914013214 116.708834073 321.460525588 c 2
 136.377433377 341.129124892 l 2
 140.487569073 346.308119217 145.016707637 351.341362193 149.859558614 356.184213171 c 0
 162.738301754 369.06295631 175.387578929 382.232447459 188.562014074 394.80936525 c 1
 184.45306193 395.993732185 180.390223034 396.94163916 176.273733653 396.94163916 c 0
 174.992401022 396.94163916 173.705870305 396.849798395 172.411132812 396.644660941 c 0
 167.436562186 396.644660941 162.493806889 400.614120324 157.994547642 405.113379571 c 2
 146.584947439 416.522979775 l 2
 142.889227065 419.155069254 139.554742025 421.813382073 136.640230085 424.727894013 c 2
 101.284891025 460.083233073 l 2
 84.9724429601 476.395681138 81.2651242377 497.736263733 81.2651242377 520.450042989 c 0
 81.2651242377 539.297732872 83.8395089542 559.17691845 83.8395089542 577.978640704 c 0
EndSplineSet
EndChar
StartChar: F
Encoding: 70 70 32
Width: 617
Flags: W
HStem: -30 71<86.2798 165.67> -29 80<71.2771 140.814> 365 70<207 359.359> 389 70<96.3432 180.649> 748 71<397.881 484.38>
VStem: 174 71<123.173 285.25> 176 71<45.9895 197.827 199.702 369.531 529.328 647.036> 186 71<449.266 649.451> 482 70<680.859 747.978>
LayerCount: 2
Fore
SplineSet
129 389 m 2x1880
 109 389 94 404 94 424 c 0
 94 444 109 459 129 459 c 2
 137 459 l 2x1880
 171 459 207 445 239 439 c 1
 328 435 l 2
 347 434 362 419 362 400 c 0
 362 381 346 365 327 365 c 0
 326 365 326 365 325 365 c 2x2880
 239 369 l 1
 207 375 171 389 137 389 c 2
 129 389 l 2x1880
176 286 m 0x8a80
 176 367 186 448 186 529 c 0
 186 536 186 543 186 550 c 0
 183 582 184 618 182 651 c 0
 181 652 180 653 179 654 c 2
 144 690 l 2
 128 706 116 727 102 743 c 2
 98 748 l 1
 100 804 l 1
 135 839 l 1
 164 812 193 785 220 756 c 0
 232 743 239 726 244 709 c 1
 273 717 305 738 337 759 c 0
 375 784 414 810 451 817 c 0
 456 818 461 819 466 819 c 0
 481 819 495 815 505 805 c 2
 541 769 l 2
 548 762 552 753 552 740 c 1
 558 733 560 723 562 713 c 0
 564 705 565 698 568 692 c 0
 571 687 573 682 573 676 c 0
 573 659 559 646 542 646 c 0
 531 646 521 652 516 661 c 2
 498 692 l 2
 495 698 493 705 491 713 c 0
 489 723 488 733 482 740 c 0
 482 742 481 744 481 746 c 0
 476 747 471 748 466 748 c 0
 461 748 456 748 451 747 c 0
 385 736 315 663 254 641 c 1
 255 611 253 579 256 550 c 0
 256 543 257 536 257 529 c 0x8980
 257 448 247 367 247 286 c 0x8a80
 247 270 247 254 248 238 c 1
 246 227 245 214 245 199 c 0x8c80
 245 174 247 147 247 122 c 0x8a80
 247 82 243 43 222 22 c 2
 186 -13 l 2
 176 -23 161 -30 141 -30 c 0x8980
 137 -30 135 -29 131 -29 c 0
 120 -29 109 -28 101 -23 c 2
 70 -6 l 2
 61 -1 55 10 55 21 c 0
 55 38 69 51 86 51 c 0x4980
 92 51 96 50 101 47 c 0
 111 41 122 42 135 41 c 0
 137 41 139 41 141 41 c 0
 150 41 159 43 166 45 c 1
 175 66 176 94 176 122 c 0x8a80
 176 147 174 174 174 199 c 0x8c80
 174 214 176 227 178 238 c 1
 177 254 176 270 176 286 c 0x8a80
EndSplineSet
EndChar
StartChar: G
Encoding: 71 71 33
Width: 564
Flags: HW
LayerCount: 2
Fore
SplineSet
374.03125 253 m 0
 374.03125 247.510742188 376.03125 241.115234375 376.03125 233 c 0
 376.03125 226.721679688 381.209960938 216.525390625 391.8671875 200.806640625 c 0
 402.263671875 185.473632812 418.03125 164.337890625 418.03125 135 c 1
 418.284179688 135.697265625 418.47265625 136.02734375 418.595703125 136.02734375 c 0
 418.713867188 136.02734375 418.772460938 135.724609375 418.772460938 135.1484375 c 0
 418.772460938 126.34765625 405.028320312 53.859375 379.0625 27.671875 c 0
 349.211914062 -4.337890625 304.61328125 -20.8173828125 263.755859375 -21.984375 c 0
 263.515625 -21.9912109375 263.276367188 -21.9951171875 263.036132812 -21.9951171875 c 0
 259.829101562 -21.9951171875 256.622070312 -21.3828125 253.606445312 -20.1572265625 c 0
 236.237304688 -13.1015625 221.034179688 -2.3955078125 207.90625 10.732421875 c 0
 165.467773438 53.1708984375 143.299804688 119.842773438 129.168945312 190.137695312 c 0
 111.418945312 278.4296875 107.103515625 375.37109375 103.979492188 443.729492188 c 0
 103.333984375 457.860351562 102.744140625 470.74609375 102.114257812 481.984375 c 0
 100.712890625 495.505859375 100 509.169921875 100 522.84375 c 0
 100 603.2734375 124.663085938 684.05078125 178.857421875 738.245117188 c 0
 216.532226562 775.919921875 268.016601562 798.92578125 330.896484375 798.92578125 c 0
 345.892578125 798.92578125 361.537109375 797.6171875 377.797851562 794.887695312 c 0
 433.931640625 791.676757812 474.727539062 753.271484375 506.7109375 727.477539062 c 0
 512.408203125 722.883789062 516.03125 715.375 516.03125 708 c 0
 516.03125 701.600585938 513.591796875 695.200195312 508.713867188 690.322265625 c 0
 503.8359375 685.444335938 497.435546875 683.004882812 491.036132812 683.004882812 c 0
 485.479492188 683.004882812 479.921875 684.84375 475.361328125 688.522460938 c 0
 456.56640625 703.6796875 436.440429688 720.845703125 415.834960938 732.0234375 c 0
 401.627929688 739.729492188 387.688476562 744.430664062 373.942382812 745.028320312 c 0
 372.873046875 745.075195312 371.805664062 745.189453125 370.749023438 745.373046875 c 0
 356.2265625 747.884765625 342.583007812 749.073242188 329.76171875 749.073242188 c 0
 279.799804688 749.073242188 242.345703125 731.022460938 214.212890625 702.889648438 c 0
 172.190429688 660.8671875 150.041992188 592.500976562 150.041992188 521.936523438 c 0
 150.041992188 510.193359375 150.65625 498.389648438 151.892578125 486.635742188 c 0
 153.176757812 474.44140625 153.23828125 460.884765625 153.916992188 446.029296875 c 0
 157.033203125 377.861328125 161.479492188 283.088867188 178.172851562 200.049804688 c 0
 191.595703125 133.279296875 213.41796875 75.931640625 243.26171875 46.087890625 c 0
 250.942382812 38.4072265625 259.047851562 32.4892578125 267.731445312 28.267578125 c 1
 295.426757812 30.3623046875 324.6796875 42.5322265625 342.681640625 61.974609375 c 0
 342.90234375 62.2119140625 343.127929688 62.4462890625 343.358398438 62.677734375 c 0
 359.646484375 78.9658203125 368.041015625 107.1875 368.041015625 135 c 0
 368.041015625 144.717773438 361.625 156.30078125 350.454101562 172.776367188 c 0
 340.7109375 187.145507812 326.041015625 206.223632812 326.041015625 233 c 0
 326.041015625 238.842773438 324.041015625 244.991210938 324.041015625 253 c 0
 324.041015625 269.17578125 331.061523438 283.140625 340.72265625 292.801757812 c 0
 358.368164062 310.447265625 382.634765625 315.995117188 403.036132812 315.995117188 c 0
 423.9765625 315.995117188 444.880859375 318.58984375 465.470703125 318.58984375 c 0
 471.734375 318.58984375 477.9609375 318.293945312 484.189453125 317.483398438 c 0
 496.4453125 315.88671875 510.284179688 311.938476562 521.3828125 300.83984375 c 0
 533.62109375 288.602539062 538.03125 271.705078125 538.03125 254 c 0
 538.03125 219.705078125 524.844726562 191.000976562 513.953125 165.999023438 c 0
 502.844726562 140.500976562 494.03125 118.705078125 494.03125 98 c 0
 494.03125 97.9345703125 493.939453125 97.89453125 493.939453125 97.7265625 c 0
 493.939453125 97.2197265625 494.78125 95.541015625 501.568359375 88.4091796875 c 0
 502.826171875 87.0869140625 504.237304688 85.625 505.734375 83.986328125 c 1
 541.217773438 80.900390625 l 2
 553.533203125 79.8291015625 564.03125 68.875 564.03125 56 c 0
 564.03125 49.6005859375 561.591796875 43.2001953125 556.713867188 38.322265625 c 0
 551.8359375 33.4443359375 545.435546875 31.0048828125 539.036132812 31.0048828125 c 0
 538.30859375 31.0048828125 537.581054688 31.0361328125 536.85546875 31.099609375 c 2
 490.85546875 35.099609375 l 2
 483.588867188 35.7314453125 476.489257812 39.974609375 472.465820312 45.78515625 c 0
 471.099609375 47.759765625 468.697265625 50.421875 465.334960938 53.9541015625 c 0
 458.677734375 60.9482421875 444.041015625 74.9228515625 444.041015625 98 c 0
 444.041015625 132.294921875 457.227539062 160.999023438 468.119140625 186.000976562 c 0
 479.227539062 211.499023438 488.041015625 233.294921875 488.041015625 254 c 0
 488.041015625 264.404296875 486.02734375 265.484375 486.02734375 265.484375 c 1
 486.02734375 265.484375 484.439453125 267.03515625 477.689453125 267.9140625 c 0
 474.587890625 268.318359375 470.70703125 268.486328125 466.1953125 268.486328125 c 0
 446.305664062 268.486328125 424.990234375 266.004882812 403.036132812 266.004882812 c 0
 392.125 266.004882812 379.970703125 261.338867188 376.078125 257.446289062 c 0
 374.26171875 255.630859375 374.03125 254.901367188 374.03125 253 c 0
EndSplineSet
EndChar
StartChar: H
Encoding: 72 72 34
Width: 794
Flags: HW
LayerCount: 2
Fore
SplineSet
282.684290311 696.032887923 m 1
 216.62627236 705.083988708 171.81326475 756.644660941 99 756.644660941 c 0
 98.0994372634 756.644660941 97.2184545904 756.622698723 96.3553390593 756.580649958 c 2
 96.3553390593 716 l 1
 106.355339059 666 l 2
 106.797247328 663.846359938 107.02882285 661.563834098 107.02882285 659.227647709 c 0
 107.02882285 640.093437784 91.4942705114 624.558885445 72.3600605864 624.558885445 c 0
 55.5620370498 624.558885445 41.5383331317 636.531639045 38.3643024068 652.401792669 c 2
 25.6446609407 716 l 1
 25.6446609407 782 l 1
 61 817.355339059 l 1
 73.5068380329 820.73564344 83.3890723018 827.355339059 99 827.355339059 c 0
 178.251860385 827.355339059 224.010562178 765.355339059 303 765.355339059 c 0
 304.684755536 765.355339059 304.820794033 765.847756213 305.606332154 766.633294335 c 2
 340.961671214 801.988633394 l 2
 343.430123984 804.457086164 346.105446968 806.282061294 349 807.355339059 c 1
 384.355339059 772 l 1
 384.355339059 759.384254969 380.122911976 749.646114033 373.214521692 742.737723749 c 2
 358.997677794 728.520879851 l 1
 352.875216035 703.194697993 350.447473729 671.097409688 350.447473729 643.322360658 c 0
 350.447473729 628.391453174 351.149034549 614.709571882 352.355339059 604 c 1
 351.144047054 579.810328875 350.640351045 555.671847919 350.640351045 531.569269905 c 0
 350.640351045 474.64611034 353.449789423 417.923204701 356.382742281 361.199178136 c 1
 396.619837321 393.509030436 438.049020702 425.634006807 475.232016457 460.285978687 c 0
 489.386385597 475.621923525 502.513496623 491.579442443 514.233743746 508.370659155 c 1
 511.00869644 539.810913589 506.916214761 572.710966837 506.916214761 605.020980506 c 0
 506.916214761 612.653338809 507.138554964 620.309617399 507.644660941 628 c 0
 507.644660941 645.708458176 520.517047025 751.314756759 547.121141765 777.918851498 c 2
 582.476480824 813.274190558 l 2
 586.357822888 817.155532621 590.531439801 819.355339059 595 819.355339059 c 0
 595.815429728 819.355339059 596.514256341 819.023425313 597.113265744 818.424415911 c 2
 632.468604803 783.069076851 l 2
 636.015349047 779.522332607 636.062658566 766.611633941 636.094976859 757.792018948 c 0
 636.108010935 754.235038655 636.118606635 751.343487824 636.355339059 750 c 0
 640.330103364 727.435167971 642.197511288 706.082943722 642.197511288 685.809243872 c 0
 642.197511288 615.578500175 619.788241405 558.290265721 584.944421868 508.370659172 c 0
 585.434921142 503.58889329 585.910301117 498.799514826 586.355339059 494 c 0
 600.23366865 450.032781002 601.033228492 391.098004025 601.857385369 330.350203565 c 0
 603.012567642 245.20284369 604.216074042 156.493559501 641.551082854 100.446431524 c 0
 648.100573071 96.1934844726 655.232588744 92.4787614575 663 89.3553390593 c 0
 671.934570312 85.7625656218 727 57.3553390593 727 57.3553390593 c 1
 736.071067812 54.3316497887 745.142135624 51.3079605181 754.213203436 48.2842712475 c 0
 767.536533124 43.8431613513 777.153207526 31.2636620461 777.153207526 16.455792447 c 0
 777.153207526 -2.05599941999 762.123979731 -17.0852272155 743.612187864 -17.0852272155 c 0
 737.373413298 -17.0852272155 731.937600905 -15.0012060277 727 -13.3553390593 c 2
 727 -13.3553390593 671.934570312 15.0518875032 663 18.6446609407 c 0
 646.84648411 25.140294 633.441025101 34.193275225 622.308087806 45.3262125197 c 2
 586.952748747 80.681551579 l 2
 533.812987105 133.821313221 532.449132997 234.349670726 531.14670725 330.350203565 c 0
 530.62607691 368.725358747 530.115262284 406.377007153 526.311011737 439.988998184 c 1
 493.808847026 407.486833473 l 2
 453.144900948 366.822887395 405.733858788 330.04745592 359.785040937 293.217947857 c 1
 361.602770106 253.585511829 363.208372014 218.410855834 363.208372014 177.031145418 c 0
 363.208372014 124.778004749 358.220289574 54.0873807084 325.758730845 21.6258219797 c 2
 290.403391786 -13.7295170796 l 2
 279.390425775 -24.742483091 265.215302437 -31.3553390593 247 -31.3553390593 c 0
 224.634637369 -30.7427301274 198.080803449 -19.7848276275 180.606822254 -2.31084643225 c 2
 145.251483195 33.0444926271 l 2
 133.861682323 44.4342934983 126.329571574 58.5925327109 126.329571574 74.4587789623 c 0
 126.329571574 78.214822237 126.751685316 82.0665854587 127.644660941 86 c 0
 143.434415518 146.906342652 179.671867995 196.844854852 224.992853703 242.16584056 c 0
 245.99901636 263.172003216 266.406246838 284.255618029 288.558211635 304.226984455 c 1
 284.9874656 378.86955423 279.929672926 455.605958412 279.929672926 531.569269905 c 0
 279.929672926 555.671847919 280.433368935 579.810328875 281.644660941 604 c 0
 280.43835643 614.709571882 279.73679561 628.391453174 279.73679561 643.322360658 c 0
 279.73679561 660.129220172 280.625722529 678.51868375 282.684290311 696.032887923 c 1
291.275391739 235.956247023 m 1
 287.12721585 232.245988227 283.02680781 228.51235498 278.981167681 224.751435931 c 0
 241.551039648 184.049176586 212.149885518 139.210160373 198.355339059 86 c 0
 197.462363435 82.0665854601 197.040249693 78.2148222396 197.040249693 74.4587789659 c 0
 197.040249693 66.6571541002 198.86136919 59.2684924817 202.066769096 52.4188650999 c 1
 216.414361336 44.4471258928 232.57799388 39.7503717673 247 39.3553390593 c 0
 255.792831151 39.3553390843 263.64423824 40.8962366266 270.652981504 43.7291410521 c 1
 289.215932553 80.1333057747 292.497693896 134.647424069 292.497693896 177.031145375 c 0
 292.497693896 200.034645402 291.875176079 215.441726157 291.275391739 235.956247023 c 1
EndSplineSet
EndChar
StartChar: I
Encoding: 73 73 35
Width: 392
Flags: W
HStem: -40 71<196.324 249.062> 577 70<126.359 199> 839 20G<205 238.571>
VStem: 55 71<647.402 745.284> 184 70<649.411 777> 277 71<55.7143 359.405>
LayerCount: 2
Fore
SplineSet
277 144 m 0
 277 293 238 440 211 577 c 1
 120 577 l 1
 118 579 117 579 115 581 c 2
 80 617 l 2
 62 635 55 655 55 677 c 0
 55 713 76 751 105 780 c 2
 140 816 l 2
 163 839 192 856 218 859 c 1
 254 824 l 2
 254 823 254 823 254 822 c 0
 254 710 277 599 300 488 c 0
 324 375 348 262 348 144 c 0
 348 96 327 46 299 18 c 2
 263 -17 l 2
 249 -31 233 -40 217 -40 c 0
 205 -40 192 -35 181 -24 c 2
 146 12 l 2
 138 20 130 31 123 46 c 1
 111 96 l 2
 110 99 110 101 110 104 c 0
 110 123 125 138 144 138 c 0
 160 138 174 127 178 112 c 2
 194 46 l 2
 196 42 198 38 200 34 c 0
 206 32 211 31 217 31 c 0
 227 31 236 34 245 39 c 1
 264 67 277 106 277 144 c 0
126 677 m 0
 126 667 128 656 131 647 c 1
 199 647 l 1
 192 690 186 733 184 777 c 1
 175 773 167 767 159 761 c 0
 139 735 126 706 126 677 c 0
EndSplineSet
EndChar
StartChar: J
Encoding: 74 74 36
Width: 550
Flags: W
HStem: -21 70<226.141 278.436> 731 71<133.85 317.859> 741 71<131 295.18>
VStem: 65 71<659.797 740.035> 149 71<50.5632 157.576> 301 71<64.4611 241 295.97 315.531 388 728.42> 435 71<428.34 498.344>
LayerCount: 2
Fore
SplineSet
301 370 m 0xde
 301 432 296 496 296 558 c 0
 296 618 301 676 319 731 c 1
 312 731 305 731 298 731 c 0xde
 245 731 184 739 131 741 c 1
 133 728 136 715 136 701 c 0
 136 697 135 694 135 690 c 0
 134 671 119 657 100 657 c 0
 81 657 65 673 65 692 c 0
 65 695 65 698 65 701 c 0
 65 727 57 751 55 776 c 1
 90 811 l 1
 96 811 102 812 108 812 c 0xbe
 168 812 238 802 298 802 c 0
 325 802 350 803 372 809 c 1
 408 774 l 1
 375 707 367 634 367 558 c 0
 367 502 371 444 372 388 c 1
 385 401 398 414 411 426 c 0
 420 435 428 444 435 452 c 1
 435 466 l 2
 435 486 450 501 470 501 c 0
 490 501 506 486 506 466 c 2
 506 452 l 1
 485 428 455 399 431 375 c 0
 413 357 391 335 371 316 c 1
 370 306 369 296 369 285 c 0
 369 251 372 214 372 179 c 0
 372 126 366 74 335 43 c 2
 299 8 l 2
 284 -7 264 -17 236 -21 c 0
 235 -21 236 -21 235 -21 c 0
 223 -21 214 -17 206 -9 c 2
 170 26 l 2
 155 41 149 66 149 86 c 0
 149 88 149 90 149 92 c 0
 154 160 226 243 300 317 c 1
 301 334 301 352 301 370 c 0xde
300 241 m 1
 256 190 223 138 220 92 c 0
 220 90 220 88 220 86 c 0
 220 75 221 62 226 50 c 0
 229 49 232 49 235 49 c 0
 236 49 235 49 236 49 c 0
 253 51 267 56 279 63 c 1
 297 94 301 136 301 179 c 0
 301 200 301 221 300 241 c 1
EndSplineSet
EndChar
StartChar: K
Encoding: 75 75 37
Width: 808
Flags: HW
LayerCount: 2
Fore
SplineSet
33 706.644660941 m 2
 13.4868580431 706.644660941 -2.35533905933 722.486858043 -2.35533905933 742 c 0
 -2.35533905933 761.513141957 13.4868580431 777.355339059 33 777.355339059 c 2
 81 777.355339059 l 2
 143.05078125 777.355339059 207 811.355339059 207 811.355339059 c 1
 242.355339059 776 l 1
 251.550614378 704.910135821 256.605169713 615.721535314 256.605169713 523.124745757 c 0
 256.605169713 458.824693483 254.167842999 392.881198874 248.987194704 330.213345095 c 1
 281.685098207 382.928431749 318.564827497 432.531909922 362.457793998 476.424876423 c 2
 397.813133057 511.780215482 l 2
 419.11561092 533.082693345 442.070008385 553.040099612 467 571.355339059 c 0
 467.892586828 572.011094832 468.862575114 572.775849293 469.905454085 573.642608644 c 0
 495.051858765 600.457202557 521.706105645 629.94427273 547.709378044 655.947545128 c 2
 583.064717103 691.302884188 l 2
 611.245305439 719.483472524 636.569211723 741.355339059 649 741.355339059 c 1
 684.355339059 706 l 1
 697.935936251 674.520741197 704.034493465 645.121795027 704.034493465 617.998611383 c 0
 704.034493465 567.371551623 682.786829696 524.67335688 649.288546819 491.175074002 c 2
 613.933207759 455.819734943 l 2
 559.138600866 401.025128049 471.565531608 370.846335438 390.591277469 370.846335438 c 0
 387.885932417 370.846335438 385.187953122 370.880021736 382.49880808 370.94760179 c 1
 382.422090538 369.261044835 382.384011825 367.555955627 382.384011825 365.833168937 c 0
 382.384011825 311.922935769 416.74038292 237.752825962 477.082981686 177.69252028 c 0
 544.27982096 110.810039409 637.189787302 65.3553390593 725 65.3553390593 c 0
 725.59206273 65.3553390593 726.173621117 65.3677742457 726.744946643 65.3922985769 c 0
 730.325636436 73.9712529432 733.87502604 82.2351794832 739.341031755 87.7011851981 c 0
 751.221424324 99.5815777668 762.930632076 111.667339954 775 123.355339059 c 0
 779.572274112 127.783138101 785.801674415 130.509701824 792.662872505 130.509701824 c 0
 806.680434073 130.509701824 818.060916711 119.129219186 818.060916711 105.111657618 c 0
 818.060916711 97.9552941407 815.094716119 91.4862569684 810.337122479 86.8651982974 c 2
 805.927311527 82.5947288924 l 1
 797.056197563 69.319208778 793.60207551 49.9009057105 782.422054073 38.7208842738 c 2
 747.066715014 3.36554521451 l 2
 741.782815251 -1.91835454836 734.843065208 -5.35533905933 725 -5.35533905933 c 0
 629.430026925 -5.35533905933 531.291050348 51.9589039419 458.971719971 124.278234319 c 2
 423.616380912 159.633573378 l 2
 370.540650349 212.709303941 331.371919827 273.867087571 317.332169322 326.382194412 c 1
 282.239655303 269.296270603 251.943700387 208.655210426 222.878912697 147.731624735 c 1
 208.146096756 82.5560806112 188.238960234 31.7050748116 162.487251771 5.95336634902 c 2
 127.131912712 -29.4019727103 l 2
 123.223362338 -33.3105230837 119.180172604 -36.6408697172 115 -39.3553390593 c 1
 79.6446609407 -4 l 1
 104.389564264 45.569806129 128.045368222 97.1669499143 152.168233658 147.73162209 c 1
 175.54490291 251.146145511 185.894491615 390.624709532 185.894491615 523.124745769 c 0
 185.894491615 595.622007359 182.796114316 666.030092974 177.03793583 727.298582531 c 1
 152.625696316 717.774605182 116.502120165 706.644660941 81 706.644660941 c 2
 33 706.644660941 l 2
633.323815331 617.998611603 m 0
 633.323815331 631.774368412 631.750641501 646.1371772 628.423035448 661.061430888 c 1
 619.947045031 655.030739748 610.050849231 646.496620911 599.378489595 636.457764784 c 0
 574.149184394 610.132004371 542.353729439 574.494128882 519.000496437 551.14089588 c 2
 483.645157378 515.785556821 l 2
 476.768545927 508.90894537 471.076897682 503.639828081 467 500.644660941 c 0
 448.900278205 487.347397052 431.841909026 473.184532811 415.701023376 458.269765506 c 0
 410.660601134 452.827824358 405.715461531 447.308870969 400.860724503 441.717384678 c 1
 470.022914351 443.868569765 542.745642715 467.605069247 594.929261387 509.522232846 c 1
 618.837299147 539.798143788 633.323815331 576.195453886 633.323815331 617.998611603 c 0
EndSplineSet
EndChar
StartChar: L
Encoding: 76 76 38
Width: 644
Flags: HW
LayerCount: 2
Fore
SplineSet
194.763179357 164.879029294 m 1
 199.648733466 205.251842639 200.639383782 234.0348556 200.639383782 253.214524715 c 0
 200.639383782 319.347665864 182.895803752 383.128870114 176.601692191 446 c 0
 174.502822779 489.450107613 163.266472855 546.029185216 158.161026853 591.645035231 c 1
 150.893695256 590.897108793 143.738192301 590.51996384 136.793680687 590.51996384 c 0
 134.490381156 590.51996384 132.210291993 590.561452147 129.95703125 590.644660941 c 0
 123.676499487 594.221244105 118.076351482 598.587389071 113.074173458 603.589567094 c 2
 77.7188343991 638.944906153 l 2
 43.4382865075 673.225454045 37.3286558204 736.541078229 32.6016921907 782 c 0
 32.478759111 783.135383224 32.414409101 784.360770398 32.414409101 785.601068719 c 0
 32.414409101 805.009565564 48.1716476414 820.766804104 67.5801444868 820.766804104 c 0
 85.7483430114 820.766804104 100.717038779 806.9591455 102.555989229 789.274070853 c 0
 106.796037195 748.497787414 110.387819107 699.439802328 131.796318681 661.296836313 c 1
 133.448845184 661.252676788 135.115099327 661.230641959 136.793680714 661.230641959 c 0
 142.580318295 661.230641959 148.51345458 661.492506956 154.535717294 662.012555256 c 1
 155.78706031 699.613099449 163.884794347 732.515883925 185.36287434 753.993963918 c 2
 220.718213399 789.349302977 l 2
 237.18878967 805.819879248 261.527903469 815.571965858 296.682120647 815.571965858 c 0
 299.693765061 815.571965858 302.784784377 815.500392718 305.95703125 815.355339059 c 1
 341.312370309 780 l 1
 344.560366046 769.132063736 346.068468018 758.792892593 346.068468018 748.997361115 c 0
 346.068468018 721.548135009 334.226199405 698.367802556 315.642063574 679.783666725 c 2
 280.286724515 644.428327666 l 2
 265.828741653 629.970344804 247.290282453 618.2941835 227.07294517 609.553959124 c 1
 229.436249224 582.641465506 233.54146822 554.97617156 237.464436348 528.539076123 c 0
 241.927164926 498.464505678 246.154040726 469.979359922 247.312370309 446 c 0
 253.608432123 383.109389278 271.3500619 319.36261973 271.3500619 253.214524715 c 0
 271.3500619 251.478373131 271.337676786 249.740231113 271.312370309 248 c 0
 271.002859198 226.767330065 268.360352967 163.075695426 255.940458608 108.086867654 c 1
 264.167280798 99.8600454637 272.290807788 91.6464140095 280.352215147 83.203548889 c 0
 305.629768727 60.4800341714 333.732446331 43.1551275722 370.96707578 43.1551275722 c 0
 373.261882205 43.1551275722 375.591375224 43.2209340951 377.95703125 43.3553390593 c 0
 428.612563578 46.030507935 483.042615336 52.365953616 522.003682128 77.4281971036 c 1
 533.803090745 96.4341821779 540.688478271 120.735941814 540.688478271 151.876938842 c 0
 540.688478271 153.889261732 540.659726891 155.930143292 540.601692191 158 c 1
 512.601692191 186 l 2
 508.076426566 190.525265625 505.275895316 196.775265625 505.275895316 203.674203125 c 0
 505.275895316 217.472078125 516.478020316 228.674203125 530.275895316 228.674203125 c 0
 537.174832816 228.674203125 543.424832816 225.873671875 547.95703125 221.355339059 c 2
 611.312370309 158 l 1
 611.37040501 155.930143292 611.39915639 153.889261732 611.39915639 151.876938842 c 0
 611.39915639 108.981852841 598.335087915 79.0632718327 577.359147792 58.0873317094 c 2
 542.003808733 22.7319926501 l 2
 503.408952512 -15.8628635709 438.028876233 -24.1828853855 377.95703125 -27.3553390593 c 0
 375.591375231 -27.4897440232 373.261882219 -27.555550546 370.967075801 -27.555550546 c 0
 326.31043712 -27.555550546 294.789147122 -2.63550147314 265.523231884 26.6304137648 c 2
 238.150708993 54.0029366554 l 1
 233.438083379 44.380834905 228.066749327 36.1996444183 221.946489684 30.0793847757 c 2
 186.591150625 -5.27595428359 l 2
 178.941741185 -12.9253637232 170.122415445 -17.3553390593 159.95703125 -17.3553390593 c 0
 144.117944057 -14.6485293072 130.233012087 -6.18571690653 118.579041717 5.46825346355 c 2
 83.2237026572 40.8235925229 l 2
 60.6024419474 63.4448532327 46.3869586607 98.0897021596 42.6016921907 126 c 0
 41.0847671575 131.070537978 40.3792453626 135.361093633 40.3792453626 138.972170195 c 0
 40.3792453626 144.255680862 41.8896114257 148.084577128 44.5786954403 150.773661143 c 2
 79.9340344997 186.129000202 l 2
 83.9234283322 190.118394034 90.5070910061 191.599147522 98.6021305055 191.599147522 c 0
 104.962483008 191.599147522 112.2558689 190.685019144 119.95703125 189.355339059 c 0
 120.98166289 189.380888068 121.999455155 189.393544825 123.010532581 189.393544825 c 0
 151.266284883 189.393544825 174.277821094 179.50875693 194.763179357 164.879029294 c 1
260.171687414 698.463361911 m 1
 268.803277744 711.767482393 274.219688799 726.80641973 275.197743661 743.501680637 c 1
 261.966805872 741.72384739 250.640456844 738.244004298 240.9799869 733.307911806 c 1
 232.93899333 718.094426936 228.463444904 699.936358347 226.431586128 679.988594341 c 1
 238.424316074 685.127452777 249.837241016 691.296375451 260.171687414 698.463361911 c 1
123.010532581 118.682866707 m 0
 121.999455155 118.682866707 120.98166289 118.67020995 119.95703125 118.644660941 c 0
 118.061494166 118.971943732 116.190661473 119.274051083 114.352365661 119.543548352 c 1
 117.843074354 100.755487059 125.70014173 79.7103406868 137.362904817 61.6031247922 c 0
 144.365557366 57.5921107464 151.909036801 54.7306954542 159.95703125 53.3553390593 c 0
 162.574238317 53.3553390593 165.102219158 53.6489889715 167.543979898 54.2156291771 c 0
 174.125414702 67.7107381706 179.418129466 84.0188035295 183.669378674 101.44056285 c 1
 165.994524706 111.978406 146.281000832 118.682866707 123.010532581 118.682866707 c 0
EndSplineSet
EndChar
StartChar: M
Encoding: 77 77 39
Width: 748
Flags: HW
LayerCount: 2
Fore
SplineSet
595.355339059 748 m 0
 595.355339059 662.101364869 592.036517029 574.309258288 592.036517029 488.774969527 c 0
 592.036517029 314.607392997 606.015836815 152.869136467 691.355339059 40 c 1
 729.355339059 -4 l 2
 733.405556848 -8.68972586089 735.856293516 -14.7985905677 735.856293516 -21.4753385738 c 0
 735.856293516 -36.2433333607 723.866554255 -48.2330726214 709.098559468 -48.2330726214 c 0
 701.007312688 -48.2330726214 693.742930962 -44.6401021299 688.853601533 -38.9787733179 c 2
 620.644660941 40 l 1
 535.305158697 152.869136467 521.32583891 314.607392997 521.32583891 488.774969527 c 0
 521.32583891 557.737429281 523.504741707 628.889012796 524.324342409 698.015506932 c 1
 478.414146556 592.920838803 427.181700888 429.453477395 427.181700888 376.890296154 c 0
 427.181700888 375.134322192 427.238877438 373.502119765 427.355339059 372 c 1
 356.644660941 372 l 1
 323.840570737 434.510439392 289.28140814 497.132730991 260.80748817 565.419939185 c 1
 260.700140604 557.358036339 260.602057946 549.295731168 260.504010295 541.236303537 c 0
 258.100279999 343.651861775 255.717589978 147.796911507 117.355339059 2 c 1
 82 -33.3553390593 l 1
 81.0971068737 -32.6369819242 80.2150884107 -31.84376205 79.354049735 -30.9827233743 c 2
 43.9987106757 4.37261568506 l 2
 28.9663023801 19.4050239806 20.3284868117 55.1084528028 18.6446609407 74 c 0
 18.5541807814 74.9721845726 18.5067740559 76.0265201412 18.5067740559 77.0918407691 c 0
 18.5067740559 96.5279317334 34.2864155221 112.3075732 53.7225064864 112.3075732 c 0
 72.0932768229 112.3075732 87.1974433123 98.2103355533 88.7980150655 80.2528511499 c 0
 89.5158338331 72.1993419591 90.0272761657 66.6210769877 91.7708679866 57.9651664425 c 1
 185.59321081 195.990151404 187.685179527 367.948075213 189.793332176 541.236303537 c 0
 190.90627375 632.719087608 192.023725824 724.572630666 206.644660941 812 c 1
 277.355339059 812 l 1
 277.327085437 809.886046812 277.313066922 807.775222774 277.313066922 805.667521026 c 0
 277.313066922 684.811306296 323.404656802 574.2208898 374.754008075 472.602524902 c 1
 405.666790055 586.653157915 468.179165987 750.936720923 501.88207316 784.639628096 c 2
 537.237412219 819.994967155 l 2
 541.255171337 824.012726273 544.863511155 826.174767701 547.960090191 826.174767701 c 0
 549.680175139 826.174767701 551.242352699 825.507654609 552.629081848 824.12092546 c 2
 587.984420907 788.7655864 l 2
 592.672458213 784.077549094 595.355339059 771.165197956 595.355339059 748 c 0
EndSplineSet
EndChar
StartChar: N
Encoding: 78 78 40
Width: 568
Flags: HW
LayerCount: 2
Fore
SplineSet
172.355339059 172 m 0
 172.355339059 156.303911086 173.142069995 139.909205997 173.142069995 123.023023691 c 0
 173.142069995 81.7625378289 169.276017956 33.7556373784 144.403613637 8.88323305886 c 2
 109.048274577 -26.4721060005 l 2
 98.5432223207 -36.9771582571 84.2909297916 -43.3553390593 65 -43.3553390593 c 0
 59.3659065448 -42.3329420718 54.9772768929 -39.8529468424 51.4895513514 -36.3652213009 c 2
 16.1342122921 -1.00988224154 l 2
 2.41750449025 12.7068255603 3.38705908524 40.6686069741 -4.35533905933 60 c 0
 -5.89135547746 63.8061075574 -6.72164696149 67.9178109452 -6.72164696149 72.2219090009 c 0
 -6.72164696149 90.3362249495 7.98488078614 105.042752697 26.0991967348 105.042752697 c 0
 39.9094146276 105.042752697 51.7388819958 96.4946972327 56.5807350723 84.4054500708 c 2
 66.3553390593 60 l 2
 69.9002278297 51.1490423543 71.7059990258 38.5520915883 74.0949807377 27.8605922523 c 1
 79.3373958353 28.4635480596 84.1550562792 29.5952779353 88.58167424 31.1970109772 c 0
 100.244893158 57.1484498138 102.431391877 91.9935003597 102.431391877 123.023023667 c 0
 102.431391877 139.93937405 101.644660941 156.267575712 101.644660941 172 c 0
 96.8309567154 255.209999864 88.0452559994 347.399508188 88.0452559994 429.243368392 c 0
 88.0452559994 553.58507082 107.875438097 664.760489334 189.644660941 754 c 0
 191.052996029 755.537027557 192.398557944 756.945547843 193.683812992 758.230802891 c 2
 229.039152052 793.58614195 l 2
 236.714213305 801.261203203 242.23871326 804.540588383 246.137852129 804.540588383 c 0
 247.807319635 804.540588383 249.178819988 803.939399467 250.293577429 802.824642026 c 2
 285.648916488 767.469302966 l 2
 288.771007356 764.347212098 289.879240531 757.196757126 289.879240531 747.94280476 c 0
 289.879240531 726.491736721 283.240937283 691.529545856 283.240937283 670.416277369 c 0
 283.240937283 666.081018316 283.564730514 662.507596725 284.355339059 660 c 0
 293.679419171 621.015676368 296.641719079 580.0817976 296.641719079 538.341092649 c 0
 296.641719079 466.035130901 287.644215872 390.851880744 287.644215872 318.801701566 c 0
 287.644215872 267.249607716 292.308832782 217.563040997 308.355339059 172 c 0
 309.398080158 168.016634885 311.380561352 162.322518259 314.004992931 155.441752533 c 1
 350.926370648 369.476742837 421.240155492 556.854982864 483.644660941 748 c 1
 498.129942315 767.313708499 512.615223689 786.627416998 527.100505063 805.941125497 c 0
 532.261793644 812.822843604 540.485340045 817.278590058 549.741369467 817.278590058 c 0
 565.351883033 817.278590058 578.025640715 804.604832376 578.025640715 788.99431881 c 0
 578.025640715 782.639834667 575.925581126 776.77197513 572.355339059 772 c 2
 554.355339059 748 l 1
 479.15251345 517.653724736 392.077820229 291.766829405 366.355339059 18 c 1
 295.644660941 18 l 1
 295.644660941 37.9478000505 244.766569603 144.793663862 237.644660941 172 c 0
 221.598154663 217.563040997 216.933537753 267.249607716 216.933537753 318.801701566 c 0
 216.933537753 390.845340722 225.93104096 466.041696825 225.93104096 538.341092649 c 0
 225.93104096 580.0817976 222.968741052 621.015676368 213.644660941 660 c 0
 212.854052215 662.507596957 212.53025892 666.081018882 212.53025892 670.416278328 c 0
 212.53025892 675.932015685 213.054395923 682.680969545 213.80811336 690.037072484 c 1
 170.615147068 613.683638146 158.755934133 525.400475645 158.755934133 429.243368072 c 0
 158.755934133 347.425121238 167.544229708 255.165144711 172.355339059 172 c 0
EndSplineSet
EndChar
StartChar: O
Encoding: 79 79 41
Width: 584
Flags: HW
HStem: -33 70<207.188 369.205> -21 70<181.605 337.169> 733 71<178.729 321.866>
VStem: 55 71<134.233 528.293> 67 71<292.707 678.842> 463 71<242.692 500.624>
LayerCount: 2
Fore
SplineSet
126 289 m 0xb4
 126 202 138 125 186 65 c 0
 193 60 200 54 207 49 c 1
 219 49 l 2x74
 257 49 300 37 339 37 c 0
 340 37 357 41 365 45 c 1
 426 133 463 329 463 376 c 0
 459 436 446 495 425 551 c 1
 419 518 404 488 381 465 c 2
 345 429 l 2
 340 424 336 421 331 417 c 0
 326 413 320 411 314 411 c 0
 298 411 286 423 286 439 c 0
 286 448 290 457 297 462 c 2
 326 484 l 1
 348 515 358 553 358 592 c 0
 358 635 345 679 322 712 c 1
 303 725 280 733 254 733 c 0
 222 733 197 724 177 710 c 1
 151 674 138 625 138 578 c 2
 138 532 l 1xac
 135 453 126 368 126 289 c 0xb4
219 -21 m 2
 207 -21 l 1
 192 -11 179 -1 167 11 c 2
 132 46 l 2
 70 108 55 193 55 289 c 0x74
 55 368 64 453 67 532 c 1
 67 578 l 2
 67 634 86 692 123 729 c 2
 158 765 l 2
 176 783 200 796 227 801 c 0
 236 803 245 804 254 804 c 0
 289 804 318 790 341 767 c 2
 360 748 l 1
 364 751 370 752 375 752 c 0
 386 752 396 746 401 737 c 2
 420 706 l 2
 480 607 526 494 534 376 c 0
 534 324 490 96 418 24 c 2
 383 -12 l 2
 369 -26 355 -33 339 -33 c 0xac
 300 -33 257 -21 219 -21 c 2
EndSplineSet
EndChar
StartChar: P
Encoding: 80 80 42
Width: 628
Flags: HW
LayerCount: 2
Fore
SplineSet
206.644660941 570 m 0
 206.644660941 571.403071337 206.624447637 572.837849864 206.624447637 574.304788358 c 0
 206.624447637 581.393269311 207.036891359 590.706690406 211.587912118 595.257711165 c 2
 246.943251177 630.613050224 l 2
 248.648843825 632.318642872 250.93571468 633.355339059 254 633.355339059 c 0
 273.513141957 633.355339059 289.355339059 617.513141957 289.355339059 598 c 0
 289.355339056 587.432310078 284.708890556 577.941292543 277.349269454 571.460223295 c 0
 277.349269454 570.951489757 277.355339059 570.463535377 277.355339059 570 c 0
 277.355339059 537.385086353 286.475739083 498.928207915 305.499879763 469.391190755 c 1
 318.300152717 461.792326267 333.110971435 457.355339059 350 457.355339059 c 0
 401.936626238 457.355339289 462.364905441 479.852863976 508.24561947 516.953929327 c 1
 530.61272631 545.092471663 544.644660941 578.091793697 544.644660941 614 c 0
 544.644660941 676.353329894 527.800819174 726.219728837 498.32989989 764.10181244 c 1
 449.698978874 802.15426637 382.59204829 820.644660941 306 820.644660941 c 0
 232.900447989 820.644660941 176.38016882 818.11961632 138.346838297 795.676574418 c 1
 126.156992348 774.967579326 119.072730339 747.202802838 117.355339059 710 c 0
 117.064310462 703.696267313 116.917124275 697.38295943 116.917124275 691.069780761 c 0
 116.917124275 641.837937115 125.867949848 592.613951414 145.355339059 548 c 0
 147.118849029 543.985322332 148.079876222 539.607266376 148.079876222 535.006521749 c 0
 148.079876222 517.124822468 133.562203714 502.60714996 115.680504434 502.60714996 c 0
 102.39954978 502.60714996 90.97426389 510.615407088 85.9742486661 522.06231944 c 2
 74.6446609407 548 l 2
 55.1572717292 592.613951414 46.2064461564 641.837937115 46.2064461564 691.069780761 c 0
 46.2064461564 697.38295943 46.3536323437 703.696267313 46.6446609407 710 c 0
 48.9884044201 760.771089627 61.3276078127 793.964447501 82.9981608357 815.635000524 c 2
 118.353499895 850.990339584 l 2
 155.12136744 887.758207129 218.751421365 891.355339059 306 891.355339059 c 0
 393.053264168 891.355339059 467.853442466 867.469036383 517.199533527 818.122945323 c 2
 552.554872586 782.767606263 l 2
 592.148781838 743.173697011 615.355339059 687.188765327 615.355339059 614 c 0
 615.355339059 569.979247096 594.266869561 530.330230436 562.58582247 498.649183345 c 2
 527.23048341 463.293844286 l 2
 480.082198032 416.145558907 409.473566973 386.644660941 350 386.644660941 c 0
 323.978088231 386.644660941 302.889714237 397.177785891 286.487385663 413.580114465 c 2
 251.132046603 448.935453524 l 2
 220.960307723 479.107192405 206.644660941 529.138455651 206.644660941 570 c 0
172.668546139 171.912760412 m 0
 172.668546139 176.450799443 172.644660941 180.720097244 172.644660941 185 c 0
 172.644660941 255.900927813 165.147711762 325.578986663 164.644660941 395 c 2
 162.642839657 671.251337122 l 2
 162.642839657 690.763966781 178.48553122 706.60575456 197.99816088 706.60575456 c 0
 217.423708535 706.60575456 233.207119137 690.905028054 233.347906721 671.512342311 c 2
 235.355339059 395 l 1
 238.0111011 325.621708576 243.355339059 255.904859782 243.355339059 185 c 0
 243.355339059 180.726555478 243.379224257 176.444829716 243.379224257 171.912760395 c 0
 243.379224257 129.271991328 241.586810513 47.9022074012 206.947595329 13.2629922173 c 2
 171.59225627 -22.092346842 l 2
 161.462644793 -32.2219583187 148.524092595 -38.3553390593 132 -38.3553390593 c 0
 116.646844325 -38.3553390593 105.660747208 -32.3194888175 96.8313298111 -23.4900714202 c 2
 61.4759907518 11.8652676391 l 2
 45.4950758608 27.8461825301 36.4542823609 53.1903785797 20.6446609407 69 c 1
 12.6446609407 143 l 2
 12.5092081586 144.252938234 12.4397083155 145.525527836 12.4397083155 146.814221902 c 0
 12.4397083155 166.214325156 28.1901323236 181.964749164 47.5902355773 181.964749164 c 0
 65.701644765 181.964749164 80.6270378497 168.236786189 82.5384647995 150.556086904 c 2
 91.3533123601 69.0187469676 l 1
 100.476226779 59.8958325483 107.576046801 47.2927197471 114.910571772 35.2691251444 c 0
 119.954476851 33.4049767285 125.597521485 32.3553390593 132 32.3553390593 c 0
 139.270269687 32.3553390593 145.846441898 33.5426533687 151.794661546 35.7352559591 c 1
 171.457745378 75.6581544021 172.668546139 136.866455234 172.668546139 171.912760412 c 0
EndSplineSet
EndChar
StartChar: Q
Encoding: 81 81 43
Width: 680
Flags: HW
LayerCount: 2
Fore
SplineSet
189.227737713 395.816967763 m 0
 189.227737713 308.387030342 208.252904312 200.113266803 263.909104472 129.589921962 c 1
 288.323740219 110.67021788 317.59145135 97.6751384498 352.458008341 93.0866872892 c 0
 354.234499367 95.4736881038 356.372703376 97.5758796367 358.791180305 99.3118218268 c 0
 376.175883284 111.790270142 394.416007792 123.968487074 410.634912156 137.619510434 c 0
 470.351000097 208.665198475 490.654536541 302.199234931 490.654536541 396.893231839 c 0
 490.654536541 413.264221213 490.047693122 429.669880132 488.932746878 446 c 1
 490.136565181 459.191833578 490.772724047 473.03625441 490.772724047 487.24331419 c 0
 490.772724047 557.263873324 475.319883728 636.093241194 436.213500871 689.019015333 c 1
 413.514575946 705.256732612 385.890109517 714.824978806 352.655274642 714.824978806 c 0
 343.618890474 714.824978806 334.167749324 714.117628309 324.288085938 712.644660941 c 1
 318.957473061 713.073190931 313.796010206 713.28273024 308.7982727 713.28273024 c 0
 279.584176635 713.28273024 255.964486156 706.122886763 236.855697434 693.690982329 c 1
 192.593250206 628.600053123 191.070267949 518.835872149 189.95088721 438.160007838 c 0
 189.74681367 423.45204596 189.227737713 410.420877255 189.227737713 395.816967763 c 0
525.691797668 -5.98602503185 m 0
 525.691797668 -6.65342133693 525.675846076 -7.32471764612 525.643424997 -8 c 0
 525.643424997 -32.2274975449 511.47372866 -47.8217418915 497.207694742 -63.5220091009 c 0
 490.139332618 -71.3009878077 483.047320731 -79.1059939035 477.643424997 -88 c 1
 442.288085938 -123.355339059 l 1
 370.288085938 -123.355339059 l 2
 350.774943981 -123.355339059 334.932746878 -107.513141957 334.932746878 -88 c 0
 334.932746878 -68.4868580431 350.774943981 -52.6446609407 370.288085938 -52.6446609407 c 2
 436.116125347 -52.6446609407 l 1
 446.51105217 -40.2246640843 454.932746878 -26.6778994701 454.932746878 -8 c 0
 454.965167957 -7.32471764612 454.981119549 -6.65342133693 454.981119549 -5.98602503185 c 0
 454.981119549 11.9808583641 443.420478045 27.1212809598 430.403553117 41.1139316425 c 1
 427.131794346 37.8421728714 l 2
 416.002398366 26.7127768915 395.618234241 20.5092291942 378.560762504 20.5092291942 c 0
 377.109888009 20.5092291942 375.683081681 20.5541110182 374.288085938 20.6446609407 c 0
 319.753741499 22.2434059095 277.602384995 43.0280145682 245.476843004 75.1535565598 c 2
 210.121503944 110.508895619 l 2
 141.340696847 179.289702717 118.517059388 300.056031434 118.517059388 395.816962469 c 0
 118.517059388 410.424253053 119.036109938 423.450199927 119.240209092 438.160007838 c 0
 120.483798823 527.78784671 122.225528522 653.317565103 182.515943072 713.607979653 c 2
 217.871282131 748.963318712 l 2
 239.638141385 770.730177966 269.03653989 783.993407987 308.798276999 783.993407987 c 0
 313.796013182 783.993407987 318.957474607 783.783868799 324.288085938 783.355339059 c 1
 334.167749353 784.828306432 343.618890528 785.535656928 352.655274722 785.535656928 c 0
 395.587235716 785.535656928 429.157258257 769.569266674 454.841533271 743.88499166 c 2
 490.196872331 708.5296526 l 2
 541.685376207 657.041148724 561.483402039 566.499351218 561.483402039 487.243312852 c 0
 561.483402039 473.036253527 560.847243217 459.191833149 559.643424997 446 c 1
 560.758371247 429.669880044 561.365214666 413.264221036 561.365214666 396.893231569 c 0
 561.365214666 293.778018968 537.289883376 192.038252885 464.465243875 119.213613384 c 2
 449.251630491 104 l 1
 467.643424997 104 l 1
 469.780353456 99.563544726 470.746255268 95.3853149412 470.746255268 91.4861419228 c 0
 470.746255268 87.6067501049 469.790128981 84.0035908259 468.079895152 80.6971799264 c 1
 480.583631604 53.287703567 525.691797668 29.6094174652 525.691797668 -5.98602503185 c 0
EndSplineSet
EndChar
StartChar: R
Encoding: 82 82 44
Width: 697
Flags: W
HStem: -51 70<145.242 215.586> -33 70<472.68 551.892> 751 70<205.846 412.127>
VStem: 89 70<502.781 679.731> 182 70<505.989 691.417> 236 71<29.9128 404.268> 505 71<480.11 660.276> 590 62<75.7983 145.556>
LayerCount: 2
Fore
SplineSet
620 147 m 0x73
 638 147 652 133 652 115 c 0
 652 110 652 106 650 102 c 2
 638 74 l 1
 629 65 620 57 612 48 c 0
 606 41 600 34 593 27 c 2
 558 -9 l 2
 544 -23 528 -33 510 -33 c 0
 490 -33 473 -24 458 -9 c 2
 423 26 l 2
 388 61 368 127 361 166 c 0
 350 225 351 287 344 349 c 0
 341 352 337 355 334 358 c 2
 299 393 l 2
 272 420 255 461 255 499 c 0
 255 506 255 513 258 516 c 2
 294 552 l 2
 295 553 296 553 298 553 c 0
 303 553 309 549 316 542 c 2
 351 507 l 2
 368 490 389 458 392 444 c 0
 395 437 397 431 399 424 c 1
 424 432 450 447 472 465 c 1
 492 491 505 519 505 548 c 0
 505 608 490 661 459 702 c 1
 421 731 368 749 298 749 c 1
 288 750 280 751 271 751 c 0
 244 751 223 744 205 733 c 1
 170 680 163 600 159 534 c 0
 158 516 143 500 124 500 c 0
 105 500 89 517 89 536 c 0
 89 537 89 537 89 538 c 0
 94 611 102 704 151 753 c 2
 186 788 l 2
 206 808 234 821 271 821 c 0
 280 821 288 820 298 819 c 1
 380 819 439 796 478 757 c 2
 514 721 l 2
 557 678 576 617 576 548 c 0
 576 512 556 476 526 446 c 2
 490 411 l 2
 468 389 442 371 414 359 c 1
 423 295 420 229 432 166 c 0
 438 134 451 84 476 47 c 1
 486 41 498 37 510 37 c 0
 522 37 532 42 542 49 c 0
 551 59 559 66 568 75 c 1
 575 92 583 111 590 128 c 0
 595 140 607 147 620 147 c 0x73
306 258 m 0
 306 233 307 210 307 181 c 0
 307 117 301 36 266 1 c 2
 231 -34 l 2
 220 -45 207 -51 190 -51 c 0
 170 -51 144 -38 126 -20 c 2
 94 12 l 1
 93 11 90 9 90 9 c 2
 55 44 l 0
 55 45 91 85 94 88 c 2
 129 124 l 2
 130 124 l 2
 165 89 l 2
 165 89 153 75 138 58 c 1
 140 58 l 1
 140 50 142 42 146 34 c 1
 161 25 177 19 190 19 c 0
 198 19 206 20 212 23 c 1
 233 64 236 128 236 181 c 0xb7
 236 210 235 233 235 258 c 0
 235 389 197 518 179 640 c 1
 180 648 181 656 182 664 c 0
 184 681 199 694 217 694 c 0
 236 694 252 678 252 659 c 0xbb
 252 652 251 646 250 640 c 1
 268 518 306 389 306 258 c 0
67 55 m 0
 66 52 64 48 64 44 c 0
 64 30 75 20 88 18 c 1024
EndSplineSet
EndChar
StartChar: S
Encoding: 83 83 45
Width: 581
Flags: HW
LayerCount: 2
Fore
SplineSet
229.990234375 678 m 0
 229.990234375 600.075195312 260.015625 549.286132812 303.953125 505.348632812 c 0
 312.4453125 496.856445312 321.494140625 488.647460938 330.952148438 480.620117188 c 1
 368.565429688 554.16796875 400 621.625976562 400 716 c 0
 400 732.7578125 395.69140625 740.48046875 390.745117188 745.426757812 c 0
 382.688476562 753.483398438 364.350585938 759.004882812 336.995117188 759.004882812 c 0
 304.740234375 759.004882812 280.665039062 758.333007812 265.110351562 755.3671875 c 0
 252.55078125 752.971679688 246.549804688 749.559570312 242.95703125 745.966796875 c 0
 240.064453125 743.07421875 237.171875 738.594726562 234.75390625 729.833007812 c 0
 231.740234375 718.915039062 229.990234375 701.803710938 229.990234375 678 c 0
352.995117188 150.995117188 m 0
 359.115234375 150.995117188 365.235351562 148.764648438 370.025390625 144.302734375 c 1
 370.025390625 144.302734375 379.3046875 135.78125 392.649414062 133.533203125 c 0
 395.107421875 135.27734375 397.081054688 136.959960938 398.6328125 138.51171875 c 0
 404.1640625 144.04296875 405.340820312 147.634765625 405.340820312 152.451171875 c 0
 405.340820312 155.250976562 404.671875 158.63671875 402.901367188 162.653320312 c 0
 400.614257812 167.840820312 396.505859375 173.75 391.0390625 179.216796875 c 0
 377.467773438 192.788085938 357.059570312 201.600585938 343.689453125 201.600585938 c 0
 336.756835938 201.600585938 332.3984375 199.673828125 329.21875 196.494140625 c 0
 325.439453125 192.713867188 319.990234375 183.307617188 319.990234375 162 c 0
 319.990234375 146.200195312 325.821289062 110.557617188 337.342773438 77.67578125 c 0
 346.62109375 51.1982421875 359.723632812 26.572265625 373.017578125 13.2783203125 c 0
 382.1171875 4.1787109375 389.875976562 0.9951171875 396.995117188 0.9951171875 c 0
 428.83203125 0.9951171875 458.500976562 15.5810546875 482.362304688 39.4423828125 c 0
 512.912109375 69.9921875 532 114.7734375 532 154 c 0
 532 224.181640625 504.57421875 270.758789062 463.283203125 312.049804688 c 0
 431.048828125 344.284179688 387.642578125 374.340820312 347.91796875 403.767578125 c 1
 326.346679688 360.295898438 306.436523438 315.088867188 293.251953125 261.94921875 c 0
 289.547851562 247.021484375 285.924804688 231.651367188 282.247070312 216.47265625 c 1
 285.452148438 222.15625 289.314453125 227.299804688 293.86328125 231.848632812 c 0
 307.95703125 245.942382812 325.262695312 251.600585938 344.140625 251.600585938 c 0
 375.130859375 251.600585938 405.10546875 235.860351562 426.39453125 214.572265625 c 0
 438.553710938 202.413085938 448.543945312 187.685546875 453.01953125 170.31640625 c 0
 454.459960938 164.725585938 455.201171875 158.948242188 455.201171875 153.124023438 c 0
 455.201171875 135.606445312 448.5 117.668945312 433.98828125 103.157226562 c 0
 427.584960938 96.7529296875 420.017578125 91.1650390625 411.3046875 86.2353515625 c 0
 407.499023438 84.08203125 403.247070312 83.0048828125 398.995117188 83.0048828125 c 0
 382.053710938 83.0048828125 367.94140625 87.99609375 357.645507812 93.14453125 c 0
 344.716796875 99.609375 337.133789062 106.608398438 335.96484375 107.697265625 c 0
 330.823242188 112.487304688 328 119.28515625 328 126 c 0
 328 132.399414062 330.439453125 138.799804688 335.317382812 143.677734375 c 0
 340.1953125 148.555664062 346.595703125 150.995117188 352.995117188 150.995117188 c 0
180 678 m 0
 180 724.395507812 184.525390625 758.24609375 207.6015625 781.322265625 c 0
 220.822265625 794.54296875 237.723632812 801.041015625 255.688476562 804.467773438 c 0
 278.2890625 808.77734375 304.279296875 808.995117188 336.995117188 808.995117188 c 0
 368.083984375 808.995117188 402.051757812 804.831054688 426.100585938 780.782226562 c 0
 441.973632812 764.909179688 449.990234375 742.38671875 449.990234375 716 c 0
 449.990234375 605.306640625 410.54296875 526.049804688 370.94140625 449.002929688 c 1
 380.276367188 442.000976562 389.7890625 435.036132812 399.370117188 428.03125 c 0
 484.0234375 366.137695312 581.990234375 295.889648438 581.990234375 154 c 0
 581.990234375 99.6123046875 557.455078125 43.82421875 517.717773438 4.0869140625 c 0
 486.524414062 -27.10546875 444.780273438 -48.9951171875 396.995117188 -48.9951171875 c 0
 372.799804688 -48.9951171875 352.770507812 -37.185546875 337.662109375 -22.0771484375 c 0
 315.490234375 0.095703125 300.8125 30.7138671875 290.168945312 61.0888671875 c 0
 276.790039062 99.2705078125 270 137.204101562 270 162 c 0
 270 164.626953125 270.059570312 167.211914062 270.180664062 169.752929688 c 1
 254.634765625 114.725585938 232.706054688 59.5166015625 190.325195312 17.1357421875 c 0
 177.970703125 4.78125 163.916015625 -6.3388671875 147.990234375 -15.8203125 c 1
 144.391601562 -24.263671875 135.104492188 -30.9951171875 124.995117188 -30.9951171875 c 0
 118.595703125 -30.9951171875 112.1953125 -28.5556640625 107.317382812 -23.677734375 c 0
 102.439453125 -18.7998046875 100 -12.3994140625 100 -6 c 2
 100 0 l 2
 100 9.380859375 105.885742188 18.2705078125 113.51171875 22.2119140625 c 0
 129.65234375 30.5537109375 143.217773438 40.73828125 154.970703125 52.4912109375 c 0
 206.71484375 104.236328125 223.96484375 190.322265625 244.73828125 274.05078125 c 0
 260.137695312 336.11328125 283.750976562 387.637695312 307.584960938 434.955078125 c 1
 240.376953125 490.0546875 180 561.619140625 180 678 c 0
EndSplineSet
EndChar
StartChar: T
Encoding: 84 84 46
Width: 521
Flags: HW
LayerCount: 2
Fore
SplineSet
195.065429688 650 m 0
 195.065429688 643.600585938 192.625976562 637.200195312 187.748046875 632.322265625 c 0
 182.869140625 627.444335938 176.469726562 625.004882812 170.0703125 625.004882812 c 0
 159.81640625 625.004882812 152.165039062 631.9453125 146.404296875 637.705078125 c 0
 118.693359375 665.416992188 108.03125 705.291015625 101.4765625 741.522460938 c 0
 100.569335938 746.534179688 100 751.754882812 100 756.986328125 c 0
 100 769.69921875 103.362304688 782.483398438 113.416015625 792.537109375 c 0
 127.083984375 806.205078125 145.71484375 808.995117188 170.0703125 808.995117188 c 0
 189.274414062 808.995117188 207.983398438 803.775390625 226.6171875 796.693359375 c 0
 249.961914062 787.821289062 273.647460938 775.58984375 297.173828125 763.522460938 c 0
 334.810546875 744.217773438 372.131835938 725.750976562 401.065429688 720.6484375 c 0
 407.176757812 719.5703125 412.72265625 719.010742188 417.8125 719.010742188 c 0
 422.3671875 719.010742188 426.555664062 719.458007812 430.458007812 720.383789062 c 1
 437.416992188 762.135742188 l 2
 439.330078125 773.615234375 443.37890625 784.349609375 451.911132812 792.881835938 c 0
 458.52734375 799.499023438 468.130859375 804.044921875 478.407226562 804.044921875 c 0
 490.547851562 804.044921875 499.317382812 798.516601562 505.75 792.083984375 c 0
 512.646484375 785.188476562 517.040039062 776.79296875 519.94140625 767.430664062 c 0
 520.690429688 765.014648438 521.065429688 762.506835938 521.065429688 760 c 0
 521.065429688 757.116210938 520.569335938 754.231445312 519.579101562 751.487304688 c 0
 509.471679688 723.486328125 496.1875 702.338867188 475.651367188 687.434570312 c 1
 475.065429688 683.916992188 l 1
 475.065429688 30 l 2
 475.065429688 23.7958984375 472.237304688 18.388671875 469.512695312 13.7431640625 c 0
 460.25 -2.0537109375 446.221679688 -26.53515625 418.0703125 -26.53515625 c 0
 407.4453125 -26.53515625 397.088867188 -22.689453125 388.282226562 -16.859375 c 0
 368.84375 -3.9892578125 353.865234375 5.6865234375 333.931640625 19.3779296875 c 0
 327.552734375 23.7587890625 323.075195312 31.869140625 323.075195312 40 c 2
 323.075195312 74 l 2
 323.075195312 80.3994140625 325.513671875 86.7998046875 330.392578125 91.677734375 c 0
 335.270507812 96.5556640625 341.669921875 98.9951171875 348.0703125 98.9951171875 c 0
 354.469726562 98.9951171875 360.869140625 96.5556640625 365.748046875 91.677734375 c 0
 370.625976562 86.7998046875 373.065429688 80.3994140625 373.065429688 74 c 2
 373.065429688 53.2265625 l 1
 387.30078125 43.609375 400.948242188 34.7294921875 415.857421875 24.859375 c 0
 416.151367188 24.6640625 416.423828125 24.4931640625 416.673828125 24.3427734375 c 0
 418.646484375 26.625 421.724609375 31.259765625 425.075195312 36.8486328125 c 1
 425.075195312 669.548828125 l 1
 422.189453125 669.33984375 419.298828125 669.239257812 416.409179688 669.239257812 c 0
 408.318359375 669.239257812 400.237304688 670.02734375 392.327148438 671.421875 c 0
 329.047851562 682.583007812 265.147460938 728.553710938 208.807617188 749.965820312 c 0
 193.13671875 755.921875 179.661132812 759.004882812 170.0703125 759.004882812 c 0
 159.833984375 759.004882812 152.922851562 757.883789062 149.849609375 757.1484375 c 0
 149.873046875 755.877929688 150.060546875 753.809570312 150.663085938 750.477539062 c 0
 157.12890625 714.7421875 167.708007812 683.986328125 185.720703125 669.498046875 c 0
 191.427734375 664.907226562 195.065429688 657.38671875 195.065429688 650 c 0
EndSplineSet
EndChar
StartChar: U
Encoding: 85 85 47
Width: 1024
Flags: HW
LayerCount: 2
Fore
SplineSet
373.649365148 385.312572217 m 0
 373.649365148 481.995090866 395.144660941 576.284373783 395.144660941 673 c 0
 395.144660941 691.547784963 391.431935712 707.918193299 385.359301326 721.225601892 c 1
 381.884351069 722.295561678 378.351648586 722.849016934 374.817637271 722.849016934 c 0
 372.512902909 722.849016934 370.207611887 722.613626723 367.917419884 722.132597294 c 0
 367.2083307 720.483163729 366.520502837 718.77260403 365.855339059 717 c 0
 363.201125981 709.926695305 359.461187369 704.158113013 354.885593967 699.582519611 c 2
 319.530254908 664.227180551 l 2
 309.783319837 654.480245481 296.244385866 650.146804854 281.330721138 650.146804854 c 0
 254.583853655 650.146804854 223.415230412 664.085109467 201.768951133 685.731388747 c 2
 166.413612073 721.086727806 l 2
 152.432003793 735.068336087 142.423148939 752.265736917 140.144660941 771 c 0
 139.976994221 772.328099242 139.889289511 773.754337259 139.889289511 775.200898162 c 0
 139.889289511 794.571304672 155.615603528 810.297618689 174.986010038 810.297618689 c 0
 192.909855645 810.297618689 207.713559607 796.832448035 209.824648435 779.474580213 c 2
 210.855339059 771 l 2
 212.182545067 760.087400612 216.132660536 749.696257803 221.963030832 740.158395299 c 1
 240.582832785 728.063048773 262.099715539 720.857482973 281.330721141 720.857482973 c 0
 286.952236517 720.857482973 292.378427852 721.473185456 297.479836244 722.762433646 c 1
 301.860286341 732.778944482 307.033123113 740.502379968 312.675098248 746.144355104 c 2
 348.030437308 781.499694164 l 2
 356.291901629 789.761158485 365.559261014 793.559694916 374.817637432 793.559694916 c 0
 385.50606044 793.559694916 396.182511153 788.497091653 405.285459864 779.394142941 c 2
 440.640798923 744.038803882 l 2
 455.283883817 729.395718989 465.855339059 704.2977441 465.855339059 673 c 0
 465.855339059 576.283672733 444.360043267 481.995791685 444.360043267 385.312572217 c 0
 444.360043267 364.774389353 445.720355891 345.87651935 447.004704143 325.620516629 c 0
 451.072730616 261.461940346 460.535338446 112.22312632 504.608431512 39.833284863 c 1
 511.959798503 36.2751747252 519.906721207 34.3553390593 528.5 34.3553390593 c 0
 559.135984425 34.3553393715 585.658455018 43.7347036155 608.475234275 60.5071329191 c 1
 626.397765552 83.9642395034 641.14272331 113.151808554 653.066840994 146.332370136 c 1
 627.619093274 230.93747089 618.275367051 330.393231147 618.275367051 430.888781675 c 0
 618.275367051 554.605780351 632.436082267 679.898614359 648.144660941 781 c 1
 718.855339059 781 l 1
 746.371860904 710.050514868 765.892570407 579.18545376 765.892570407 444.536764007 c 0
 765.892570407 338.301047318 753.740999112 229.710035438 723.777519113 146.332370136 c 1
 734.733748671 109.906636018 748.675071227 76.2336675756 766.140998704 46.4156546498 c 1
 775.267331384 42.4867746936 785.455106 40.5975791656 796.460455205 40.5975791656 c 0
 802.411064537 40.5975791656 808.600698473 41.1499008981 814.990806828 42.230755302 c 1
 830.550366324 69.4599844203 l 2
 835.839438213 78.7158602274 845.807460074 84.959846636 857.222334895 84.959846636 c 0
 874.16448658 84.959846636 887.919365571 71.2049676457 887.919365571 54.2628159603 c 0
 887.919365571 48.735539096 886.455362186 43.547500259 883.855339059 39 c 2
 867.855339059 11 l 1
 832.5 -24.3553390593 l 1
 819.806557216 -28.1403169546 807.706632415 -30.1130989438 796.460455359 -30.1130989438 c 0
 776.677788052 -30.1130989438 759.536856846 -24.0087555586 746.454097091 -10.9259958035 c 2
 711.098758031 24.4293432558 l 2
 707.455889023 28.0722122644 704.127663517 32.256141058 701.144660941 37 c 0
 695.078920411 46.6463369831 689.410009043 56.7327524705 684.118034681 67.2186079585 c 1
 677.30041164 57.577627467 669.996328238 48.7981456504 662.184076048 40.9858934598 c 2
 626.828736989 5.63055440052 l 2
 600.229279858 -20.9689027303 567.738659922 -36.3553390593 528.5 -36.3553390593 c 0
 512.080353279 -36.3553390593 498.020541667 -29.3460516323 485.966175007 -17.291684973 c 2
 450.610835948 18.0636540864 l 2
 392.083974887 76.590515147 380.832209455 254.046894934 376.294026025 325.620516629 c 0
 375.005526881 345.941984833 373.649365148 364.720501415 373.649365148 385.312572217 c 0
695.18189235 444.536761015 m 0
 695.18189235 475.778251362 694.131008312 506.816052656 692.173194883 536.949034267 c 1
 690.147139005 501.86972763 688.98604464 466.314648621 688.98604464 430.888778732 c 0
 688.98604464 402.08850904 689.753440727 373.373636863 691.447349205 345.069227178 c 1
 693.994664638 377.893911777 695.18189235 411.330394424 695.18189235 444.536761015 c 0
EndSplineSet
EndChar
StartChar: V
Encoding: 86 86 48
Width: 828
Flags: HW
LayerCount: 2
Fore
SplineSet
124.995117188 658.004882812 m 0
 118.595703125 658.004882812 112.1953125 660.444335938 107.317382812 665.322265625 c 0
 102.439453125 670.200195312 100 676.600585938 100 683 c 0
 100 683.747070312 100.033203125 684.493164062 100.099609375 685.23828125 c 0
 105.333984375 743.892578125 153.311523438 819.088867188 226.112304688 819.088867188 c 0
 236.061523438 819.088867188 242.055664062 817.297851562 248.181640625 811.171875 c 0
 283.65625 775.697265625 305.124023438 719.736328125 311.717773438 671.706054688 c 0
 319.740234375 621.928710938 347.44921875 450.81640625 378.8359375 300.532226562 c 0
 392.80078125 233.663085938 407.5390625 170.84765625 421.301757812 125.450195312 c 0
 425.25390625 112.411132812 429.142578125 100.806640625 432.801757812 91.1171875 c 1
 438.428710938 124.479492188 441.670898438 173.282226562 445.16015625 228.78515625 c 0
 450.868164062 319.557617188 457.596679688 428.926757812 481.000976562 527.84765625 c 0
 499.681640625 606.8046875 528.953125 680.3515625 580.295898438 731.693359375 c 0
 621.4609375 772.858398438 676.556640625 797.995117188 745.995117188 797.995117188 c 0
 753.560546875 797.995117188 761.21875 794.168945312 765.76953125 788.298828125 c 0
 780.020507812 769.918945312 794.765625 753.088867188 807.793945312 730.9453125 c 0
 819.076171875 711.767578125 828.309570312 689.043945312 828.309570312 663.26171875 c 0
 828.309570312 660.149414062 828.174804688 656.9921875 827.893554688 653.791992188 c 0
 825.776367188 629.7421875 827.669921875 607.473632812 822.338867188 584.288085938 c 0
 819.59765625 572.364257812 814.501953125 559.594726562 803.997070312 549.08984375 c 0
 789.723632812 534.81640625 769.466796875 529.004882812 745.995117188 529.004882812 c 0
 717.8125 529.004882812 696.229492188 534.208984375 681.328125 549.110351562 c 0
 667.1875 563.250976562 664.724609375 580.009765625 662.57421875 590.23828125 c 0
 659.9453125 602.734375 658.102539062 609.265625 652.850585938 614.801757812 c 0
 648.283203125 619.615234375 646 625.807617188 646 632 c 0
 646 638.399414062 648.439453125 644.799804688 653.317382812 649.677734375 c 0
 658.1953125 654.555664062 664.595703125 656.995117188 670.995117188 656.995117188 c 0
 677.627929688 656.995117188 684.326171875 654.271484375 689.139648438 649.198242188 c 0
 705.321289062 632.141601562 708.986328125 612.483398438 711.48828125 600.586914062 c 0
 713.922851562 589.014648438 715.743164062 585.40625 716.68359375 584.465820312 c 0
 717.40625 583.743164062 723.036132812 578.995117188 745.995117188 578.995117188 c 0
 761.974609375 578.995117188 766.810546875 582.614257812 768.641601562 584.4453125 c 0
 770.208007812 586.010742188 772.133789062 589.063476562 773.625 595.55078125 c 0
 777.072265625 610.541992188 776.358398438 638.458984375 778.096679688 658.208007812 c 0
 778.245117188 659.895507812 778.319335938 661.581054688 778.319335938 663.265625 c 0
 778.319335938 676.986328125 773.453125 690.693359375 764.682617188 705.599609375 c 0
 756.583007812 719.3671875 745.236328125 733.657226562 734.078125 747.713867188 c 1
 683.250976562 745.192382812 645.717773438 726.405273438 615.650390625 696.337890625 c 0
 574.740234375 655.427734375 547.301757812 590.916015625 529.642578125 516.275390625 c 0
 507.62109375 423.200195312 500.751953125 316.29296875 495.051757812 225.625 c 0
 491.109375 162.9296875 487.896484375 108.322265625 479.435546875 68.744140625 c 0
 477.252929688 58.53515625 474.84765625 50.0263671875 471.640625 42.474609375 c 0
 466.169921875 29.58984375 455.478515625 15.2392578125 436.635742188 15.2392578125 c 0
 424.943359375 15.2392578125 416.623046875 21.671875 411.724609375 26.5703125 c 0
 403.32421875 34.970703125 398.272460938 44.73046875 392.963867188 56.51171875 c 0
 386.328125 71.23828125 379.948242188 89.50390625 373.466796875 110.88671875 c 0
 358.912109375 158.8984375 344.040039062 222.579101562 329.90625 290.252929688 c 0
 298.1328125 442.391601562 270.319335938 614.362304688 262.3203125 663.997070312 c 0
 262.287109375 664.200195312 262.256835938 664.404296875 262.229492188 664.607421875 c 0
 257.40625 700.067382812 240.399414062 743.087890625 219.27734375 768.685546875 c 1
 205.5625 766.981445312 193.420898438 760.08984375 182.497070312 749.166015625 c 0
 163.850585938 730.51953125 151.661132812 700.599609375 149.890625 680.76171875 c 0
 148.793945312 668.475585938 137.853515625 658.004882812 124.995117188 658.004882812 c 0
EndSplineSet
EndChar
StartChar: W
Encoding: 87 87 49
Width: 914
Flags: HW
LayerCount: 2
Fore
SplineSet
124.995117188 688.004882812 m 0
 118.595703125 688.004882812 112.1953125 690.444335938 107.317382812 695.322265625 c 0
 102.439453125 700.200195312 100 706.600585938 100 713 c 0
 100 719.072265625 102.196289062 725.14453125 106.587890625 729.916992188 c 0
 108.787109375 732.307617188 111.23046875 735.676757812 114.374023438 740.168945312 c 0
 118.983398438 746.75390625 127.485351562 757.948242188 135.779296875 765.028320312 c 0
 151.840820312 778.7421875 159.7421875 796.275390625 182.108398438 804.484375 c 0
 193.877929688 808.802734375 206.740234375 809.995117188 223.995117188 809.995117188 c 0
 241.12109375 809.995117188 254.307617188 801.213867188 263.088867188 792.432617188 c 0
 278.995117188 776.526367188 288.736328125 753.939453125 303.095703125 739.580078125 c 0
 310.467773438 732.208984375 316.520507812 728.995117188 325.995117188 728.995117188 c 0
 328.317382812 728.995117188 330.639648438 728.673828125 332.889648438 728.03125 c 0
 333.4296875 728.396484375 334.267578125 729.041015625 335.276367188 730.049804688 c 0
 346.911132812 741.685546875 354.446289062 765.653320312 361.88671875 781.450195312 c 0
 363.202148438 784.2421875 363.583007812 786.845703125 369.14453125 792.407226562 c 0
 370.9453125 794.208007812 373.83203125 797.055664062 379.840820312 798.94140625 c 0
 382.036132812 799.630859375 384.71875 800.064453125 387.5625 800.064453125 c 0
 395.40234375 800.064453125 401.97265625 796.249023438 405.59765625 792.624023438 c 0
 410.763671875 787.458007812 411.634765625 783.524414062 412.32421875 781.220703125 c 0
 414.01953125 775.553710938 414.037109375 771.815429688 414.037109375 765.333984375 c 0
 414.037109375 763.846679688 414.016601562 762.270507812 413.986328125 760.552734375 c 0
 411.9765625 647.2578125 392.28515625 538.913085938 373.001953125 432.268554688 c 0
 352.762695312 320.329101562 332.990234375 210.282226562 332.990234375 98 c 0
 332.990234375 58.904296875 339.234375 42.421875 346.185546875 35.4716796875 c 0
 349.83203125 31.8251953125 355.42578125 28.451171875 365.829101562 25.818359375 c 0
 378.77734375 22.541015625 398.491210938 20.9951171875 424.995117188 20.9951171875 c 0
 444.055664062 20.9951171875 455.662109375 23.7177734375 463.444335938 27.109375 c 0
 476.86328125 32.9580078125 482.828125 41.8134765625 492.034179688 53.6953125 c 0
 497.580078125 60.8544921875 504.114257812 69.3623046875 512.83984375 78.087890625 c 0
 517.37890625 82.626953125 522.494140625 87.1845703125 528.297851562 91.5927734375 c 1
 544.430664062 177.634765625 l 2
 546.505859375 188.704101562 556.905273438 197.995117188 568.995117188 197.995117188 c 0
 575.39453125 197.995117188 581.794921875 195.555664062 586.672851562 190.677734375 c 0
 591.409179688 185.94140625 593.845703125 179.771484375 593.984375 173.559570312 c 2
 596.913085938 41.75 l 1
 599.374023438 32.9521484375 602.015625 23.568359375 604.620117188 17.5224609375 c 0
 606.580078125 12.9716796875 608.581054688 10.1533203125 609.592773438 9.142578125 c 0
 610.645507812 8.0888671875 610.7421875 8.0234375 612.692382812 8.0234375 c 0
 614.451171875 8.0234375 617.875 8.4248046875 623.255859375 10.42578125 c 0
 625.6015625 11.298828125 628.052734375 11.8076171875 630.521484375 11.9521484375 c 0
 676.524414062 14.6474609375 708.680664062 30.4814453125 733.087890625 54.8896484375 c 0
 769.265625 91.0673828125 789.758789062 150.014648438 799.131835938 218.48046875 c 0
 804.341796875 256.5390625 806.140625 296.93359375 806.140625 336.7890625 c 0
 806.140625 399.159179688 802.0390625 453.712890625 799.123046875 508.991210938 c 1
 795.225585938 509.130859375 791.502929688 509.21484375 788.096679688 509.21484375 c 0
 782.470703125 509.21484375 777.706054688 508.986328125 774.43359375 508.399414062 c 0
 764.442382812 506.608398438 754.3984375 505.728515625 744.435546875 505.728515625 c 0
 702.189453125 505.728515625 661.405273438 521.540039062 632.2734375 550.671875 c 0
 609.012695312 573.931640625 593.68359375 605.6953125 592.025390625 642.877929688 c 0
 592.008789062 643.251953125 592 643.625976562 592 644 c 0
 592 667.221679688 598.247070312 694.13671875 609.670898438 720.33984375 c 0
 618.809570312 741.299804688 631.391601562 761.904296875 648.3046875 778.818359375 c 0
 667.696289062 798.208984375 693.69140625 812.995117188 724.995117188 812.995117188 c 0
 741.645507812 812.995117188 754.823242188 804.506835938 764.361328125 794.96875 c 0
 777.732421875 781.59765625 787.171875 764.052734375 795.67578125 744.18359375 c 0
 815.963867188 696.782226562 832.043945312 625.462890625 841.293945312 570.65625 c 1
 841.47265625 570.770507812 841.6484375 570.8828125 841.821289062 570.993164062 c 2
 873.19140625 599.510742188 l 2
 877.946289062 603.833984375 883.970703125 605.995117188 889.995117188 605.995117188 c 0
 896.39453125 605.995117188 902.794921875 603.555664062 907.672851562 598.677734375 c 0
 912.55078125 593.799804688 914.990234375 587.399414062 914.990234375 581 c 0
 914.990234375 574.173828125 912.034179688 567.248046875 906.798828125 562.489257812 c 2
 873.798828125 532.489257812 l 2
 870.622070312 529.600585938 869.145507812 529.114257812 864.646484375 526.220703125 c 0
 860.065429688 523.2734375 854.080078125 519.415039062 848.763671875 516.19921875 c 1
 849.672851562 504.560546875 850.087890625 492.73828125 850.834960938 479.850585938 c 0
 853.2890625 437.579101562 856.209960938 388.234375 856.209960938 337.021484375 c 0
 856.209960938 295.536132812 854.29296875 252.82421875 848.657226562 211.653320312 c 0
 838.624023438 138.3671875 816.884765625 67.9755859375 768.443359375 19.5341796875 c 0
 736.018554688 -12.890625 692.243164062 -33.7216796875 637.0703125 -37.7158203125 c 0
 628.90234375 -40.42578125 620.829101562 -41.9716796875 612.803710938 -41.9716796875 c 0
 596.298828125 -41.9716796875 583.491210938 -35.4677734375 574.237304688 -26.212890625 c 0
 559.185546875 -11.1611328125 553.998046875 9.91796875 547.958984375 31.1220703125 c 0
 547.022460938 34.41015625 547.00390625 37.5302734375 546.91796875 41.43359375 c 1
 534.849609375 28.958984375 526.995117188 15.337890625 513.926757812 2.26953125 c 0
 506.013671875 -5.642578125 496.033203125 -13.2392578125 483.454101562 -18.7216796875 c 0
 467.703125 -25.5859375 448.731445312 -28.9951171875 424.995117188 -28.9951171875 c 0
 374.045898438 -28.9951171875 336.365234375 -25.4189453125 310.830078125 0.1162109375 c 0
 287.547851562 23.3994140625 283 56.6982421875 283 98 c 0
 283 216.184570312 303.584960938 329.338867188 323.814453125 441.21875 c 0
 338.60546875 523.025390625 353.216796875 604.1640625 360.090820312 686.24609375 c 1
 352.46484375 681.400390625 343.126953125 677.875976562 332.786132812 677.875976562 c 0
 329.3984375 677.875976562 325.903320312 678.254882812 322.326171875 679.087890625 c 0
 298.814453125 680.159179688 280.547851562 691.41796875 267.740234375 704.225585938 c 0
 256.755859375 715.209960938 249.092773438 727.123046875 242.497070312 737.083007812 c 0
 236.53515625 746.086914062 231.340820312 753.470703125 227.733398438 757.078125 c 0
 225.4609375 759.349609375 224.1875 759.918945312 223.971679688 760.004882812 c 0
 209.247070312 760.002929688 202.060546875 758.5390625 199.383789062 757.556640625 c 0
 195.23828125 756.03515625 193.158203125 752.720703125 189.58203125 748.598632812 c 0
 184.151367188 742.337890625 175.696289062 733.362304688 168.2109375 726.971679688 c 0
 158.211914062 718.434570312 153.12109375 705.770507812 142.672851562 695.322265625 c 0
 137.794921875 690.444335938 131.39453125 688.004882812 124.995117188 688.004882812 c 0
744.779296875 555.755859375 m 0
 751.659179688 555.755859375 758.6171875 556.356445312 765.556640625 557.600585938 c 0
 773.08984375 558.951171875 780.538085938 559.370117188 787.760742188 559.370117188 c 0
 789.284179688 559.370117188 790.797851562 559.3515625 792.30078125 559.319335938 c 1
 783.85546875 610.291992188 768.12890625 681.452148438 749.71484375 724.475585938 c 0
 742.490234375 741.356445312 734.551757812 754.067382812 729.005859375 759.61328125 c 0
 726.421875 762.197265625 725.115234375 762.844726562 724.672851562 763.00390625 c 0
 690.771484375 762.782226562 667.439453125 727.7109375 655.5 700.325195312 c 0
 646.645507812 680.014648438 642.108398438 658.500976562 641.9921875 644.545898438 c 0
 644.697265625 590.696289062 690.983398438 555.755859375 744.779296875 555.755859375 c 0
EndSplineSet
EndChar
StartChar: X
Encoding: 88 88 50
Width: 935
Flags: HW
LayerCount: 2
Fore
SplineSet
150.528320312 531.274414062 m 0
 138.743164062 574.966796875 135.97265625 616.396484375 135.97265625 663.62109375 c 0
 135.97265625 673.08203125 136 682.389648438 136 692 c 0
 136 694.1484375 136.275390625 696.296875 136.825195312 698.388671875 c 0
 148.6328125 743.291015625 194.78515625 773.567382812 233.49609375 787.513671875 c 0
 262.779296875 798.063476562 292.7109375 800.995117188 322.995117188 800.995117188 c 0
 365.30859375 800.995117188 393.749023438 791.967773438 412.836914062 772.879882812 c 0
 426.346679688 759.370117188 432.556640625 744.2421875 438.115234375 731.778320312 c 0
 445.845703125 714.443359375 453.514648438 699.4296875 468.099609375 687.124023438 c 0
 472.719726562 683.225585938 475.8984375 677.43359375 476.737304688 671.55859375 c 2
 488.737304688 587.55859375 l 2
 488.90625 586.37890625 488.990234375 585.189453125 488.990234375 584 c 0
 488.990234375 583.609375 488.981445312 583.219726562 488.962890625 582.830078125 c 2
 482.962890625 453.830078125 l 2
 482.846679688 451.330078125 482.357421875 448.844726562 481.49609375 446.463867188 c 2
 451.30859375 363.090820312 l 1
 463 369.908203125 474.60546875 376.772460938 486.080078125 383.711914062 c 1
 486.112304688 392.814453125 486.418945312 401.864257812 487 410.833007812 c 0
 487.051757812 469.458984375 492.588867188 542.084960938 511.986328125 610.549804688 c 0
 527.552734375 665.490234375 552.116210938 718.383789062 591.936523438 758.204101562 c 0
 630.92578125 797.193359375 684.166015625 821.995117188 751.995117188 821.995117188 c 0
 759.490234375 821.995117188 768.71484375 823.821289062 778.578125 823.821289062 c 0
 794.392578125 823.821289062 806.002929688 821.088867188 815.239257812 811.853515625 c 0
 821.3671875 805.724609375 824.990234375 796.6171875 824.990234375 788 c 0
 824.990234375 776.982421875 825.993164062 764.8046875 825.993164062 753.16796875 c 0
 825.993164062 746.78125 825.694335938 740.181640625 824.740234375 733.462890625 c 0
 798.307617188 547.326171875 670.62109375 439.815429688 536.977539062 356.159179688 c 1
 542.833984375 267.435546875 577.568359375 176.428710938 636.1640625 117.833007812 c 0
 675.025390625 78.9716796875 723.87109375 53.9990234375 783.28125 50.9619140625 c 0
 791.580078125 50.5380859375 799.559570312 50.2919921875 807.1015625 50.2919921875 c 0
 834.540039062 50.2919921875 859.083984375 53.931640625 871.5546875 66.4013671875 c 0
 878.059570312 72.90625 883.985351562 83.78125 885.580078125 104.469726562 c 1
 876.978515625 110.076171875 865.728515625 116.875 857.012695312 122.154296875 c 1
 825.859375 127.346679688 l 2
 814.529296875 129.235351562 805 139.748046875 805 152 c 0
 805 158.399414062 807.439453125 164.799804688 812.317382812 169.677734375 c 0
 817.1953125 174.555664062 823.595703125 176.995117188 829.995117188 176.995117188 c 0
 831.37890625 176.995117188 832.762695312 176.880859375 834.130859375 176.653320312 c 2
 870.130859375 170.653320312 l 2
 873.422851562 170.104492188 876.625976562 168.895507812 879.526367188 167.026367188 c 0
 888.533203125 161.221679688 900.307617188 154.583007812 910.724609375 147.850585938 c 0
 918.828125 142.61328125 926.543945312 138.524414062 931.971679688 129.858398438 c 0
 933.283203125 127.762695312 935.990234375 123.849609375 935.990234375 116 c 0
 935.990234375 79.7255859375 926.750976562 50.8876953125 906.91015625 31.0458984375 c 0
 892.166992188 16.302734375 873.69921875 8.537109375 854.877929688 4.505859375 c 0
 839.815429688 1.2802734375 824.151367188 0.228515625 808.161132812 0.228515625 c 0
 799.098632812 0.228515625 789.930664062 0.56640625 780.708984375 1.0380859375 c 0
 607.446289062 9.8935546875 507.799804688 171.178710938 489.330078125 327.325195312 c 1
 467.92578125 314.739257812 446.373046875 302.458007812 424.940429688 290.263671875 c 1
 418.49609375 272.463867188 l 2
 418.169921875 271.563476562 417.790039062 270.677734375 417.357421875 269.8125 c 2
 369.357421875 173.8125 l 2
 368.50390625 172.104492188 367.44140625 170.473632812 366.171875 168.958984375 c 0
 357.366210938 158.452148438 344.325195312 135.313476562 329.9296875 108.857421875 c 0
 308.416015625 69.3212890625 283.182617188 21.7744140625 249.633789062 -11.7744140625 c 0
 228.586914062 -32.8212890625 202.240234375 -49.9951171875 169.995117188 -49.9951171875 c 0
 156.353515625 -49.9951171875 146.698242188 -42.8955078125 140.469726562 -36.6669921875 c 0
 126.598632812 -22.7958984375 119.158203125 -4.185546875 112.913085938 14.04296875 c 0
 104.961914062 37.2490234375 100 58.8818359375 100 74 c 0
 100 75.9453125 100.225585938 77.890625 100.67578125 79.79296875 c 0
 108.745117188 113.856445312 128.534179688 148.233398438 156.141601562 173.465820312 c 0
 156.258789062 173.572265625 156.376953125 173.678710938 156.49609375 173.783203125 c 0
 223.120117188 232.405273438 303.712890625 278.813476562 384.197265625 324.620117188 c 1
 433.204101562 459.971679688 l 1
 438.916992188 582.793945312 l 1
 428.5234375 655.547851562 l 1
 409.162109375 674.374023438 399.2421875 696.162109375 392.454101562 711.3828125 c 0
 386.703125 724.278320312 382.495117188 732.510742188 377.481445312 737.524414062 c 0
 371.254882812 743.750976562 359.240234375 751.004882812 322.995117188 751.004882812 c 0
 295.875 751.004882812 272.2578125 748.327148438 250.494140625 740.486328125 c 0
 233.266601562 734.279296875 213.583007812 722.96875 200.662109375 710.047851562 c 0
 193.356445312 702.7421875 188.41796875 695.201171875 185.989257812 688.288085938 c 0
 185.983398438 680.01171875 185.962890625 671.764648438 185.962890625 663.622070312 c 0
 185.962890625 618.368164062 188.801757812 579.203125 200.026367188 539.89453125 c 0
 200.668945312 537.64453125 200.990234375 535.322265625 200.990234375 533 c 0
 200.990234375 531.493164062 200.85546875 529.986328125 200.584960938 528.5 c 0
 200.85546875 527.013671875 200.990234375 525.506835938 200.990234375 524 c 0
 200.990234375 517.600585938 198.55078125 511.200195312 193.672851562 506.322265625 c 0
 188.794921875 501.444335938 182.39453125 499.004882812 175.995117188 499.004882812 c 0
 160.60546875 499.004882812 150.403320312 511.745117188 150.403320312 528.014648438 c 0
 150.403320312 529.124023438 150.448242188 530.2109375 150.528320312 531.274414062 c 0
775.341796875 773.606445312 m 1
 767.538085938 773.288085938 760.125 772.004882812 751.995117188 772.004882812 c 0
 696.776367188 772.004882812 657.500976562 753.057617188 627.291992188 722.848632812 c 0
 596.104492188 691.661132812 574.212890625 646.749023438 560.078125 596.860351562 c 0
 543.045898438 536.747070312 537.377929688 470.318359375 537.009765625 415.764648438 c 1
 581.287109375 444.944335938 622.3984375 476.103515625 657.515625 511.219726562 c 0
 718.197265625 571.90234375 761.5390625 643.990234375 775.25 740.537109375 c 0
 775.73046875 743.919921875 775.91015625 748.322265625 775.91015625 753.356445312 c 0
 775.91015625 759.3671875 775.602539062 766.962890625 775.341796875 773.606445312 c 1
150.205078125 71.7265625 m 0
 151.095703125 64.953125 154.716796875 46.3076171875 160.200195312 30.302734375 c 0
 164.74609375 17.037109375 171.063476562 5.0283203125 174.520507812 0.275390625 c 1
 186.522460938 1.74609375 199.774414062 9.0771484375 214.278320312 23.5810546875 c 0
 239.888671875 49.19140625 264.536132812 93.3125 286.000976562 132.758789062 c 0
 299.856445312 158.220703125 312.099609375 181.475585938 325.87109375 198.6640625 c 1
 350.169921875 247.26171875 l 1
 291.34375 212.6328125 235.889648438 177.004882812 189.678710938 136.37890625 c 0
 170.641601562 118.918945312 156.40625 94.763671875 150.205078125 71.7265625 c 0
EndSplineSet
EndChar
StartChar: Y
Encoding: 89 89 51
Width: 740
Flags: HW
LayerCount: 2
Fore
SplineSet
306.923828125 630.8203125 m 0
 306.923828125 662.842773438 308.384765625 688.6015625 308.384765625 716.6640625 c 0
 308.384765625 718.53125 308.372070312 720.310546875 308.345703125 722 c 1
 295.873046875 711.943359375 277.727539062 694.952148438 253.51171875 671.163085938 c 0
 248.654296875 666.390625 242.325195312 664.004882812 235.995117188 664.004882812 c 0
 199.084960938 664.004882812 157.0625 670.553710938 128.096679688 699.51953125 c 0
 110.293945312 717.321289062 100 742.568359375 100 773 c 2
 100 779 l 2
 100 785.399414062 102.439453125 791.799804688 107.317382812 796.677734375 c 0
 112.1953125 801.555664062 118.595703125 803.995117188 124.995117188 803.995117188 c 0
 131.39453125 803.995117188 137.794921875 801.555664062 142.672851562 796.677734375 c 0
 147.55078125 791.799804688 149.990234375 785.399414062 149.990234375 779 c 2
 149.990234375 773 l 2
 149.990234375 753.625976562 155.575195312 742.751953125 163.452148438 734.875 c 0
 175.5390625 722.787109375 198.62890625 715.62890625 226.037109375 714.243164062 c 1
 253.815429688 741.379882812 273.330078125 759.404296875 289.671875 770.411132812 c 0
 295.89453125 774.602539062 301.861328125 778.063476562 309.25390625 780.258789062 c 0
 312.577148438 781.24609375 316.518554688 782.013671875 320.82421875 782.013671875 c 0
 338.995117188 782.013671875 350.076171875 768.728515625 354.243164062 755.978515625 c 0
 358.209960938 743.84375 358.407226562 731.799804688 358.407226562 716.333007812 c 0
 358.407226562 688.155273438 356.9140625 662.243164062 356.9140625 630.799804688 c 0
 356.9140625 626.307617188 356.990234375 621.69140625 356.990234375 617 c 0
 356.990234375 616.66796875 356.983398438 616.3359375 356.970703125 616.00390625 c 0
 356.146484375 595.1796875 355.493164062 574.764648438 355.493164062 554.909179688 c 0
 355.493164062 479.279296875 364.9765625 411.768554688 410.65234375 360.641601562 c 0
 418.3046875 352.075195312 427.234375 340.99609375 434.110351562 334.120117188 c 0
 439.848632812 328.381835938 443.712890625 325.725585938 449.193359375 323.783203125 c 0
 453.65234375 322.203125 459.955078125 320.995117188 469.995117188 320.995117188 c 0
 471.6484375 320.995117188 473.301757812 320.83203125 474.928710938 320.506835938 c 0
 482.877929688 318.916015625 490.875 318.150390625 498.842773438 318.150390625 c 0
 536.7109375 318.150390625 573.911132812 335.442382812 602.098632812 363.62890625 c 0
 605.814453125 367.345703125 609.360351562 371.2421875 612.713867188 375.295898438 c 1
 590.62109375 469.190429688 l 1
 579.146484375 489.138671875 578.1796875 519.056640625 575.962890625 543.665039062 c 0
 574.426757812 560.711914062 572.620117188 579.151367188 572.620117188 598.313476562 c 0
 572.620117188 619.930664062 574.918945312 642.467773438 582.501953125 664.961914062 c 1
 582.220703125 668.245117188 582.079101562 671.580078125 582.079101562 674.946289062 c 0
 582.079101562 686.294921875 583.693359375 698.013671875 587.0390625 709.421875 c 0
 593.842773438 732.616210938 609.466796875 755.419921875 633.916015625 763.5859375 c 0
 640.4296875 765.762695312 647.373046875 766.83203125 654.50390625 766.83203125 c 0
 659.830078125 766.83203125 665.260742188 766.235351562 670.697265625 765.057617188 c 0
 678.478515625 765.387695312 685.899414062 766.750976562 694.58984375 766.750976562 c 0
 697.017578125 766.750976562 699.591796875 766.633789062 702.342773438 766.328125 c 0
 709.155273438 765.572265625 718.69140625 763.275390625 726.677734375 755.2890625 c 0
 735.512695312 746.454101562 737.990234375 734.826171875 737.990234375 725 c 0
 737.990234375 706.060546875 740.012695312 685.62890625 740.012695312 665.923828125 c 0
 740.012695312 655.374023438 739.44140625 644.616210938 737.647460938 633.861328125 c 0
 734.388671875 614.3203125 732.040039062 593.909179688 729.65625 573.088867188 c 0
 723.05078125 515.392578125 716.655273438 453.315429688 684.487304688 398.89453125 c 0
 679.389648438 386.260742188 673.03515625 374.194335938 665.598632812 362.842773438 c 1
 676.547851562 297.68359375 686.02734375 231.0546875 695.725585938 164.643554688 c 0
 695.811523438 164.05078125 695.876953125 163.456054688 695.921875 162.860351562 c 2
 701.921875 81.8603515625 l 2
 701.966796875 81.2412109375 701.990234375 80.6201171875 701.990234375 80 c 2
 701.990234375 47 l 2
 701.990234375 43.134765625 701.100585938 39.2685546875 699.3203125 35.7392578125 c 0
 695.639648438 28.4375 690.862304688 22.001953125 685.375 16.5146484375 c 0
 669.23828125 0.3779296875 648.584960938 -6.90625 628.90625 -11.025390625 c 0
 600.674804688 -16.935546875 575.6640625 -16.46484375 551.541992188 -16.9892578125 c 0
 549.891601562 -17.025390625 548.24609375 -17.04296875 546.60546875 -17.04296875 c 0
 499.55859375 -17.04296875 457.01171875 -2.2802734375 426.974609375 27.7568359375 c 0
 399.986328125 54.7451171875 385 92.6259765625 385 137 c 0
 385 146.791992188 387.5390625 155.111328125 391.013671875 163.52734375 c 0
 395.34765625 174.0234375 401.556640625 184.702148438 410.758789062 193.904296875 c 0
 418.50390625 201.650390625 430.015625 209.995117188 445.995117188 209.995117188 c 0
 460.440429688 209.995117188 470.434570312 202.408203125 476.940429688 195.90234375 c 0
 486.2734375 186.569335938 492.247070312 175.610351562 496.973632812 164.77734375 c 0
 502.907226562 151.176757812 506.990234375 138.21484375 506.990234375 125 c 0
 506.990234375 110.602539062 501.927734375 103.43359375 499.93359375 96.787109375 c 0
 498 90.341796875 493.083984375 84.587890625 487.182617188 81.6376953125 c 2
 475.182617188 75.6376953125 l 2
 471.672851562 73.8828125 467.833984375 73.0048828125 463.995117188 73.0048828125 c 0
 459.657226562 73.0048828125 455.318359375 74.1259765625 451.454101562 76.3671875 c 1
 469.497070312 49.3212890625 502.102539062 32.9462890625 546.553710938 32.9462890625 c 0
 583.515625 32.9462890625 635.872070312 33.80859375 652 54.0810546875 c 1
 652 79.068359375 l 1
 646.134765625 158.244140625 l 1
 638.321289062 210.431640625 631.206054688 263.317382812 622.704101562 314.817382812 c 1
 588.491210938 286.366210938 545.140625 268.114257812 499.131835938 268.114257812 c 0
 488.698242188 268.114257812 478.127929688 269.052734375 467.49609375 271.024414062 c 0
 451.051757812 271.276367188 436.803710938 274.05859375 424.41015625 280.000976562 c 0
 401.625976562 290.92578125 389.030273438 309.79296875 373.337890625 327.358398438 c 0
 315.807617188 391.754882812 305.295898438 472.290039062 305.295898438 551.173828125 c 0
 305.295898438 573.502929688 306.137695312 595.700195312 306.994140625 617.361328125 c 0
 306.946289062 621.950195312 306.923828125 626.4375 306.923828125 630.8203125 c 0
688.111328125 716.280273438 m 1
 681.8125 715.790039062 675.959960938 715.004882812 667.995117188 715.004882812 c 0
 663.850585938 715.004882812 657.952148438 716.913085938 654.478515625 716.913085938 c 0
 649.446289062 716.913085938 647.081054688 715.4453125 644.138671875 712.502929688 c 0
 640.8984375 709.262695312 637.293945312 703.099609375 635.002929688 695.290039062 c 0
 633.060546875 688.666015625 632.138671875 681.177734375 632.138671875 674.421875 c 0
 632.138671875 669.842773438 632.990234375 666.206054688 632.990234375 662 c 0
 632.990234375 658.98046875 632.447265625 655.961914062 631.361328125 653.1015625 c 0
 624.9375 636.184570312 622.841796875 617.653320312 622.841796875 597.922851562 c 0
 622.841796875 582.046875 624.19921875 565.39453125 625.75 548.18359375 c 0
 627.040039062 533.860351562 627.525390625 521.560546875 630.540039062 506.491210938 c 0
 632.146484375 498.461914062 634.420898438 493.420898438 634.420898438 493.420898438 c 1
 636.302734375 490.759765625 637.603515625 487.8125 638.323242188 484.755859375 c 2
 649.119140625 438.870117188 l 1
 667.97265625 478.727539062 674.060546875 526.995117188 679.993164062 578.815429688 c 0
 682.376953125 599.63671875 684.797851562 620.883789062 688.342773438 642.138671875 c 0
 689.5 649.077148438 689.912109375 657.19140625 689.912109375 666.064453125 c 0
 689.912109375 681.994140625 688.506835938 699.922851562 688.111328125 716.280273438 c 1
457 125 m 0
 457 125.463867188 455.029296875 135.858398438 451.150390625 144.749023438 c 0
 449.133789062 149.37109375 446.633789062 153.709960938 444.53515625 156.78515625 c 1
 441.086914062 152.577148438 436.07421875 142.879882812 434.990234375 137 c 0
 434.990234375 124.2578125 436.55859375 112.860351562 439.443359375 102.704101562 c 1
 440.348632812 107.458984375 442.639648438 112 446.317382812 115.677734375 c 0
 449.26953125 118.629882812 452.515625 120.216796875 456.2890625 122.103515625 c 1
 456.2890625 123.897460938 457 124.251953125 457 125 c 0
EndSplineSet
EndChar
StartChar: Z
Encoding: 90 90 52
Width: 479
Flags: HW
LayerCount: 2
Fore
SplineSet
398.990234375 220.590820312 m 0
 398.990234375 186.145507812 403.32421875 145.866210938 403.32421875 108.899414062 c 0
 403.32421875 92.3603515625 402.588867188 75.7421875 400.4921875 59.69921875 c 0
 396.635742188 30.189453125 388.197265625 0.638671875 366.5234375 -21.03515625 c 0
 348.93359375 -38.625 325.017578125 -47.4609375 296.32421875 -47.4609375 c 0
 286.948242188 -47.4609375 277.061523438 -46.5166015625 266.719726562 -44.626953125 c 0
 260.727539062 -45.9755859375 254.802734375 -46.70703125 248.96484375 -46.70703125 c 0
 230.715820312 -46.70703125 217.276367188 -40.0283203125 207.090820312 -29.8427734375 c 0
 183.317382812 -6.0693359375 180.998046875 32.7998046875 180.998046875 73.1748046875 c 0
 180.998046875 74.484375 180.999023438 75.7646484375 181 77.0146484375 c 0
 181.037109375 140.702148438 207.211914062 186.493164062 232.3828125 231.233398438 c 0
 240.268554688 245.250976562 248.19140625 259.348632812 255.646484375 274.21484375 c 0
 256.737304688 276.389648438 258.165039062 278.438476562 259.930664062 280.282226562 c 2
 306.846679688 329.283203125 l 1
 287.860351562 362.875 263.15234375 391.953125 228.315429688 408.390625 c 0
 220.282226562 412.180664062 214 421.260742188 214 431 c 0
 214 441.294921875 216.439453125 450.822265625 219.891601562 460.005859375 c 0
 224.219726562 471.51953125 230.372070312 482.837890625 237.65234375 494.4453125 c 0
 267.58203125 542.16015625 319.4609375 598.055664062 351.126953125 644.723632812 c 0
 362.6015625 661.634765625 370.845703125 676.907226562 374.133789062 687.462890625 c 0
 381.529296875 711.2109375 389.276367188 733.240234375 398.571289062 757.748046875 c 1
 375.6015625 748.83984375 351.28125 737.58984375 326.484375 730.837890625 c 0
 316.811523438 728.203125 306.822265625 725.916992188 296.3984375 725.916992188 c 0
 292.41796875 725.916992188 288.374023438 726.25 284.259765625 727.025390625 c 0
 237.618164062 727.708984375 196.8984375 745.719726562 155.129882812 750.15234375 c 1
 157.524414062 738.288085938 160.033203125 726.129882812 161.76171875 713.381835938 c 0
 161.9140625 712.259765625 161.990234375 711.129882812 161.990234375 710 c 0
 161.990234375 703.600585938 159.55078125 697.200195312 154.672851562 692.322265625 c 0
 149.794921875 687.444335938 143.39453125 685.004882812 136.995117188 685.004882812 c 0
 124.512695312 685.004882812 113.818359375 694.891601562 112.228515625 706.618164062 c 0
 109.342773438 727.897460938 103.540039062 750.067382812 100.283203125 772.328125 c 0
 100.100585938 773.509765625 100 774.735351562 100 776 c 0
 100 782.399414062 102.439453125 788.799804688 107.317382812 793.677734375 c 0
 112.1953125 798.555664062 118.595703125 800.995117188 124.995117188 800.995117188 c 0
 126.548828125 800.995117188 128.103515625 800.8515625 129.635742188 800.563476562 c 0
 133.028320312 800.67578125 136.333984375 800.995117188 139.995117188 800.995117188 c 0
 168.612304688 800.995117188 194.915039062 794.27734375 219.247070312 788.299804688 c 0
 243.767578125 782.27734375 266.30859375 776.995117188 286.995117188 776.995117188 c 0
 289.78125 776.995117188 291.818359375 776.168945312 294.787109375 776.168945312 c 0
 297.947265625 776.168945312 304.649414062 776.712890625 313.287109375 779.065429688 c 0
 340.954101562 786.599609375 378.626953125 806.176757812 407.229492188 813.319335938 c 0
 412.600585938 814.66015625 418.01171875 815.7890625 424.263671875 815.7890625 c 0
 433.599609375 815.7890625 442.030273438 814.354492188 450.475585938 805.909179688 c 0
 457.85546875 798.529296875 460.010742188 788.982421875 460.010742188 781.577148438 c 0
 460.010742188 773.814453125 458.168945312 767.665039062 455.75390625 761.20703125 c 0
 453.12109375 754.166992188 449.48046875 746.770507812 444.677734375 738.296875 c 0
 435.919921875 715.137695312 428.750976562 694.672851562 421.856445312 672.537109375 c 0
 416.030273438 653.830078125 405.348632812 635.569335938 392.530273438 616.678710938 c 0
 361.00390625 570.217773438 308.302734375 512.966796875 280.03125 467.895507812 c 0
 274.369140625 458.868164062 270.022460938 450.670898438 267.354492188 444.083007812 c 1
 298.676757812 425.005859375 323.49609375 397.576171875 342.872070312 366.91015625 c 1
 394.930664062 421.282226562 l 2
 395.2734375 421.640625 395.631835938 421.993164062 395.994140625 422.330078125 c 2
 437.994140625 461.330078125 l 2
 442.779296875 465.7734375 448.887695312 467.995117188 454.995117188 467.995117188 c 0
 461.39453125 467.995117188 467.794921875 465.555664062 472.672851562 460.677734375 c 0
 477.55078125 455.799804688 479.990234375 449.399414062 479.990234375 443 c 0
 479.990234375 436.270507812 477.149414062 429.456054688 471.99609375 424.669921875 c 2
 430.54296875 386.177734375 l 1
 367.502929688 320.3359375 l 1
 381.264648438 289.235351562 391.016601562 256.938476562 398.28515625 226.912109375 c 0
 398.79296875 224.815429688 398.990234375 222.849609375 398.990234375 220.590820312 c 0
265.995117188 5.9951171875 m 0
 267.760742188 5.9951171875 269.526367188 5.8095703125 271.259765625 5.4384765625 c 0
 281.57421875 3.2294921875 290.200195312 2.279296875 297.477539062 2.279296875 c 0
 314.857421875 2.279296875 324.545898438 7.697265625 331.16796875 14.3203125 c 0
 340.569335938 23.720703125 347.701171875 41.544921875 350.92578125 66.22265625 c 0
 352.625 79.2197265625 353.24609375 93.5908203125 353.24609375 108.532226562 c 0
 353.24609375 144.11328125 349.2421875 183.231445312 349.008789062 217.932617188 c 1
 343.880859375 238.678710938 337.447265625 260.0078125 329.504882812 280.649414062 c 1
 298.638671875 248.412109375 l 1
 291.05078125 233.508789062 283.307617188 219.7578125 275.97265625 206.720703125 c 0
 250.141601562 160.807617188 230.990234375 125.950195312 230.990234375 76.0859375 c 0
 230.990234375 53.4033203125 232.08203125 15.876953125 242.446289062 5.5126953125 c 0
 243.991210938 3.966796875 245.609375 3.2880859375 248.921875 3.2880859375 c 0
 252.44140625 3.2880859375 260.971679688 5.9951171875 265.995117188 5.9951171875 c 0
EndSplineSet
EndChar
StartChar: bracketleft
Encoding: 91 91 58
Width: 258
Flags: HW
LayerCount: 2
Fore
SplineSet
141.961914062 772.689453125 m 1
 141.961914062 -156.689453125 l 1
 208.961914062 -156.689453125 l 1
 208.961914062 -247.310546875 l 1
 106.961914062 -247.310546875 l 2
 78.283203125 -247.310546875 55 -233.868164062 55 -217.310546875 c 2
 55 802.689453125 l 2
 55 836.147460938 70.6826171875 863.310546875 90 863.310546875 c 2
 208.961914062 863.310546875 l 1
 208.961914062 772.689453125 l 1
 141.961914062 772.689453125 l 1
EndSplineSet
EndChar
StartChar: backslash
Encoding: 92 92 59
Width: 422
Flags: HW
LayerCount: 2
Fore
SplineSet
372.961914062 122.310546875 m 1
 287.900390625 87.09765625 l 1
 55 649.689453125 l 1
 140.060546875 684.90234375 l 1
 372.961914062 122.310546875 l 1
EndSplineSet
EndChar
StartChar: bracketright
Encoding: 93 93 60
Width: 258
Flags: HW
LayerCount: 2
Fore
SplineSet
55 -247.310546875 m 1
 55 -156.689453125 l 1
 122 -156.689453125 l 1
 122 772.689453125 l 1
 55 772.689453125 l 1
 55 863.310546875 l 1
 157 863.310546875 l 2
 185.678710938 863.310546875 208.961914062 849.868164062 208.961914062 833.310546875 c 2
 208.961914062 -186.689453125 l 2
 208.961914062 -220.147460938 193.278320312 -247.310546875 173.961914062 -247.310546875 c 2
 55 -247.310546875 l 1
EndSplineSet
EndChar
StartChar: asciicircum
Encoding: 94 94 61
Width: 349
Flags: HW
LayerCount: 2
Fore
SplineSet
-97.64453125 239 m 1
 -133 203.64453125 l 1
 -168.35546875 239 l 1
 -133 274.35546875 l 1
 -97.64453125 239 l 1
434.810546875 708.828125 m 0
 434.810546875 692.365234375 421.4453125 679 404.982421875 679 c 0
 399.104492188 679 393.62109375 680.704101562 389 683.64453125 c 2
 224 788.64453125 l 1
 60 683.64453125 l 2
 55.373046875 680.681640625 49.873046875 678.963867188 43.9765625 678.963867188 c 0
 27.54296875 678.963867188 14.2001953125 692.305664062 14.2001953125 708.739257812 c 0
 14.2001953125 719.275390625 19.68359375 728.54296875 27.890625 733.796875 c 2
 224 859.35546875 l 1
 421.02734375 733.973632812 l 2
 429.286132812 728.715820312 434.810546875 719.412109375 434.810546875 708.828125 c 0
EndSplineSet
EndChar
StartChar: underscore
Encoding: 95 95 62
Width: 512
Flags: HW
LayerCount: 2
Fore
SplineSet
-1.2509765625 -200.99609375 m 0
 -1.2509765625 -181.483398438 14.591796875 -165.424804688 34.1025390625 -165.640625 c 2
 578.28125 -171.653320312 l 2
 597.610351562 -171.8671875 613.236328125 -187.625 613.236328125 -207.00390625 c 0
 613.236328125 -226.516601562 597.39453125 -242.575195312 577.883789062 -242.359375 c 2
 33.71875 -236.346679688 l 2
 14.375 -236.1328125 -1.2509765625 -220.375 -1.2509765625 -200.99609375 c 0
EndSplineSet
EndChar
StartChar: grave
Encoding: 96 96 63
Width: 223
Flags: HW
LayerCount: 2
Fore
SplineSet
57.9501953125 566.573242188 m 0
 57.9501953125 581.139648438 69.7763671875 592.965820312 84.34375 592.965820312 c 0
 92.17578125 592.965820312 99.21484375 589.547851562 104.05078125 584.122070312 c 2
 258.35546875 411 l 2
 262.513671875 406.334960938 265.041992188 400.185546875 265.041992188 393.450195312 c 0
 265.041992188 378.883789062 253.21484375 367.057617188 238.6484375 367.057617188 c 0
 230.81640625 367.057617188 223.76953125 370.469726562 218.94921875 375.877929688 c 2
 64.64453125 549 l 2
 60.478515625 553.688476562 57.9501953125 559.837890625 57.9501953125 566.573242188 c 0
EndSplineSet
EndChar
StartChar: a
Encoding: 97 97 64
Width: 510
Flags: HW
LayerCount: 2
Fore
SplineSet
144.161132812 183.229492188 m 0
 144.161132812 148.411132812 149.743164062 113.94140625 161.897460938 82.912109375 c 1
 219.255859375 104.110351562 276.796875 133.225585938 322.006835938 171.834960938 c 1
 354.364257812 210.270507812 374.671875 256.244140625 374.671875 310.795898438 c 0
 374.671875 322.779296875 373.692382812 335.177734375 371.64453125 348 c 0
 372.395507812 352.41015625 372.752929688 356.537109375 372.752929688 360.397460938 c 0
 372.752929688 364.436523438 372.361328125 368.18359375 371.62109375 371.658203125 c 1
 357.7109375 376.462890625 341.4765625 378.299804688 326 378.64453125 c 1
 306.262695312 389.04296875 287.198242188 393.766601562 269.108398438 393.766601562 c 0
 244.942382812 393.766601562 222.518554688 385.3359375 202.560546875 370.735351562 c 1
 166.221679688 323.048828125 144.161132812 252.44921875 144.161132812 183.229492188 c 0
244.708984375 43.681640625 m 0
 280.296875 43.681640625 316.765625 52.0419921875 347.807617188 67.2587890625 c 1
 340.21875 80.677734375 335.546875 95.9716796875 333.787109375 111.668945312 c 1
 305.422851562 85.0244140625 271.184570312 62.587890625 234.686523438 43.9052734375 c 1
 238.015625 43.755859375 241.358398438 43.681640625 244.708984375 43.681640625 c 0
464.94140625 143.428710938 m 0
 464.94140625 112.797851562 451.671875 86.2109375 430.376953125 64.9150390625 c 2
 428.217773438 62.755859375 l 1
 438.750976562 58.6494140625 450.677734375 56.35546875 464 56.35546875 c 0
 470.318359375 56.35546875 477.068359375 50.8720703125 484.483398438 44.84765625 c 0
 493.5234375 37.50390625 503.552734375 29.35546875 515 29.35546875 c 2
 521 29.35546875 l 1
 560 47.35546875 l 2
 564.084960938 49.2412109375 568.6328125 50.29296875 573.424804688 50.29296875 c 0
 591.141601562 50.29296875 605.526367188 35.9091796875 605.526367188 18.19140625 c 0
 605.526367188 5.2666015625 597.870117188 -5.8857421875 586.904296875 -10.9375 c 0
 564.936523438 -21.0771484375 542.967773438 -31.2158203125 521 -41.35546875 c 1
 515 -41.35546875 l 2
 503.552734375 -41.35546875 493.5234375 -33.20703125 484.483398438 -25.86328125 c 0
 477.068359375 -19.8388671875 470.318359375 -14.35546875 464 -14.35546875 c 0
 436.112304688 -14.35546875 414.338867188 -4.30078125 398.658203125 11.3798828125 c 2
 387.497070312 22.541015625 l 1
 351.4140625 -8.90625 297.106445312 -27.029296875 244.708984375 -27.029296875 c 0
 223.000976562 -27.029296875 201.620117188 -23.91796875 182 -17.35546875 c 0
 181.225585938 -17.40234375 180.465820312 -17.4248046875 179.717773438 -17.4248046875 c 0
 169.705078125 -17.4248046875 162.036132812 -13.314453125 155.872070312 -7.150390625 c 2
 143.169921875 5.5517578125 l 1
 110.8671875 -5.4619140625 79.05859375 -14.0029296875 50 -20.35546875 c 0
 47.6611328125 -20.87890625 45.185546875 -21.1533203125 42.6455078125 -21.1533203125 c 0
 23.5830078125 -21.1533203125 8.1064453125 -5.6767578125 8.1064453125 13.3857421875 c 0
 8.1064453125 29.9091796875 19.734375 43.73828125 35.24609375 47.1298828125 c 0
 57.4248046875 51.978515625 77.40234375 56.4853515625 100.096679688 62.87890625 c 1
 99.609375 63.9404296875 99.1259765625 64.9833984375 98.64453125 66 c 0
 81.298828125 101.150390625 73.451171875 141.944335938 73.451171875 183.229492188 c 0
 73.451171875 262.674804688 102.510742188 343.9375 148.864257812 390.291992188 c 2
 184.219726562 425.646484375 l 2
 208.375 449.801757812 237.225585938 464.477539062 269.108398438 464.477539062 c 0
 287.198242188 464.477539062 306.262695312 459.752929688 326 449.35546875 c 1
 351.811523438 448.780273438 379.734375 444.0546875 395.458984375 428.331054688 c 2
 430.814453125 392.975585938 l 2
 438.655273438 385.134765625 443.462890625 374.55859375 443.462890625 360.397460938 c 0
 443.462890625 356.537109375 443.106445312 352.41015625 442.35546875 348 c 1
 444.403320312 335.177734375 445.3828125 322.779296875 445.3828125 310.795898438 c 0
 445.3828125 285.668945312 441.07421875 262.362304688 433.264648438 240.774414062 c 1
 455.671875 218.3671875 l 2
 459.991210938 214.047851562 461.548828125 188.633789062 462.494140625 173.204101562 c 0
 463.247070312 160.922851562 464.94140625 154.430664062 464.94140625 143.428710938 c 0
EndSplineSet
EndChar
StartChar: b
Encoding: 98 98 65
Width: 522
Flags: HW
LayerCount: 2
Fore
SplineSet
565.35546875 227 m 0
 565.35546875 222.227539062 565.389648438 217.420898438 565.389648438 212.639648438 c 0
 565.389648438 197.76953125 565.059570312 182.978515625 562.35546875 170 c 0
 553.947265625 129.646484375 534.831054688 78.0126953125 503.05078125 46.2314453125 c 2
 467.6953125 10.876953125 l 2
 450.344726562 -6.474609375 429.21875 -17.9072265625 404 -18.35546875 c 0
 348.319335938 -18.35546875 299.400390625 -0.390625 248 5.64453125 c 0
 233.9296875 7.296875 222.677734375 13.7294921875 213.264648438 23.142578125 c 2
 177.909179688 58.498046875 l 2
 173.060546875 63.3466796875 168.700195312 68.986328125 164.692382812 75.1708984375 c 1
 146.444335938 54.6865234375 126.56640625 35.724609375 107.1953125 16.3525390625 c 0
 89.32421875 -1.5185546875 70.23828125 -18.1533203125 50 -33.35546875 c 0
 45.2275390625 -36.931640625 39.3564453125 -39.03515625 32.998046875 -39.03515625 c 0
 17.396484375 -39.03515625 4.73046875 -26.3681640625 4.73046875 -10.7666015625 c 0
 4.73046875 -1.5234375 9.17578125 6.689453125 16.0439453125 11.8486328125 c 0
 41.0546875 30.6357421875 66.240234375 48.9072265625 89.1748046875 69.8427734375 c 0
 106.740234375 89.0634765625 122.997070312 109.526367188 137.877929688 131.018554688 c 1
 130.436523438 148.795898438 122.993164062 165.954101562 113.64453125 179 c 1
 108.252929688 196.786132812 103.69921875 214.7734375 98.64453125 233 c 1
 83.64453125 341 l 1
 77.64453125 527 l 1
 84.263671875 588.380859375 90.130859375 650.513671875 95.64453125 713 c 1
 104.387695312 736.018554688 110.734375 759.337890625 125.64453125 779 c 0
 133.412109375 789.244140625 138.467773438 804.030273438 147.62890625 813.19140625 c 2
 182.984375 848.546875 l 2
 186.861328125 852.423828125 191.407226562 855.303710938 197 856.35546875 c 0
 209.958007812 856.35546875 219.875 851.59375 227.592773438 843.875976562 c 2
 262.948242188 808.520507812 l 2
 285.54296875 785.92578125 287.987304688 743.981445312 295.35546875 710 c 0
 307.420898438 654.35546875 319.501953125 593.650390625 319.501953125 535.052734375 c 0
 319.501953125 531.359375 319.228515625 527.671875 319.35546875 524 c 0
 319.73828125 512.879882812 320.264648438 501.75 320.264648438 490.6171875 c 0
 320.264648438 442.517578125 314.63671875 394.412109375 303.784179688 347.58203125 c 1
 306.91015625 351.96484375 310.517578125 356.303710938 314.248046875 360.033203125 c 2
 349.603515625 395.388671875 l 2
 355.975585938 401.760742188 362.704101562 406.35546875 368 406.35546875 c 0
 413.879882812 406.35546875 443.629882812 399.326171875 470.861328125 372.09375 c 2
 506.216796875 336.739257812 l 2
 509.696289062 333.259765625 513.133789062 329.451171875 516.55859375 325.28515625 c 1
 533.64453125 368 l 1
 534.807617188 381.950195312 535.969726562 395.901367188 537.131835938 409.8515625 c 0
 538.637695312 427.915039062 553.793945312 442.125 572.243164062 442.125 c 0
 591.688476562 442.125 607.475585938 426.337890625 607.475585938 406.892578125 c 0
 607.475585938 405.895507812 607.434570312 404.908203125 607.35546875 404 c 2
 604.35546875 368 l 1
 574.341796875 292.986328125 l 2
 572.354492188 288.018554688 564.702148438 279.5390625 553.448242188 269.611328125 c 1
 560.434570312 256.072265625 565.333984375 241.911132812 565.35546875 227 c 0
248.791992188 535.052734375 m 0
 248.791992188 593.650390625 236.709960938 654.35546875 224.64453125 710 c 0
 219.220703125 735.016601562 216.982421875 760.948242188 207.260742188 784.547851562 c 0
 205.14453125 785.024414062 202.9296875 785.350585938 200.612304688 785.517578125 c 0
 199.2265625 783.147460938 197.82421875 780.9375 196.35546875 779 c 0
 181.4453125 759.337890625 175.098632812 736.018554688 166.35546875 713 c 1
 160.841796875 650.513671875 154.974609375 588.380859375 148.35546875 527 c 1
 154.35546875 341 l 1
 169.35546875 233 l 1
 172.5546875 221.462890625 175.479492188 210.315429688 178.618164062 198.939453125 c 1
 224.649414062 288.237304688 249.5546875 389.44140625 249.5546875 490.6171875 c 0
 249.5546875 501.75 249.02734375 512.879882812 248.64453125 524 c 0
 248.518554688 527.671875 248.791992188 531.359375 248.791992188 535.052734375 c 0
494.64453125 227 m 0
 494.638671875 231.2734375 494.231445312 235.485351562 493.490234375 239.637695312 c 1
 484.452148438 239.409179688 465.030273438 233.319335938 458 230.64453125 c 0
 446.38671875 226.2265625 434.591796875 224.461914062 423.048828125 224.461914062 c 0
 409.073242188 224.461914062 395.466796875 227.048828125 383 230.64453125 c 0
 370.684570312 230.954101562 361.478515625 235.694335938 354.215820312 242.95703125 c 2
 318.861328125 278.3125 l 2
 308.599609375 288.57421875 302.215820312 303.87109375 296.41796875 318.818359375 c 1
 277.5625 251.663085938 247.87109375 187.754882812 208.588867188 131.018554688 c 1
 215.8203125 113.745117188 223.032226562 95.927734375 231.993164062 80.6982421875 c 0
 236.897460938 78.5244140625 242.209960938 77.03515625 248 76.35546875 c 0
 299.400390625 70.3203125 348.319335938 52.35546875 404 52.35546875 c 0
 420.892578125 52.6552734375 435.948242188 57.8837890625 449.262695312 66.5185546875 c 1
 471.068359375 97.4287109375 484.8515625 137.396484375 491.64453125 170 c 0
 494.348632812 182.978515625 494.678710938 197.76953125 494.678710938 212.639648438 c 0
 494.678710938 217.420898438 494.64453125 222.227539062 494.64453125 227 c 0
423.048828125 295.171875 m 0
 434.591796875 295.171875 446.38671875 296.9375 458 301.35546875 c 0
 459.104492188 301.775390625 460.513671875 302.279296875 462.140625 302.83203125 c 1
 459.11328125 307.301757812 455.950195312 312.022460938 452.84765625 316.25390625 c 0
 430.119140625 331.30859375 404.034179688 335.64453125 368 335.64453125 c 1
 368 335.64453125 367.51953125 335.635742188 367.274414062 335.6171875 c 0
 365.435546875 331.79296875 364.35546875 328.418945312 364.35546875 326 c 0
 367.415039062 318.104492188 370.3828125 310.14453125 373.913085938 302.482421875 c 0
 376.741210938 301.82421875 379.763671875 301.436523438 383 301.35546875 c 0
 395.466796875 297.758789062 409.073242188 295.171875 423.048828125 295.171875 c 0
EndSplineSet
EndChar
StartChar: c
Encoding: 99 99 66
Width: 495
Flags: HW
LayerCount: 2
Fore
SplineSet
237.138671875 277.559570312 m 0
 237.138671875 259.220703125 238.006835938 240.03125 238.955078125 220.354492188 c 1
 276.254882812 234.052734375 311.291015625 248.439453125 339.17578125 268.962890625 c 0
 345.770507812 278.303710938 351.29296875 288.635742188 355.557617188 300.162109375 c 0
 354.6484375 300.793945312 353.810546875 301.500976562 353.038085938 302.2734375 c 2
 317.682617188 337.62890625 l 2
 309.576171875 345.734375 308.64453125 361.135742188 308.64453125 374 c 0
 308.64453125 382.828125 309.052734375 393.354492188 313.030273438 401.66015625 c 1
 311.376953125 401.650390625 309.700195312 401.64453125 308 401.64453125 c 0
 288.041992188 397.353515625 271.723632812 390.987304688 258.41015625 382.838867188 c 1
 241.38671875 354.546875 237.138671875 318.13671875 237.138671875 277.559570312 c 0
398 43.35546875 m 1
 545 130.35546875 l 2
 549.532226562 133.038085938 554.8203125 134.578125 560.463867188 134.578125 c 0
 577.256835938 134.578125 590.889648438 120.944335938 590.889648438 104.15234375 c 0
 590.889648438 93.00390625 584.880859375 83.248046875 575.993164062 77.9873046875 c 2
 398 -27.35546875 l 1
 380.400390625 -27.35546875 365.711914062 -25.3583984375 350 -24.35546875 c 1
 350 -24.35546875 346.87109375 -24.498046875 341.807617188 -24.498046875 c 0
 327.884765625 -24.498046875 299.333007812 -23.421875 281 -15.35546875 c 0
 269.444335938 -10.05859375 257.193359375 0.5693359375 247.595703125 10.1669921875 c 0
 233.588867188 24.173828125 204.999023438 51.9609375 194.64453125 65 c 1
 176.326171875 126.82421875 l 1
 130.921875 109.545898438 86.1015625 89.041015625 50 56.244140625 c 0
 45.33203125 52.0166015625 39.1611328125 49.4423828125 32.3935546875 49.4423828125 c 0
 17.9501953125 49.4423828125 6.2236328125 61.16796875 6.2236328125 75.611328125 c 0
 6.2236328125 83.287109375 9.5361328125 90.1953125 14.806640625 94.984375 c 2
 50 126.955078125 l 2
 84.2763671875 158.092773438 126.41015625 178.151367188 169.443359375 194.88671875 c 1
 168.267578125 221.840820312 166.428710938 251.341796875 166.428710938 277.559570312 c 0
 166.428710938 328.318359375 173.076171875 372.5546875 203.059570312 402.5390625 c 2
 238.415039062 437.89453125 l 2
 254.265625 453.745117188 276.638671875 465.61328125 308 472.35546875 c 1
 332.974609375 472.35546875 352.58203125 473.840820312 374.6953125 473.840820312 c 0
 395.956054688 473.840820312 410.044921875 471.525390625 420.458984375 461.111328125 c 2
 455.814453125 425.755859375 l 2
 464.048828125 417.520507812 469.986328125 404.221679688 475.35546875 383 c 0
 476.1640625 379.801757812 476.543945312 376.822265625 476.543945312 374.044921875 c 0
 476.543945312 366.075195312 473.419921875 359.767578125 468.362304688 354.709960938 c 2
 433.006835938 319.354492188 l 2
 432.560546875 318.907226562 432.098632812 318.469726562 431.622070312 318.041992188 c 0
 425.040039062 289.927734375 411.907226562 268.11328125 394.194335938 250.401367188 c 2
 358.838867188 215.045898438 l 2
 329.340820312 185.546875 287.140625 167.42578125 241.352539062 150.526367188 c 0
 241.352539062 149.337890625 241.356445312 148.1484375 241.356445312 146.959960938 c 0
 241.356445312 146.639648438 241.356445312 146.3203125 241.35546875 146 c 2
 265.313476562 65.140625 l 1
 270.48046875 61.1875 275.810546875 57.734375 281 55.35546875 c 0
 299.333007812 47.2890625 327.884765625 46.212890625 341.807617188 46.212890625 c 0
 346.87109375 46.212890625 350 46.35546875 350 46.35546875 c 1
 365.72265625 45.3515625 380.395507812 43.35546875 398 43.35546875 c 1
EndSplineSet
EndChar
StartChar: d
Encoding: 100 100 67
Width: 618
Flags: HW
LayerCount: 2
Fore
SplineSet
290 365.64453125 m 0
 263.666992188 365.64453125 242.967773438 360.579101562 226.698242188 351.560546875 c 1
 203.368164062 311.145507812 202.35546875 251.0625 202.35546875 191 c 0
 204.900390625 180.848632812 208.05859375 169.385742188 211.838867188 157.228515625 c 1
 267.243164062 163.264648438 320.663085938 170.548828125 357.609375 193.283203125 c 1
 366.77734375 209.142578125 371.919921875 228.821289062 371.919921875 253.415039062 c 0
 371.919921875 264.565429688 370.86328125 276.7265625 368.64453125 290 c 0
 364.326171875 315.841796875 360.05078125 337.8125 351.701171875 355.21875 c 1
 336.677734375 362.0546875 316.790039062 365.64453125 290 365.64453125 c 0
304.203125 30.6455078125 m 0
 307.4140625 30.6455078125 310.678710938 30.876953125 314 31.35546875 c 0
 355.9921875 37.4033203125 390.73828125 52.4609375 418.923828125 74.5 c 0
 428.985351562 87.2587890625 437.764648438 101.258789062 445.32421875 116.309570312 c 1
 436.647460938 137.7421875 428.737304688 160.623046875 421.702148438 183.366210938 c 1
 419.135742188 180.010742188 416.358398438 176.853515625 413.38671875 173.880859375 c 2
 378.03125 138.526367188 l 2
 347.033203125 107.52734375 294.763671875 96.6162109375 237.822265625 89.51953125 c 1
 245.6875 72.9111328125 254.645507812 56.9736328125 264.71484375 43.0830078125 c 1
 276.799804688 35.212890625 289.956054688 30.6455078125 304.203125 30.6455078125 c 0
440.359375 593.369140625 m 1
 445.35546875 416 l 1
 455.428710938 342.971679688 458.58203125 307.830078125 478.572265625 231.858398438 c 1
 481.319335938 253.5078125 482.64453125 275.984375 482.64453125 299 c 0
 480.09375 400.788085938 459.71875 498.473632812 440.359375 593.369140625 c 1
412.4921875 806.670898438 m 0
 419.905273438 806.670898438 424.431640625 802.80078125 428.6171875 798.616210938 c 2
 463.97265625 763.260742188 l 2
 479.127929688 748.104492188 487.71484375 716.442382812 490.35546875 701 c 0
 512.364257812 572.278320312 549.83203125 439.607421875 553.35546875 299 c 0
 553.35546875 230.89453125 541.752929688 167.516601562 516.034179688 116.309570312 c 1
 526.90625 89.455078125 538.981445312 64.8740234375 552.047851562 45.6806640625 c 0
 558.543945312 42.2216796875 565.201171875 40.35546875 572 40.35546875 c 0
 586.264648438 40.35546875 598.334960938 44.4716796875 611.158203125 48.865234375 c 1
 623.076171875 72.5693359375 634.995117188 96.2744140625 646.913085938 119.978515625 c 0
 652.108398438 130.310546875 662.80859375 137.407226562 675.153320312 137.407226562 c 0
 692.586914062 137.407226562 706.740234375 123.25390625 706.740234375 105.8203125 c 0
 706.740234375 100.73046875 705.534179688 95.9208984375 703.35546875 91.599609375 c 2
 667.373046875 20.017578125 l 2
 657.854492188 1.0859375 644.622070312 -12.146484375 632 -15.35546875 c 0
 612.623046875 -20.2822265625 594.140625 -30.35546875 572 -30.35546875 c 0
 558.879882812 -30.35546875 546.288085938 -23.404296875 534.359375 -11.474609375 c 2
 499.00390625 23.880859375 l 2
 490.357421875 32.52734375 482.05859375 43.7890625 474.16015625 56.9130859375 c 1
 462.05078125 44.5888671875 449.7265625 32.46875 437.509765625 20.251953125 c 0
 406.48828125 -10.76953125 365.745117188 -31.9033203125 314 -39.35546875 c 0
 310.678710938 -39.833984375 307.4140625 -40.0654296875 304.203125 -40.0654296875 c 0
 282.520507812 -40.0654296875 263.362304688 -29.484375 246.665039062 -12.787109375 c 2
 211.309570312 22.5673828125 l 2
 195.634765625 38.2431640625 182.12890625 59.30859375 170.73828125 82.0693359375 c 1
 127.1796875 77.1376953125 84.5986328125 70.8173828125 50 56.244140625 c 0
 46.0712890625 54.5791015625 41.8056640625 53.6748046875 37.3291015625 53.6748046875 c 0
 19.3466796875 53.6748046875 4.7470703125 68.2744140625 4.7470703125 86.2568359375 c 0
 4.7470703125 99.7646484375 12.9833984375 111.36328125 24.7041015625 116.299804688 c 2
 50 126.955078125 l 2
 77.3642578125 138.481445312 109.721679688 144.844726562 143.606445312 149.44140625 c 1
 138.708984375 164.48828125 134.7265625 178.705078125 131.64453125 191 c 0
 131.64453125 262.262695312 133.0703125 333.555664062 171.506835938 371.9921875 c 2
 206.862304688 407.34765625 l 2
 225.041015625 425.526367188 251.499023438 436.35546875 290 436.35546875 c 0
 331.498046875 436.35546875 356.434570312 427.741210938 372.385742188 411.790039062 c 2
 375.6796875 408.497070312 l 1
 374.64453125 416 l 1
 368.64453125 629 l 1
 383.61328125 769.96875 l 2
 385.7734375 790.271484375 398.94921875 806.670898438 412.4921875 806.670898438 c 0
EndSplineSet
EndChar
StartChar: e
Encoding: 101 101 68
Width: 599
Flags: HW
LayerCount: 2
Fore
SplineSet
190.640625 178.255859375 m 1
 261.029296875 203.666015625 326.575195312 241.484375 369.416015625 295.553710938 c 1
 376.971679688 315.016601562 381.98828125 336.02734375 384 358.689453125 c 0
 384 359.408203125 383.953125 360.114257812 383.862304688 360.807617188 c 0
 358.349609375 366.086914062 330.651367188 367.689453125 318.961914062 367.689453125 c 0
 284.293945312 367.689453125 234.517578125 330.622070312 200.577148438 289.241210938 c 0
 198.875 283.252929688 197.961914062 277.565429688 197.961914062 272.310546875 c 0
 195.413085938 241.717773438 190.755859375 209.788085938 190.640625 178.255859375 c 1
295.318359375 -51.1767578125 m 0
 265.041992188 -51.1767578125 234.873046875 -44.0205078125 210.286132812 -29.8251953125 c 2
 158.325195312 0.1748046875 l 2
 134.893554688 13.703125 116.532226562 33.623046875 107.979492188 59.8330078125 c 1
 75.138671875 53.0400390625 45.12109375 48.9970703125 14.1083984375 45.90625 c 1
 5 137.310546875 l 1
 36.064453125 140.40625 69.6298828125 145.561523438 103.745117188 153.194335938 c 1
 104.330078125 182.841796875 108.586914062 212.727539062 111 241.689453125 c 0
 111 254.921875 116.79296875 270.901367188 126.387695312 287.51953125 c 2
 161.387695312 348.140625 l 2
 191.388671875 400.103515625 258.557617188 458.310546875 302 458.310546875 c 0
 305.353515625 457.670898438 377.354492188 454.416992188 404.456054688 438.76953125 c 2
 456.416992188 408.76953125 l 2
 465.303710938 403.639648438 470.961914062 397.245117188 470.961914062 389.310546875 c 0
 467.823242188 353.94921875 457.365234375 322.60546875 441.3671875 294.896484375 c 2
 406.3671875 234.274414062 l 2
 364.248046875 161.322265625 283.728515625 113.5625 197.290039062 84.01171875 c 1
 202.88671875 70.1533203125 211.33984375 58.2060546875 221.857421875 48.1875 c 1
 239.693359375 42.369140625 259.002929688 39.4443359375 278.356445312 39.4443359375 c 0
 287.275390625 39.4443359375 296.203125 40.0654296875 305 41.310546875 c 0
 396.918945312 54.3203125 427.423828125 75.509765625 487.810546875 117.456054688 c 0
 500.3203125 126.146484375 514.11328125 135.727539062 530 146.310546875 c 1
 545 167.310546875 l 1
 599.092773438 128.672851562 l 1
 546.961914062 55.689453125 l 1
 531.07421875 45.10546875 517.282226562 35.5244140625 504.772460938 26.8349609375 c 0
 444.384765625 -15.1123046875 413.880859375 -36.3017578125 321.961914062 -49.310546875 c 0
 313.1640625 -50.5556640625 304.236328125 -51.1767578125 295.318359375 -51.1767578125 c 0
EndSplineSet
EndChar
StartChar: f
Encoding: 102 102 69
Width: 455
Flags: HW
LayerCount: 2
Fore
SplineSet
245.635742188 98.869140625 m 0
 245.635742188 100.719726562 245.606445312 102.559570312 245.547851562 104.389648438 c 0
 238.400390625 107.545898438 231.959960938 110.810546875 226.3828125 114.092773438 c 1
 229.880859375 93.296875 234.537109375 72.9580078125 240.596679688 53.310546875 c 0
 241.588867188 50.09375 242.895507812 44.9228515625 243.983398438 40.75 c 1
 243.983398438 51.5029296875 245.130859375 62.6845703125 245.130859375 73.7802734375 c 0
 245.1328125 82.2724609375 245.635742188 90.6943359375 245.635742188 98.869140625 c 0
129.51953125 227.30078125 m 0
 129.51953125 229.389648438 130.008789062 230.459960938 130.740234375 231.727539062 c 0
 131.177734375 248.740234375 131.866210938 265.98046875 131.866210938 283.717773438 c 0
 131.866210938 325.010742188 130.46875 366.599609375 130.46875 407.92578125 c 0
 130.46875 458.1484375 132.526367188 508.069335938 141.635742188 556.689453125 c 0
 141.637695312 557.056640625 141.638671875 557.423828125 141.638671875 557.791992188 c 0
 141.638671875 566.823242188 141.088867188 576.091796875 141.088867188 585.147460938 c 0
 141.088867188 593.9609375 141.604492188 602.612304688 143.635742188 610.689453125 c 0
 145.850585938 634.529296875 148.505859375 661.58203125 160.65234375 682.62109375 c 2
 195.65234375 743.243164062 l 2
 197.697265625 746.784179688 200.009765625 750.154296875 202.635742188 753.310546875 c 0
 207.985351562 753.310546875 212.534179688 752.086914062 216.393554688 749.858398438 c 2
 268.35546875 719.858398438 l 2
 285.106445312 710.1875 288.883789062 681.591796875 288.883789062 651.958007812 c 0
 288.883789062 630.225585938 286.333984375 606.772460938 286.333984375 586.737304688 c 0
 286.333984375 583.959960938 286.412109375 581.466796875 286.596679688 579.310546875 c 0
 288.424804688 557.962890625 289.379882812 536.4921875 289.379882812 515.055664062 c 0
 289.379882812 430.104492188 274.37890625 345.682617188 239.211914062 271.557617188 c 1
 273.38671875 251.826171875 l 2
 292.63671875 240.712890625 306.791992188 216.327148438 316.596679688 199.310546875 c 0
 322.572265625 186.87890625 326.822265625 174.416015625 329.432617188 161.611328125 c 1
 362.635742188 153.310546875 l 1
 455.413085938 138.346679688 l 1
 441.596679688 52.689453125 l 1
 379.596679688 62.689453125 l 1
 331.268554688 74.771484375 l 1
 330.123046875 61.21484375 327.381835938 48.2451171875 320.813476562 36.8681640625 c 0
 317.03515625 30.32421875 314.088867188 23.2412109375 310.1328125 16.388671875 c 2
 275.1328125 -44.2333984375 l 2
 267.528320312 -57.4033203125 257.357421875 -68.7685546875 241.596679688 -69.310546875 c 0
 238.329101562 -69.310546875 235.375 -68.4384765625 232.696289062 -66.892578125 c 2
 180.734375 -36.892578125 l 2
 164.188476562 -27.3388671875 159.6640625 3.142578125 153.635742188 22.689453125 c 0
 145.140625 50.234375 139.401367188 79.1376953125 135.75 108.754882812 c 1
 111.383789062 82.328125 82.8037109375 58.712890625 49.5966796875 38.689453125 c 1
 5 112.646484375 l 1
 32.6357421875 129.310546875 l 2
 71.2587890625 152.6015625 103.624023438 180.75 130.377929688 212.530273438 c 0
 129.891601562 215.735351562 129.635742188 219.115234375 129.635742188 222.689453125 c 0
 129.635742188 224.287109375 129.51953125 225.794921875 129.51953125 227.30078125 c 0
EndSplineSet
EndChar
